<?xml version="1.0" encoding="utf-8"?>
<!-- Generator: Adobe Illustrator 26.0.0, SVG Export Plug-In . SVG Version: 6.00 Build 0)  -->
<svg version="1.1" id="Layer_1" xmlns="http://www.w3.org/2000/svg" xmlns:xlink="http://www.w3.org/1999/xlink" x="0px" y="0px"
	 viewBox="0 0 24 24" style="enable-background:new 0 0 24 24;" xml:space="preserve">
<style type="text/css">
	.st0{fill:#64C4B2;}
	.st1{fill:#526BB1;}
	.st2{fill:#E8137B;}
	.st3{fill:#F7D447;}
	.st4{fill:#45C6EE;}
	.st5{fill:#FFFFFF;}
</style>
<g>
	<g id="Group_6_00000111885777867501452950000017957438221822172576_" transform="translate(79.021 0)">
		<path id="Rectangle_12_00000107563836182311213530000010124680986083131825_" class="st0" d="M-70.4,6.5L-70.4,6.5
			c0.4,0.2,0.6,0.8,0.3,1.2l-3.4,5.8c-0.2,0.4-0.8,0.6-1.2,0.3l0,0c-0.4-0.2-0.6-0.8-0.3-1.2l3.4-5.8C-71.4,6.4-70.8,6.3-70.4,6.5z"
			/>
		<path id="Rectangle_13_00000054249487408247471590000008596994568887743420_" class="st1" d="M-64.9,9.3L-64.9,9.3
			c0.4,0.2,0.6,0.8,0.3,1.2l-3.7,6.8c-0.2,0.4-0.8,0.6-1.2,0.3l0,0c-0.4-0.2-0.6-0.8-0.3-1.2l3.7-6.8C-65.9,9.2-65.4,9.1-64.9,9.3z"
			/>
		<path id="Rectangle_14_00000126313599598558979590000002539474651682131844_" class="st2" d="M-63,12.2L-63,12.2
			c0.4,0.2,0.6,0.8,0.3,1.2l-2.2,4c-0.2,0.4-0.8,0.6-1.2,0.3l0,0c-0.4-0.2-0.6-0.8-0.3-1.2l2.2-4C-64,12.1-63.5,12-63,12.2z"/>
		<path id="Rectangle_15_00000073706818524679617730000004152155113972151992_" class="st3" d="M-59.4,12.3L-59.4,12.3
			c0.4,0.2,0.6,0.8,0.3,1.2l-2.2,3.9c-0.2,0.4-0.8,0.6-1.2,0.3l0,0c-0.4-0.2-0.6-0.8-0.3-1.2l2.2-3.9C-60.4,12.2-59.8,12-59.4,12.3z
			"/>
		<path id="Rectangle_16_00000062876972488958145290000014986187016324904347_" class="st4" d="M-66.6,6.3L-66.6,6.3
			c0.4,0.2,0.6,0.8,0.3,1.2l-5.7,9.8c-0.2,0.4-0.8,0.6-1.2,0.3l0,0c-0.4-0.2-0.6-0.8-0.3-1.2l5.7-9.8C-67.6,6.2-67.1,6-66.6,6.3z"/>
	</g>
</g>
</svg>
