<?xml version="1.0" encoding="utf-8"?>
<!-- Generator: Adobe Illustrator 26.0.0, SVG Export Plug-In . SVG Version: 6.00 Build 0)  -->
<svg version="1.1" id="Layer_1" xmlns="http://www.w3.org/2000/svg" xmlns:xlink="http://www.w3.org/1999/xlink" x="0px" y="0px"
	 viewBox="0 0 24 24" style="enable-background:new 0 0 24 24;" xml:space="preserve">
<style type="text/css">
	.st0{fill:#1A2B63;}
	.st1{fill:#D9EAFC;}
	.st2{fill:#AEC1ED;}
	.st3{fill:#445EA0;}
	.st4{fill:#293D7C;}
	.st5{fill:#FE3745;}
	.st6{fill:#B7092B;}
	.st7{fill:#EEF6FF;}
	.st8{fill:#EA2A3D;}
	.st9{fill:#69CDFF;}
	.st10{fill:#52BBEF;}
	.st11{fill:#FFD00D;}
	.st12{fill:#FFAF10;}
	.st13{fill:#FFFFFF;}
	.st14{fill:#FF9518;}
	.st15{fill:#EF8318;}
	.st16{fill:#78B75B;}
	.st17{fill:#669E4F;}
	.st18{fill:#96CC7F;}
	.st19{fill:#D3DCFB;}
	.st20{fill:#EBF5FC;}
	.st21{fill:#3C58A0;}
	.st22{fill:#2A428C;}
	.st23{fill:#FF4155;}
	.st24{fill:#E80054;}
	.st25{fill:#4FABF7;}
	.st26{fill:#1886EA;}
	.st27{fill:#FFDD40;}
	.st28{fill:#FFDB56;}
	.st29{fill:#FF4A4A;}
	.st30{fill:#FFBB24;}
	.st31{fill:#E7343F;}
	.st32{fill:#1EA4E9;}
	.st33{fill:#FBF1CF;}
	.st34{fill:#FAE0BD;}
	.st35{fill:#616A84;}
	.st36{fill:#E68A97;}
	.st37{fill:#F3BE77;}
	.st38{fill:#F19A60;}
	.st39{fill:#E26E7E;}
</style>
<g>
	<g>
		<g id="Travel_00000150784799705213341880000008820928729170850190_" transform="translate(-0.232)">
			<path id="Path_452_00000055683589969977915180000005269131007174189708_" class="st28" d="M6.7,19.4c-1.8,0-3.8,0.6-3.8,1.7
				c0,1.1,1.9,1.7,3.8,1.7s3.8-0.6,3.8-1.7C10.5,20,8.5,19.4,6.7,19.4z"/>
			<path id="Path_453_00000018916629127611512300000007093503825902678691_" class="st29" d="M6.7,7.7C3.8,7.7,1.4,10,1.4,13
				c0,1.8,0.9,3.8,2.6,5.8c0.8,0.9,1.6,1.8,2.6,2.5c0.1,0.1,0.3,0.1,0.4,0c0.9-0.8,1.8-1.6,2.6-2.5c1.7-2,2.6-4,2.6-5.8
				C12,10.1,9.6,7.7,6.7,7.7z M8.7,13c0,1.1-0.9,2-2,2c-1.1,0-2-0.9-2-2c0-1.1,0.9-2,2-2c0,0,0,0,0,0C7.8,11,8.7,11.9,8.7,13
				C8.7,13,8.7,13,8.7,13L8.7,13z"/>
			<path id="Path_454_00000158727604623251756300000014645224949463350935_" class="st28" d="M20.9,10.5c-1.3-0.5-2.7-0.5-4,0
				c-0.6,0.3-1,0.6-1,1.1c0,0.4,0.3,0.8,1,1.1c1.3,0.5,2.7,0.5,4,0c0.6-0.3,1-0.6,1-1.1C21.9,11.1,21.5,10.8,20.9,10.5z"/>
			<g id="Group_202_00000005984474365323410080000010249895125094628257_" transform="translate(2.041 11.62)">
				<path id="Path_455_00000062162271388247099050000007711539599100920222_" class="st30" d="M4.7,10.4C3.1,10.4,1.4,10,1,9.1
					C0.9,9.2,0.9,9.4,0.9,9.5c0,1.1,1.9,1.7,3.8,1.7s3.8-0.6,3.8-1.7c0-0.1,0-0.3-0.1-0.4C7.9,10,6.3,10.4,4.7,10.4z"/>
				<path id="Path_456_00000162333414692496103090000007863160799226620554_" class="st30" d="M18.9,0.2c-1.3,0.5-2.7,0.5-4,0
					c-0.4-0.1-0.7-0.4-0.9-0.7c-0.1,0.1-0.1,0.3-0.1,0.4c0,0.4,0.3,0.8,1,1.1c1.3,0.5,2.7,0.5,4,0c0.6-0.3,1-0.6,1-1.1
					c0-0.1,0-0.3-0.1-0.4C19.5-0.1,19.2,0.1,18.9,0.2z"/>
			</g>
			<path id="Path_457_00000178894238020239914230000011621908516579679931_" class="st29" d="M18.9,1.1c-2.3,0-4.2,1.9-4.2,4.2
				c0.1,1.7,0.8,3.3,2,4.5c0.6,0.7,1.3,1.4,2,1.9c0.1,0.1,0.3,0.1,0.4,0c0.7-0.6,1.4-1.2,2-1.9c1.2-1.2,1.9-2.8,2-4.5
				C23.1,3,21.2,1.1,18.9,1.1z M20.5,5.3c0,0.8-0.7,1.5-1.5,1.5c-0.8,0-1.5-0.7-1.5-1.5s0.7-1.5,1.5-1.5l0,0
				C19.8,3.8,20.5,4.5,20.5,5.3L20.5,5.3z"/>
			<g id="Group_203_00000106834319540168309760000012572855776270699188_" transform="translate(5.708 0)">
				<path id="Path_458_00000122693233172768176680000006542382374739929252_" class="st31" d="M1,7.7c-0.2,0-0.4,0-0.6,0
					C3.1,8,5.1,10.3,5.1,13c0,1.8-0.9,3.8-2.6,5.8c-0.7,0.8-1.4,1.5-2.1,2.2c0.2,0.2,0.4,0.3,0.4,0.3c0.1,0.1,0.3,0.1,0.4,0
					c0.9-0.8,1.8-1.6,2.6-2.5c1.7-2,2.6-4,2.6-5.8C6.3,10.1,3.9,7.7,1,7.7z"/>
				<path id="Path_459_00000158023741711410221920000009412782139044887192_" class="st31" d="M13.2,1.1c-0.2,0-0.4,0-0.6,0
					c2,0.3,3.6,2.1,3.6,4.1c-0.1,1.7-0.8,3.3-2,4.5c-0.5,0.6-1,1.1-1.6,1.6c0.2,0.2,0.4,0.3,0.4,0.3c0.1,0.1,0.3,0.1,0.4,0
					c0.7-0.6,1.4-1.2,2-1.9c1.2-1.2,1.9-2.8,2-4.5C17.4,3,15.5,1.1,13.2,1.1z"/>
			</g>
			<path id="Path_460_00000038384801855890782990000012075381306818785667_" class="st32" d="M11.6,21.5c-0.2,0-0.3-0.1-0.3-0.3
				s0.1-0.3,0.3-0.3l0,0h0.4l0,0c0.2,0,0.3,0.1,0.3,0.3s-0.1,0.3-0.3,0.3H11.6z M13.3,21.4c-0.2,0-0.3-0.1-0.3-0.3s0.1-0.3,0.3-0.3
				h0.4l0,0c0.2,0,0.3,0.1,0.3,0.3s-0.1,0.3-0.3,0.3H13.3L13.3,21.4z M15,21.4c-0.2,0-0.3-0.1-0.3-0.3s0.1-0.3,0.3-0.3h0.4l0,0
				c0.2,0,0.3,0.1,0.3,0.3s-0.1,0.3-0.3,0.3l0,0H15z M16.7,21.4c-0.2,0-0.3-0.1-0.3-0.3c0-0.2,0.1-0.3,0.3-0.3h0.4l0,0
				c0.2,0,0.3,0.1,0.3,0.3c0,0.2-0.1,0.3-0.3,0.3l0,0H16.7z M18.4,21.4c-0.2,0-0.3-0.1-0.3-0.3s0.1-0.3,0.3-0.3h0.4l0,0
				c0.2,0,0.3,0.1,0.3,0.3s-0.1,0.3-0.3,0.3H18.4z M20.1,21.4c-0.2,0-0.3-0.1-0.3-0.3s0.1-0.3,0.3-0.3h0.1c0.1,0,0.2,0,0.3,0
				c0.2,0,0.3,0.1,0.4,0.3c0,0.2-0.1,0.3-0.3,0.4c0,0,0,0,0,0C20.4,21.4,20.3,21.4,20.1,21.4L20.1,21.4z M21.6,20.9
				c-0.2,0-0.3-0.1-0.3-0.3c0-0.1,0.1-0.2,0.1-0.3c0.1-0.1,0.2-0.1,0.3-0.2c0.1-0.1,0.3-0.1,0.5,0c0.1,0.1,0.1,0.3,0,0.5
				c0,0,0,0,0,0c-0.1,0.1-0.2,0.2-0.4,0.3C21.8,20.9,21.7,20.9,21.6,20.9L21.6,20.9z M22.7,19.6c-0.2,0-0.3-0.1-0.3-0.3
				c0,0,0-0.1,0-0.1c0-0.1,0.1-0.2,0.1-0.4c0-0.2,0.2-0.3,0.4-0.3s0.3,0.2,0.3,0.4c0,0,0,0,0,0c0,0.2-0.1,0.3-0.1,0.5
				C22.9,19.5,22.8,19.6,22.7,19.6L22.7,19.6z M22.7,18c-0.1,0-0.3-0.1-0.3-0.2c0-0.1-0.1-0.2-0.1-0.3c-0.1-0.2,0-0.3,0.2-0.4
				c0.2-0.1,0.3,0,0.4,0.2c0.1,0.1,0.1,0.3,0.2,0.4C23.1,17.7,23,17.9,22.7,18C22.8,18,22.7,18,22.7,18L22.7,18z M21.8,16.6
				c-0.1,0-0.1,0-0.2-0.1c-0.1-0.1-0.2-0.1-0.3-0.2c-0.2-0.1-0.2-0.3-0.1-0.4c0.1-0.1,0.3-0.2,0.4-0.1c0.1,0.1,0.3,0.2,0.4,0.3
				c0.1,0.1,0.2,0.3,0.1,0.4C22,16.5,21.9,16.6,21.8,16.6L21.8,16.6z M20.2,16L20.2,16h-0.1h-0.3c-0.2,0-0.3-0.1-0.3-0.3
				s0.1-0.3,0.3-0.3h0.3c0,0,0.1,0,0.1,0c0.2,0,0.3,0.1,0.3,0.3C20.5,15.9,20.4,16,20.2,16z M18.5,16h-0.4c-0.2,0-0.3-0.1-0.3-0.3
				s0.1-0.3,0.3-0.3h0.4c0.2,0,0.3,0.1,0.3,0.3S18.7,16,18.5,16L18.5,16L18.5,16z M16.9,16h-0.4c-0.2,0-0.3-0.1-0.3-0.3
				s0.1-0.3,0.3-0.3h0.4c0.2,0,0.3,0.1,0.3,0.3S17,16,16.9,16L16.9,16z M15.2,16h-0.4c-0.2,0-0.3-0.1-0.3-0.3s0.1-0.3,0.3-0.3h0.4
				c0.2,0,0.3,0.1,0.3,0.3S15.4,16,15.2,16L15.2,16z M13.6,15.7c-0.1,0-0.1,0-0.2,0c-0.1-0.1-0.3-0.2-0.4-0.3
				c-0.1-0.1-0.1-0.3,0-0.5c0.1-0.1,0.3-0.1,0.5,0l0,0c0.1,0.1,0.2,0.2,0.3,0.2c0.1,0.1,0.2,0.3,0.1,0.4
				C13.8,15.6,13.7,15.7,13.6,15.7L13.6,15.7z M12.6,14.3c-0.2,0-0.3-0.1-0.3-0.3c0-0.2,0-0.3,0-0.5v0c0-0.2,0.1-0.3,0.3-0.3l0,0
				c0.2,0,0.3,0.1,0.3,0.3c0,0,0,0,0,0v0c0,0.1,0,0.2,0,0.3C13,14.1,12.9,14.3,12.6,14.3C12.7,14.3,12.6,14.3,12.6,14.3L12.6,14.3z
				 M13,12.8c-0.2,0-0.3-0.1-0.3-0.3c0-0.1,0-0.1,0.1-0.2c0.1-0.1,0.2-0.3,0.3-0.4c0.1-0.1,0.3-0.1,0.4,0c0.1,0.1,0.1,0.3,0,0.4l0,0
				c-0.1,0.1-0.2,0.2-0.2,0.3C13.2,12.7,13.1,12.7,13,12.8L13,12.8z M14.4,11.9c-0.2,0-0.3-0.1-0.3-0.3c0-0.2,0.1-0.3,0.3-0.3
				c0.1,0,0.2,0,0.3,0h0.1c0.2,0,0.3,0.1,0.3,0.3s-0.1,0.3-0.3,0.3h-0.1C14.6,11.9,14.5,11.9,14.4,11.9
				C14.4,11.9,14.4,11.9,14.4,11.9L14.4,11.9z"/>
		</g>
	</g>
</g>
</svg>
