<?xml version="1.0" encoding="utf-8"?>
<!-- Generator: Adobe Illustrator 26.0.0, SVG Export Plug-In . SVG Version: 6.00 Build 0)  -->
<svg version="1.1" id="Layer_1" xmlns="http://www.w3.org/2000/svg" xmlns:xlink="http://www.w3.org/1999/xlink" x="0px" y="0px"
	 viewBox="0 0 24 24" style="enable-background:new 0 0 24 24;" xml:space="preserve">
<style type="text/css">
	.st0{fill:#1A2B63;}
	.st1{fill:#D9EAFC;}
	.st2{fill:#AEC1ED;}
	.st3{fill:#445EA0;}
	.st4{fill:#293D7C;}
	.st5{fill:#FE3745;}
	.st6{fill:#B7092B;}
	.st7{fill:#EEF6FF;}
	.st8{fill:#EA2A3D;}
	.st9{fill:#69CDFF;}
	.st10{fill:#52BBEF;}
	.st11{fill:#FFD00D;}
	.st12{fill:#FFAF10;}
	.st13{fill:#FFFFFF;}
	.st14{fill:#FF9518;}
	.st15{fill:#EF8318;}
	.st16{fill:#78B75B;}
	.st17{fill:#669E4F;}
	.st18{fill:#96CC7F;}
	.st19{fill:#D3DCFB;}
	.st20{fill:#EBF5FC;}
	.st21{fill:#3C58A0;}
	.st22{fill:#2A428C;}
	.st23{fill:#FF4155;}
	.st24{fill:#E80054;}
	.st25{fill:#4FABF7;}
	.st26{fill:#1886EA;}
	.st27{fill:#FFDD40;}
	.st28{fill:#FFDB56;}
	.st29{fill:#FF4A4A;}
	.st30{fill:#FFBB24;}
	.st31{fill:#E7343F;}
	.st32{fill:#1EA4E9;}
	.st33{fill:#FBF1CF;}
	.st34{fill:#FAE0BD;}
	.st35{fill:#616A84;}
	.st36{fill:#E68A97;}
	.st37{fill:#F3BE77;}
	.st38{fill:#F19A60;}
	.st39{fill:#E26E7E;}
</style>
<g>
	<g id="Expenses_00000084489175478934429380000006598113552092489643_" transform="translate(-16 -16)">
		<path id="Path_431_00000036964064916114371530000001890204653585137579_" class="st16" d="M35,28l4.1-4.1l-7-7L21,28"/>
		<path id="Path_432_00000094587173335381867750000015092302046001368494_" class="st17" d="M24.3,28c0-2,1.7-3.7,3.7-3.7
			s3.7,1.7,3.7,3.7l0,0"/>
		<path id="Path_433_00000003084187205454096540000017357436842211660932_" class="st16" d="M30.5,28.5c0-0.4-0.2-0.8-0.4-1
			c-0.6-0.6-1.5-0.6-2.1,0l-1-1c0.3-0.3,0.8-0.3,1,0l0.5-0.5c-0.6-0.6-1.5-0.6-2.1,0l-0.3-0.3l-0.5,0.5l0.3,0.3
			c-0.6,0.6-0.6,1.5,0,2.1c0.6,0.6,1.5,0.6,2.1,0l1,1c-0.3,0.3-0.8,0.3-1,0l-0.5,0.5c0.6,0.6,1.5,0.6,2.1,0l0.3,0.3l0.5-0.5
			l-0.3-0.3C30.4,29.3,30.5,28.9,30.5,28.5L30.5,28.5z M27.5,28c-0.3,0.3-0.8,0.3-1,0c-0.3-0.3-0.3-0.8,0-1L27.5,28z M28.5,28
			c0.3-0.3,0.8-0.3,1,0c0.3,0.3,0.3,0.8,0,1L28.5,28z"/>
		<g id="Group_186_00000165213959361575797610000007512014294558818711_" transform="translate(29.445 18.095)">
			<path id="Path_434_00000009575223588593585530000001383796911266659487_" class="st17" d="M4.6,9.1L4,8.6l2.9-2.9L2.7,1.5
				l-2.9,2.9l-0.5-0.5l3.1-3.1c0.1-0.1,0.4-0.1,0.5,0l4.7,4.7c0.1,0.1,0.1,0.4,0,0.5L4.6,9.1z"/>
		</g>
		<g id="Group_187_00000088113540943265318800000006849893570094117010_" transform="translate(33.605 25.324)">
			<path id="Path_435_00000127752366607016215830000013897909796552230578_" class="st18" d="M-1.2,0.3l0.5-0.5l0.5,0.5l-0.5,0.5
				L-1.2,0.3z"/>
		</g>
		<g id="Group_188_00000129886860911127006140000001310564333741486486_" transform="translate(34.778 24.151)">
			<path id="Path_436_00000061466260038095755000000001181541958483361461_" class="st18" d="M-1.3,0.5l0.5-0.5l0.5,0.5L-0.8,1
				L-1.3,0.5z"/>
		</g>
		<g id="Group_189_00000153707683901267511060000017844546147191488182_" transform="translate(30.641 22.367)">
			<path id="Path_437_00000158018026918213476990000012547612220644270478_" class="st18" d="M-0.8,0.7l0.5-0.5l0.5,0.5l-0.5,0.5
				L-0.8,0.7z"/>
		</g>
		<g id="Group_190_00000081634633608807836580000013746675706922984869_" transform="translate(31.815 21.186)">
			<path id="Path_438_00000068670957525136473600000001920120887221001880_" class="st18" d="M-0.9,0.8l0.5-0.5l0.5,0.5l-0.5,0.5
				L-0.9,0.8z"/>
		</g>
		<path id="Path_439_00000006693570445743979440000017605903732055528328_" class="st18" d="M16.9,28h22.3v9.6H16.9V28z"/>
		<circle id="Ellipse_26_00000092431203289012755660000007187471183488046728_" class="st16" cx="28" cy="32.8" r="3.7"/>
		<path id="Path_440_00000100377877330201873290000004466372569900906402_" class="st16" d="M22.4,37.6l1.5,1.5l1.5-1.5"/>
		<path id="Path_441_00000003823300164902603770000008927887068017273279_" class="st17" d="M28.4,32.5L28.4,32.5V31l0,0
			c0.4,0,0.7,0.3,0.7,0.7h0.7c0-0.8-0.7-1.5-1.5-1.5l0,0v-0.4h-0.7v0.4c-0.8,0-1.5,0.7-1.5,1.5c0,0.8,0.7,1.5,1.5,1.5v1.5
			c-0.4,0-0.7-0.3-0.7-0.7h-0.7c0,0.8,0.7,1.5,1.5,1.5v0.4h0.7v-0.4l0,0c0.8,0,1.5-0.7,1.5-1.5C29.9,33.1,29.2,32.5,28.4,32.5
			L28.4,32.5z M26.9,31.7c0-0.4,0.3-0.7,0.7-0.7v1.5C27.2,32.5,26.9,32.1,26.9,31.7L26.9,31.7z M28.4,34.7L28.4,34.7v-1.5l0,0
			c0.4,0,0.7,0.3,0.7,0.7S28.8,34.7,28.4,34.7z"/>
		<g id="Group_191_00000083788872802389557810000015382070888859450777_" transform="translate(34.442 29.831)">
			<path id="Path_442_00000145037384822758906790000015802932980240205750_" class="st17" d="M3.2,6.7h-4.5V6h4.1V0h-4.1v-0.7h4.5
				c0.2,0,0.4,0.2,0.4,0.4l0,0v6.7C3.6,6.5,3.4,6.7,3.2,6.7z"/>
		</g>
		<g id="Group_192_00000058579007467580675440000016585644099782350010_" transform="translate(17.257 29.831)">
			<path id="Path_443_00000011721750208812535600000005221342355464020864_" class="st17" d="M5.5,6.7H1.1c-0.2,0-0.4-0.2-0.4-0.4
				l0,0v-6.7c0-0.2,0.2-0.4,0.4-0.4h0h4.5V0H1.5V6h4.1L5.5,6.7z"/>
		</g>
		<g id="Group_193_00000013194808801663615110000003090044241103975338_" transform="translate(34.442 35.699)">
			<path id="Path_444_00000125580152808174429030000012190613097360787355_" class="st16" d="M-1.2-1.4h0.7v0.7h-0.7V-1.4z"/>
		</g>
		<g id="Group_194_00000067944904506031955930000016327445927917735596_" transform="translate(36.118 35.699)">
			<path id="Path_445_00000145745658194897978780000015911748668755261578_" class="st16" d="M-1.4-1.4h0.7v0.7h-0.7V-1.4z"/>
		</g>
		<g id="Group_195_00000122711995673510960220000002101798890583444375_" transform="translate(34.442 31.508)">
			<path id="Path_446_00000129897589703685150850000013386438701857216912_" class="st16" d="M-1.2-0.9h0.7v0.7h-0.7V-0.9z"/>
		</g>
		<g id="Group_196_00000129900123804987199350000011116845601290990240_" transform="translate(36.118 31.508)">
			<path id="Path_447_00000147913508113789626840000006938349606960781735_" class="st16" d="M-1.4-0.9h0.7v0.7h-0.7V-0.9z"/>
		</g>
		<g id="Group_197_00000036943584878391387180000008792394670836229284_" transform="translate(20.191 31.508)">
			<path id="Path_448_00000084512096535726444840000016185783518072276871_" class="st16" d="M0.4-0.9h0.7v0.7H0.4V-0.9z"/>
		</g>
		<g id="Group_198_00000082358899851325051100000005970467277097062533_" transform="translate(21.868 31.508)">
			<path id="Path_449_00000002372550412224324330000001900882269765349276_" class="st16" d="M0.2-0.9h0.7v0.7H0.2V-0.9z"/>
		</g>
		<g id="Group_199_00000153685256950034224450000010784978360514014875_" transform="translate(20.191 35.699)">
			<path id="Path_450_00000077297165125369808480000015458060614486264227_" class="st16" d="M0.4-1.4h0.7v0.7H0.4V-1.4z"/>
		</g>
		<g id="Group_200_00000116948450357345008990000001998196104014900617_" transform="translate(21.868 35.699)">
			<path id="Path_451_00000152244761486876342540000012639971545392040377_" class="st16" d="M0.2-1.4h0.7v0.7H0.2V-1.4z"/>
		</g>
	</g>
</g>
</svg>
