<?xml version="1.0" encoding="utf-8"?>
<!-- Generator: Adobe Illustrator 26.0.0, SVG Export Plug-In . SVG Version: 6.00 Build 0)  -->
<svg version="1.1" id="Layer_1" xmlns="http://www.w3.org/2000/svg" xmlns:xlink="http://www.w3.org/1999/xlink" x="0px" y="0px"
	 viewBox="0 0 24 24" style="enable-background:new 0 0 24 24;" xml:space="preserve">
<style type="text/css">
	.st0{fill:#1A2B63;}
	.st1{fill:#D9EAFC;}
	.st2{fill:#AEC1ED;}
	.st3{fill:#445EA0;}
	.st4{fill:#293D7C;}
	.st5{fill:#FE3745;}
	.st6{fill:#B7092B;}
	.st7{fill:#EEF6FF;}
	.st8{fill:#EA2A3D;}
	.st9{fill:#69CDFF;}
	.st10{fill:#52BBEF;}
	.st11{fill:#FFD00D;}
	.st12{fill:#FFAF10;}
	.st13{fill:#FFFFFF;}
	.st14{fill:#FF9518;}
	.st15{fill:#EF8318;}
	.st16{fill:#78B75B;}
	.st17{fill:#669E4F;}
	.st18{fill:#96CC7F;}
	.st19{fill:#D3DCFB;}
	.st20{fill:#EBF5FC;}
	.st21{fill:#3C58A0;}
	.st22{fill:#2A428C;}
	.st23{fill:#FF4155;}
	.st24{fill:#E80054;}
	.st25{fill:#4FABF7;}
	.st26{fill:#1886EA;}
	.st27{fill:#FFDD40;}
	.st28{fill:#FFDB56;}
	.st29{fill:#FF4A4A;}
	.st30{fill:#FFBB24;}
	.st31{fill:#E7343F;}
	.st32{fill:#1EA4E9;}
	.st33{fill:#FBF1CF;}
	.st34{fill:#FAE0BD;}
	.st35{fill:#616A84;}
	.st36{fill:#E68A97;}
	.st37{fill:#F3BE77;}
	.st38{fill:#F19A60;}
	.st39{fill:#E26E7E;}
</style>
<g>
	<g id="Appraisals_00000113314130058627336700000012603252511471422596_" transform="translate(-4.731)">
		<path id="Path_703_00000062873818355508722980000013993089683133491897_" class="st33" d="M18.8,22.8h-11c-1,0-1.8-0.8-1.8-1.8V5
			c0-1,0.8-1.8,1.8-1.8h12.6c1,0,1.8,0.8,1.8,1.8v14.4C22.2,21.3,20.7,22.8,18.8,22.8C18.8,22.8,18.8,22.8,18.8,22.8z"/>
		<path id="Path_704_00000119809752813421079260000017995893069938676896_" class="st34" d="M6.1,5v16.1c0,1,0.8,1.8,1.8,1.8h5.3
			C10,20.4,9.8,9.4,9.8,3.2H7.8C6.9,3.2,6.1,4,6.1,5C6.1,5,6.1,5,6.1,5z"/>
		<path id="Path_705_00000049222101951200807600000001565612107671024538_" class="st34" d="M22.2,6.5l-3.4,3.4
			c-0.4,0.4-0.6,1-0.6,1.5v1c0,1,0.8,1.8,1.8,1.8h1c0.4,0,0.8-0.1,1.2-0.4L22.2,6.5z"/>
		<g id="Group_418_00000131327116209228605510000008867571938572961684_" transform="translate(7.587 6.638)">
			<path id="Path_706_00000171711203650078335760000013079798320263035302_" class="st35" d="M11.9,8.3h-2C9.4,8.3,9,7.9,9,7.4v-2
				c0-0.5,0.4-0.9,0.9-0.9h2c0.5,0,0.9,0.4,0.9,0.9v2C12.8,7.9,12.4,8.3,11.9,8.3z M9.9,5.1c-0.1,0-0.2,0.1-0.2,0.2v0v2
				c0,0.1,0.1,0.2,0.2,0.2h0h2c0.1,0,0.2-0.1,0.2-0.2v-2c0-0.1-0.1-0.2-0.2-0.2h0H9.9z"/>
			<path id="Path_707_00000090979570752323310020000011263050075822616762_" class="st35" d="M11.9,13.9h-2C9.4,13.9,9,13.5,9,13v-2
				c0-0.5,0.4-0.9,0.9-0.9h2c0.5,0,0.9,0.4,0.9,0.9v2C12.8,13.5,12.4,13.9,11.9,13.9z M9.9,10.7c-0.1,0-0.2,0.1-0.2,0.2l0,0v2
				c0,0.1,0.1,0.2,0.2,0.2h0h2c0.1,0,0.2-0.1,0.2-0.2v-2c0-0.1-0.1-0.2-0.2-0.2h0H9.9z"/>
			<g id="Group_417_00000020390469029379349440000003154189753818688901_">
				<path id="Path_708_00000107567286845323639240000011152294808959934090_" class="st35" d="M5.8,0.3H1C0.9,0.3,0.7,0.2,0.7,0
					S0.9-0.3,1-0.3h4.8C6-0.3,6.1-0.2,6.1,0S6,0.3,5.8,0.3z"/>
				<path id="Path_709_00000095321091002342336730000013838902404781038235_" class="st35" d="M3.4,2H1C0.9,2,0.7,1.9,0.7,1.7
					S0.9,1.4,1,1.4h2.4c0.2,0,0.3,0.1,0.3,0.3S3.6,2,3.4,2L3.4,2z"/>
				<path id="Path_710_00000092444598449855630580000010816911336803754934_" class="st35" d="M5.8,5.9H1c-0.2,0-0.3-0.1-0.3-0.3
					S0.9,5.3,1,5.3h4.8c0.2,0,0.3,0.1,0.3,0.3S6,5.9,5.8,5.9z"/>
				<path id="Path_711_00000024718088173493579210000003701663860800688061_" class="st35" d="M3.4,7.6H1c-0.2,0-0.3-0.1-0.3-0.3
					S0.9,7,1,7h2.4c0.2,0,0.3,0.1,0.3,0.3S3.6,7.6,3.4,7.6L3.4,7.6z"/>
				<path id="Path_712_00000130641690903812331010000000584670782419910803_" class="st35" d="M5.8,11.5H1c-0.2,0-0.3-0.1-0.3-0.3
					c0-0.2,0.1-0.3,0.3-0.3h4.8c0.2,0,0.3,0.1,0.3,0.3C6.1,11.4,6,11.5,5.8,11.5z"/>
				<path id="Path_713_00000141427143107446068830000015608625083487249830_" class="st35" d="M3.4,13.2H1c-0.2,0-0.3-0.1-0.3-0.3
					c0-0.2,0.1-0.3,0.3-0.3h2.4c0.2,0,0.3,0.1,0.3,0.3C3.7,13.1,3.6,13.2,3.4,13.2L3.4,13.2z"/>
			</g>
		</g>
		<path id="Path_714_00000058574904102583683840000002416142864824829833_" class="st36" d="M18.2,8.5c-0.1,0-0.2,0-0.2-0.1
			l-0.9-0.9C17,7.3,17,7.1,17.1,7c0.1-0.1,0.3-0.1,0.4,0l0,0l0.7,0.7l1.6-1.6c0.1-0.1,0.3-0.1,0.4,0c0.1,0.1,0.1,0.3,0,0.4l-1.8,1.8
			C18.4,8.4,18.3,8.5,18.2,8.5z"/>
		<g id="Group_419_00000068670310084861015830000008604580083818068889_" transform="translate(19.107 21.465)">
			<path id="Path_715_00000026165620443134290660000012416844884674871715_" class="st34" d="M3.1-2.1c0,1.9-1.5,3.4-3.4,3.4l0,0
				h-1.5c0.8,0,1.4-0.6,1.4-1.4v0v-0.3c0-1,0.8-1.8,1.8-1.8h0.3c0.8,0,1.4-0.6,1.4-1.4v0V-2.1L3.1-2.1z"/>
		</g>
		<path id="Path_716_00000091697453634332007060000007000941744834711453_" class="st36" d="M27.1,6l-0.6-0.6
			c-0.4-0.4-0.9-0.4-1.3,0c0,0,0,0,0,0l-0.9,0.9l1.9,1.9l0.9-0.9C27.5,6.9,27.5,6.4,27.1,6z"/>
		<path id="Path_717_00000140718864490713400060000011649345814873458308_" class="st37" d="M20.2,10.4l4.1-4.1l1.9,1.9l-4.1,4.1
			L20.2,10.4z"/>
		<path id="Path_718_00000018195945436612157400000003933742865467127472_" class="st38" d="M20.2,10.4l1.9,1.9l1.3-1.3
			c-0.7-0.5-0.9-2.3-0.8-3L20.2,10.4z"/>
		<path id="Path_719_00000174578592636031511430000001231431903408329346_" class="st35" d="M20.2,10.4l-0.4,0.4
			c-0.2,0.2-0.3,0.4-0.3,0.6v1c0,0.3,0.2,0.5,0.5,0.5h1c0.2,0,0.5-0.1,0.6-0.3l0.4-0.4L20.2,10.4z"/>
		<path id="Path_720_00000067929963973488798170000006696420397036766903_" class="st36" d="M14.3,1.2H14c-0.6,0-1,0.5-1,1v0.9
			c0,0.6,0.5,1,1,1h0.3c0.6,0,1-0.5,1-1V2.2C15.4,1.6,14.9,1.2,14.3,1.2z"/>
		<path id="Path_721_00000065064230534507694560000017294497974314872976_" class="st39" d="M9.2,1.2H8.8c-0.6,0-1,0.5-1,1
			c0,0,0,0,0,0v0.9c0,0.6,0.5,1,1,1h0.3c0.6,0,1-0.5,1-1c0,0,0,0,0,0V2.2C10.2,1.6,9.7,1.2,9.2,1.2z"/>
		<path id="Path_722_00000183953936762338383010000002224387227385063307_" class="st39" d="M19.2,1.2h0.3c0.6,0,1,0.5,1,1v0v0.9
			c0,0.6-0.5,1-1,1l0,0h-0.3c-0.6,0-1-0.5-1-1c0,0,0,0,0,0V2.2C18.1,1.6,18.6,1.2,19.2,1.2L19.2,1.2z"/>
	</g>
</g>
</svg>
