<?xml version="1.0" encoding="utf-8"?>
<!-- Generator: Adobe Illustrator 26.0.0, SVG Export Plug-In . SVG Version: 6.00 Build 0)  -->
<svg version="1.1" id="Layer_1" xmlns="http://www.w3.org/2000/svg" xmlns:xlink="http://www.w3.org/1999/xlink" x="0px" y="0px"
	 viewBox="0 0 24 24" style="enable-background:new 0 0 24 24;" xml:space="preserve">
<style type="text/css">
	.st0{fill:#1A2B63;}
	.st1{fill:#D9EAFC;}
	.st2{fill:#AEC1ED;}
	.st3{fill:#445EA0;}
	.st4{fill:#293D7C;}
	.st5{fill:#FE3745;}
	.st6{fill:#B7092B;}
	.st7{fill:#EEF6FF;}
	.st8{fill:#EA2A3D;}
	.st9{fill:#69CDFF;}
	.st10{fill:#52BBEF;}
	.st11{fill:#FFD00D;}
	.st12{fill:#FFAF10;}
	.st13{fill:#FFFFFF;}
	.st14{fill:#FF9518;}
	.st15{fill:#EF8318;}
	.st16{fill:#78B75B;}
	.st17{fill:#669E4F;}
	.st18{fill:#96CC7F;}
	.st19{fill:#D3DCFB;}
	.st20{fill:#EBF5FC;}
	.st21{fill:#3C58A0;}
	.st22{fill:#2A428C;}
	.st23{fill:#FF4155;}
	.st24{fill:#E80054;}
	.st25{fill:#4FABF7;}
	.st26{fill:#1886EA;}
	.st27{fill:#FFDD40;}
	.st28{fill:#FFDB56;}
	.st29{fill:#FF4A4A;}
	.st30{fill:#FFBB24;}
	.st31{fill:#E7343F;}
	.st32{fill:#1EA4E9;}
	.st33{fill:#FBF1CF;}
	.st34{fill:#FAE0BD;}
	.st35{fill:#616A84;}
	.st36{fill:#E68A97;}
	.st37{fill:#F3BE77;}
	.st38{fill:#F19A60;}
	.st39{fill:#E26E7E;}
</style>
<g>
	<g id="Projects_00000183220589810636313680000009892788102727585695_" transform="translate(-10.847)">
		<circle id="Ellipse_14_00000132060730255079427880000013892738867155118500_" class="st0" cx="22.8" cy="12.5" r="10.9"/>
		<path id="Path_227_00000037669015756189147170000010718031609549372303_" class="st1" d="M21.1,17.4c0.6,0,1.1,0.3,1.4,0.8
			c0,0,0,0,0,0h0c0,0,0,0,0,0c0.6-0.7,1.6-1,2.5-0.7l-0.8-2h-2.8l-0.8,2.1C20.8,17.4,21,17.4,21.1,17.4z"/>
		<g id="Group_110_00000160151014832482928740000010053889312792874412_" transform="translate(23.047 23.068)">
			<path id="Path_228_00000061443392684822851240000011878474188710949810_" class="st2" d="M-1.2-7.7h-0.4l-0.8,2.1
				c0.1,0,0.3-0.1,0.4-0.1L-1.2-7.7z"/>
			<path id="Path_229_00000018957640402609368710000008456534846889104059_" class="st2" d="M-2.8-3.6C-2.8-3.6-2.7-3.6-2.8-3.6
				L-2.8-3.6c0.2,0,0.4,0,0.5,0c0.8,0,1.5,0.3,2,0.8c0,0,0,0,0.1,0c0.6-0.5,1.3-0.8,2-0.8c0.2,0,0.3,0,0.5,0h0c0,0,0,0,0,0
				C2.5-4.2,2.7-4.7,3-5.1C2-6.1,0.5-6-0.4-5c0,0,0,0-0.1,0.1C-1-5.8-2-6-2.8-5.5C-3-5.4-3.2-5.2-3.3-5C-3-4.6-2.8-4.1-2.8-3.6z"/>
		</g>
		<path id="Path_230_00000046306070952999543760000011652562906894691770_" class="st3" d="M20.3,19.5c-0.3-2-2.2-3.4-4.2-3.1
			c-1,0.2-2,0.8-2.6,1.6c1,1.7,2.5,3.1,4.3,4.1C18,20.7,19,19.7,20.3,19.5z"/>
		<path id="Path_231_00000017478942892344164440000013391928247435417762_" class="st4" d="M17,16.7c0.9,0,1.8,0.3,2.5,0.9
			c-1.3-1.6-3.7-1.8-5.3-0.5c-0.3,0.2-0.5,0.5-0.7,0.8c0.1,0.1,0.2,0.3,0.3,0.4C14.5,17.4,15.7,16.7,17,16.7z"/>
		<path id="Path_232_00000052062955083641578640000007827108897525363646_" class="st3" d="M29.1,16.3c-1.8,0-3.4,1.4-3.7,3.2
			c1.3,0.2,2.3,1.2,2.5,2.6c1.8-0.9,3.3-2.3,4.3-4.1C31.6,16.9,30.4,16.3,29.1,16.3z"/>
		<g id="Group_111_00000047757415597739454560000002484632946151541657_" transform="translate(20.013 24.467)">
			<path id="Path_233_00000128485286710387645780000009713831696067905934_" class="st4" d="M9.3-8.2c-0.1,0-0.1,0-0.2,0
				C7.3-8.2,5.7-6.8,5.4-5C5.6-5,5.7-5,5.8-4.9C6.2-6.6,7.6-7.9,9.3-8.2z"/>
			<path id="Path_234_00000009557892402848729600000015205504217472801704_" class="st4" d="M4.9-5C4.2-5,3.4-4.8,2.9-4.2
				C1.6-5.4-0.3-5.3-1.4-4.1c-0.4,0.5-0.7,1-0.8,1.6c3.2,1.7,7,1.7,10.2,0C7.7-3.9,6.5-5,4.9-5z"/>
		</g>
		<path id="Path_235_00000183222441143307734010000004211556362339907003_" class="st0" d="M21.4,19.8c0.4,0,0.8,0.1,1.2,0.2
			c-1.3-1-3.2-0.7-4.3,0.6c-0.3,0.4-0.5,0.9-0.6,1.4c0.2,0.1,0.4,0.2,0.5,0.3C18.7,20.8,20,19.8,21.4,19.8z"/>
		<g id="Group_112_00000080906077495702050480000005255000283667841155_" transform="translate(26.071 23.068)">
			<path id="Path_236_00000179604102906115146770000014511900593946523787_" class="st2" d="M-2.2-7.7h-0.7L-2.8-7
				c0,0.2,0.2,0.3,0.4,0.3c0.2,0,0.3-0.2,0.3-0.4L-2.2-7.7z"/>
			<path id="Path_237_00000101075618990509596300000016513945139848038061_" class="st2" d="M-4.2-7.7l-0.2,1.4
				c0,0.2,0.1,0.3,0.3,0.4c0,0,0,0,0,0c0,0,0,0,0,0c0.2,0,0.3-0.1,0.3-0.3l0.2-1.5L-4.2-7.7L-4.2-7.7z"/>
		</g>
		<path id="Path_238_00000095327339730551698800000010927241539879917471_" class="st5" d="M19.5,9.2c0-0.4,0-0.7,0-1.1
			c-1.2,0.8-1.9,2.1-1.8,3.5c0,0.8,0.2,1.6,0.6,2.3c0,0.1,0.2,0.1,0.2,0.1c0.5-0.2,1.1-0.3,1.6-0.3C19.7,12.2,19.5,10.7,19.5,9.2z"
			/>
		<path id="Path_239_00000074436116933048017500000002038733604423535238_" class="st6" d="M18.2,11.6c0-1.2,0.4-2.3,1.3-3.1
			c0-0.1,0-0.3,0-0.4c-1.2,0.8-1.9,2.1-1.8,3.5c0,0.8,0.2,1.6,0.6,2.3c0,0.1,0.2,0.1,0.2,0.1c0.1,0,0.2-0.1,0.3-0.1
			C18.4,13.2,18.2,12.4,18.2,11.6z"/>
		<g id="Group_113_00000080177660804538209050000018010733097757381538_" transform="translate(25.261 11.828)">
			<path id="Path_240_00000041257995546652138200000012384198078244200842_" class="st5" d="M1-3.7C1-3.3,1-3,1-2.6
				c0,1.5-0.2,3-0.7,4.4c0.6,0,1.1,0.1,1.6,0.3c0.1,0,0.2,0,0.2-0.1c0.4-0.7,0.6-1.5,0.6-2.3C2.9-1.6,2.2-2.9,1-3.7z"/>
			<path id="Path_241_00000125571305407324384100000004679119068369341325_" class="st5" d="M-4.1,2.3v1c0,0.1,0.1,0.2,0.2,0.2h3
				c0.1,0,0.2-0.1,0.2-0.2v-1H-4.1z"/>
		</g>
		<path id="Path_242_00000173138875171613729140000004440996972026128016_" class="st6" d="M21.9,15.2v-1h-0.8v1
			c0,0.1,0.1,0.2,0.2,0.2h0.8C22,15.4,21.9,15.3,21.9,15.2z"/>
		<path id="Path_243_00000070080449553137190210000005674479819054403511_" class="st7" d="M25.6,4.5h-5.4c-1,3.1-1,6.5,0.1,9.5
			c0,0.1,0.1,0.1,0.2,0.1h4.9c0.1,0,0.2-0.1,0.2-0.1C26.6,11,26.6,7.6,25.6,4.5L25.6,4.5z"/>
		<path id="Path_244_00000116916336798192845400000005838902665659551122_" class="st1" d="M20.9,14.1c-1.1-3.1-1.1-6.4-0.1-9.5
			h-0.6c-1,3.1-1,6.5,0.1,9.5c0,0.1,0.1,0.1,0.2,0.1h0.6C21,14.2,20.9,14.2,20.9,14.1z"/>
		<path id="Path_245_00000091014301760150572330000001954486167878076566_" class="st8" d="M21.6,4.5v0.7c0,0.1,0.1,0.2,0.2,0.2h2.1
			c0.1,0,0.2-0.1,0.2-0.2V4.5H21.6z"/>
		<path id="Path_246_00000035508410868244040910000002954250839349212325_" class="st6" d="M22.1,5.3V4.5h-0.5v0.7
			c0,0.1,0.1,0.2,0.2,0.2h0.5C22.2,5.5,22.1,5.4,22.1,5.3z"/>
		<path id="Path_247_00000110464628744185063900000002575054350066471844_" class="st5" d="M22.9,0.5c0,0-0.1,0-0.1,0
			c-1.1,0.9-1.9,2.2-2.4,3.5c-0.1,0.2-0.1,0.3-0.2,0.5h5.4c-0.1-0.2-0.1-0.3-0.2-0.5c-0.5-1.4-1.3-2.6-2.4-3.5
			C23,0.5,22.9,0.5,22.9,0.5z"/>
		<path id="Path_248_00000018924478170646472030000011397969140700371357_" class="st6" d="M23.2,0.7c-0.1-0.1-0.1-0.1-0.2-0.2
			c-0.1-0.1-0.2-0.1-0.2,0c-1.1,0.9-1.9,2.2-2.4,3.5c-0.1,0.2-0.1,0.3-0.2,0.5h0.6c0.1-0.2,0.1-0.3,0.2-0.5
			C21.4,2.8,22.2,1.7,23.2,0.7z"/>
		<circle id="Ellipse_15_00000039854520884051654150000009962650613987671997_" class="st3" cx="22.9" cy="8.6" r="2.3"/>
		<circle id="Ellipse_16_00000174568189442975583780000016389459284602403977_" class="st9" cx="22.9" cy="8.6" r="1.5"/>
		<path id="Path_249_00000122704246921411421990000011971029648703592882_" class="st10" d="M22,8.6c0,0.7,0.5,1.3,1.2,1.4
			c-0.8,0.1-1.5-0.4-1.7-1.2c-0.1-0.8,0.4-1.5,1.2-1.7c0.2,0,0.4,0,0.5,0C22.5,7.3,22,7.9,22,8.6z"/>
		<path id="Path_250_00000005959346634714531280000002792432767829398692_" class="st11" d="M16.4,8.5c-0.1,0-0.1,0-0.1-0.1
			c-0.1-0.5-0.5-0.9-1-1c-0.1,0-0.1-0.1-0.1-0.2c0,0,0,0,0.1-0.1c0.5-0.1,0.9-0.5,1-1C16.3,6,16.4,6,16.5,6c0,0,0,0,0.1,0.1
			c0.1,0.5,0.5,0.9,1,1c0.1,0,0.1,0.1,0.1,0.2c0,0,0,0-0.1,0.1c-0.5,0.1-0.9,0.5-1,1C16.5,8.4,16.5,8.5,16.4,8.5z"/>
		<path id="Path_251_00000011005743370214904870000008314959783812732296_" class="st12" d="M16.5,8.1c-0.1-0.5-0.5-0.9-1-1
			c0,0-0.1,0-0.1-0.1c-0.1,0-0.1,0.1-0.2,0.1c-0.1,0-0.1,0.1-0.1,0.2c0,0,0,0,0.1,0.1c0.5,0.1,0.9,0.5,1,1c0,0.1,0.1,0.1,0.2,0.1
			c0,0,0,0,0.1-0.1C16.5,8.3,16.6,8.3,16.5,8.1C16.6,8.2,16.6,8.2,16.5,8.1z"/>
		<path id="Path_252_00000088827228687004337930000009940086788711820984_" class="st13" d="M29.8,9.5c0,0-0.1,0-0.1-0.1
			c-0.1-0.4-0.5-0.8-0.9-0.9c-0.1,0-0.1-0.1-0.1-0.1c0,0,0,0,0.1-0.1c0.4-0.1,0.8-0.5,0.9-0.9c0-0.1,0.1-0.1,0.1-0.1
			c0,0,0,0,0.1,0.1c0.1,0.4,0.5,0.8,0.9,0.9c0.1,0,0.1,0.1,0.1,0.1c0,0,0,0-0.1,0.1C30.4,8.6,30,9,29.9,9.4
			C29.9,9.4,29.8,9.5,29.8,9.5z"/>
		<path id="Path_253_00000174601945810694324220000007180160869216998292_" class="st1" d="M29.9,9.2c-0.1-0.4-0.5-0.8-0.9-0.9
			c0,0,0,0-0.1-0.1c-0.1,0-0.1,0-0.2,0.1c-0.1,0-0.1,0.1-0.1,0.1c0,0,0,0,0.1,0.1c0.4,0.1,0.8,0.5,0.9,0.9c0,0.1,0.1,0.1,0.1,0.1
			c0,0,0,0,0.1-0.1C29.9,9.3,29.9,9.3,29.9,9.2C29.9,9.2,29.9,9.2,29.9,9.2z"/>
		<path id="Path_254_00000112604242784986226040000009604279375218381987_" class="st14" d="M28.6,4.8c-0.1,0-0.1,0-0.1-0.1
			c-0.1-0.5-0.5-0.9-1.1-1.1c-0.1,0-0.1-0.1-0.1-0.2c0,0,0-0.1,0.1-0.1c0.5-0.1,0.9-0.5,1.1-1.1c0-0.1,0.1-0.1,0.2-0.1
			c0,0,0.1,0,0.1,0.1c0.1,0.5,0.5,0.9,1.1,1.1c0.1,0,0.1,0.1,0.1,0.2c0,0,0,0.1-0.1,0.1c-0.5,0.1-0.9,0.5-1.1,1.1
			C28.7,4.8,28.7,4.8,28.6,4.8L28.6,4.8z"/>
		<path id="Path_255_00000057849735962694387170000002398892643535622801_" class="st15" d="M28.8,4.5c-0.1-0.5-0.5-0.9-1.1-1.1
			c0,0-0.1,0-0.1-0.1c-0.1,0-0.1,0.1-0.2,0.1c-0.1,0-0.1,0.1-0.1,0.2c0,0,0,0.1,0.1,0.1c0.5,0.1,0.9,0.5,1.1,1.1
			c0,0.1,0.1,0.1,0.2,0.1c0,0,0.1,0,0.1-0.1C28.8,4.6,28.8,4.6,28.8,4.5C28.8,4.5,28.8,4.5,28.8,4.5z"/>
	</g>
</g>
</svg>
