<?xml version="1.0" encoding="utf-8"?>
<!-- Generator: Adobe Illustrator 26.0.0, SVG Export Plug-In . SVG Version: 6.00 Build 0)  -->
<svg version="1.1" id="Layer_1" xmlns="http://www.w3.org/2000/svg" xmlns:xlink="http://www.w3.org/1999/xlink" x="0px" y="0px"
	 viewBox="0 0 24 24" style="enable-background:new 0 0 24 24;" xml:space="preserve">
<style type="text/css">
	.st0{fill:#1A2B63;}
	.st1{fill:#D9EAFC;}
	.st2{fill:#AEC1ED;}
	.st3{fill:#445EA0;}
	.st4{fill:#293D7C;}
	.st5{fill:#FE3745;}
	.st6{fill:#B7092B;}
	.st7{fill:#EEF6FF;}
	.st8{fill:#EA2A3D;}
	.st9{fill:#69CDFF;}
	.st10{fill:#52BBEF;}
	.st11{fill:#FFD00D;}
	.st12{fill:#FFAF10;}
	.st13{fill:#FFFFFF;}
	.st14{fill:#FF9518;}
	.st15{fill:#EF8318;}
	.st16{fill:#78B75B;}
	.st17{fill:#669E4F;}
	.st18{fill:#96CC7F;}
	.st19{fill:#D3DCFB;}
	.st20{fill:#EBF5FC;}
	.st21{fill:#3C58A0;}
	.st22{fill:#2A428C;}
	.st23{fill:#FF4155;}
	.st24{fill:#E80054;}
	.st25{fill:#4FABF7;}
	.st26{fill:#1886EA;}
	.st27{fill:#FFDD40;}
	.st28{fill:#FFDB56;}
	.st29{fill:#FF4A4A;}
	.st30{fill:#FFBB24;}
	.st31{fill:#E7343F;}
	.st32{fill:#1EA4E9;}
	.st33{fill:#FBF1CF;}
	.st34{fill:#FAE0BD;}
	.st35{fill:#616A84;}
	.st36{fill:#E68A97;}
	.st37{fill:#F3BE77;}
	.st38{fill:#F19A60;}
	.st39{fill:#E26E7E;}
</style>
<g>
	<g id="Schedules_00000060024217019180094130000000324096131760723108_" transform="translate(-17.058)">
		<g id="Group_129_00000011715088049047972330000006496108702062728093_" transform="translate(17.058)">
			<path id="Path_282_00000165925122198410688640000003052765032605829782_" class="st19" d="M11.6,19.3H3.2c-0.8,0-1.5-0.7-1.5-1.5
				l0,0v-1.5H13L11.6,19.3z"/>
			<path id="Path_283_00000062878385590689427100000004110837008878418085_" class="st20" d="M20.8,7.6v10.2H3.2
				c-0.8,0-1.5-0.7-1.5-1.5l0,0V7.6L12,4L20.8,7.6z"/>
			<g id="Group_122_00000057114867790106595510000004562121651630174373_" transform="translate(2.08 11.436)">
				<path id="Path_284_00000165207014111178237140000008729425157817093554_" class="st21" d="M2.3-0.9H1.5c-0.2,0-0.3-0.2-0.3-0.3
					V-2c0-0.2,0.2-0.3,0.3-0.3h0.8c0.2,0,0.3,0.2,0.3,0.3v0.8C2.6-1.1,2.5-0.9,2.3-0.9z"/>
				<path id="Path_285_00000026841804638357914980000011616042997116886958_" class="st21" d="M5.2-0.9H4.4c-0.2,0-0.3-0.2-0.3-0.3
					V-2c0-0.2,0.2-0.3,0.3-0.3h0.8c0.2,0,0.3,0.2,0.3,0.3v0.8C5.5-1.1,5.4-0.9,5.2-0.9z"/>
				<path id="Path_286_00000065754466343088454810000005623327853331223936_" class="st21" d="M8.1-0.9H7.3C7.2-0.9,7-1.1,7-1.2V-2
					c0-0.2,0.2-0.3,0.3-0.3h0.8c0.2,0,0.3,0.2,0.3,0.3v0.8C8.5-1.1,8.3-0.9,8.1-0.9z"/>
				<path id="Path_287_00000130618412153279970300000000285252875858457757_" class="st21" d="M11-0.9h-0.8c-0.2,0-0.3-0.2-0.3-0.3
					V-2c0-0.2,0.2-0.3,0.3-0.3H11c0.2,0,0.3,0.2,0.3,0.3v0.8C11.4-1.1,11.2-0.9,11-0.9z"/>
				<path id="Path_288_00000055692546863073768480000002282926131333395616_" class="st21" d="M14-0.9h-0.8c-0.2,0-0.3-0.2-0.3-0.3
					V-2c0-0.2,0.2-0.3,0.3-0.3H14c0.2,0,0.3,0.2,0.3,0.3v0.8C14.3-1.1,14.2-0.9,14-0.9z"/>
				<path id="Path_289_00000049900754368696841920000012977114065102602378_" class="st21" d="M16.9-0.9h-0.8
					c-0.2,0-0.3-0.2-0.3-0.3V-2c0-0.2,0.2-0.3,0.3-0.3h0.8c0.2,0,0.3,0.2,0.3,0.3v0.8C17.2-1.1,17.1-0.9,16.9-0.9z"/>
				<path id="Path_290_00000011006293435363609620000013160650671063983502_" class="st21" d="M2.3,2H1.5C1.3,2,1.2,1.9,1.2,1.7V0.9
					c0-0.2,0.1-0.3,0.3-0.3c0,0,0,0,0,0h0.8c0.2,0,0.3,0.2,0.3,0.3v0.8C2.6,1.9,2.5,2,2.3,2C2.3,2,2.3,2,2.3,2z"/>
				<path id="Path_291_00000106848394634083837960000009394069209742535327_" class="st21" d="M5.2,2H4.4C4.2,2,4.1,1.9,4.1,1.7V0.9
					c0-0.2,0.2-0.3,0.3-0.3h0.8c0.2,0,0.3,0.2,0.3,0.3v0.8C5.5,1.9,5.4,2,5.2,2z"/>
				<path id="Path_292_00000168110473663023103890000002940935093701865348_" class="st21" d="M8.1,2H7.3C7.2,2,7,1.9,7,1.7V0.9
					c0-0.2,0.2-0.3,0.3-0.3h0.8c0.2,0,0.3,0.2,0.3,0.3v0.8C8.5,1.9,8.3,2,8.1,2z"/>
				<path id="Path_293_00000057126495329232187860000008128702707829271940_" class="st21" d="M11.4,2V0.9c0-0.2-0.2-0.4-0.4-0.4
					h-0.7c-0.2,0-0.4,0.2-0.4,0.4v0.7c0,0.2,0.2,0.4,0.4,0.4L11.4,2z"/>
				<path id="Path_294_00000114066959777828040050000006878362189733490613_" class="st21" d="M2.3,4.9H1.5c-0.2,0-0.3-0.2-0.3-0.3
					V3.8c0-0.2,0.2-0.3,0.3-0.3h0.8c0.2,0,0.3,0.2,0.3,0.3v0.8C2.6,4.8,2.5,4.9,2.3,4.9z"/>
				<path id="Path_295_00000115487561048073493030000004040898177339314049_" class="st21" d="M5.2,4.9H4.4c-0.2,0-0.3-0.2-0.3-0.3
					V3.8c0-0.2,0.2-0.3,0.3-0.3h0.8c0.2,0,0.3,0.2,0.3,0.3v0.8C5.5,4.8,5.4,4.9,5.2,4.9z"/>
				<path id="Path_296_00000038400921657355341020000013511886175695185570_" class="st21" d="M8.1,4.9H7.3C7.2,4.9,7,4.8,7,4.6V3.8
					c0-0.2,0.2-0.3,0.3-0.3h0.8c0.2,0,0.3,0.2,0.3,0.3v0.8C8.5,4.8,8.3,4.9,8.1,4.9z"/>
			</g>
			<path id="Path_297_00000047045728633772440190000008363700094332476089_" class="st22" d="M19,9.1h-0.8c0,0-0.1,0-0.1,0
				c0.1,0.1,0.2,0.2,0.2,0.3v0.8c0,0.1-0.1,0.3-0.2,0.3c0,0,0.1,0,0.1,0H19c0.2,0,0.4-0.2,0.4-0.4V9.4C19.3,9.2,19.2,9.1,19,9.1
				C19,9.1,19,9.1,19,9.1z"/>
			<path id="Path_298_00000110454468680392240150000007719929240143411856_" class="st22" d="M16,9.1h-0.8c0,0-0.1,0-0.1,0
				c0.1,0.1,0.2,0.2,0.2,0.3v0.8c0,0.1-0.1,0.3-0.2,0.3c0,0,0.1,0,0.1,0H16c0.2,0,0.4-0.2,0.4-0.4V9.4C16.4,9.2,16.2,9.1,16,9.1
				C16,9.1,16,9.1,16,9.1z"/>
			<path id="Path_299_00000163789749608490956600000018320122790313973377_" class="st22" d="M13.1,9.1h-0.8c0,0-0.1,0-0.1,0
				c0.1,0.1,0.2,0.2,0.2,0.3v0.8c0,0.1-0.1,0.3-0.2,0.3c0,0,0.1,0,0.1,0h0.8c0.2,0,0.4-0.2,0.4-0.4V9.4C13.5,9.2,13.3,9.1,13.1,9.1
				C13.1,9.1,13.1,9.1,13.1,9.1z"/>
			<path id="Path_300_00000036972671514783163000000003359640750084429188_" class="st22" d="M10.2,9.1H9.4c0,0-0.1,0-0.1,0
				c0.1,0.1,0.2,0.2,0.2,0.3v0.8c0,0.1-0.1,0.3-0.2,0.3c0,0,0.1,0,0.1,0h0.8c0.2,0,0.4-0.2,0.4-0.4V9.4C10.5,9.2,10.4,9.1,10.2,9.1
				C10.2,9.1,10.2,9.1,10.2,9.1z"/>
			<path id="Path_301_00000134213857163999117240000001002408765847770037_" class="st22" d="M7.3,9.1H6.5c0,0-0.1,0-0.1,0
				c0.1,0.1,0.2,0.2,0.2,0.3v0.8c0,0.1-0.1,0.3-0.2,0.3c0,0,0.1,0,0.1,0h0.8c0.2,0,0.4-0.2,0.4-0.4V9.4C7.6,9.2,7.5,9.1,7.3,9.1
				C7.3,9.1,7.3,9.1,7.3,9.1z"/>
			<path id="Path_302_00000165199580481675462690000012717225928574280626_" class="st22" d="M4.3,9.1H3.6c0,0-0.1,0-0.1,0
				c0.1,0.1,0.2,0.2,0.2,0.3v0.8c0,0.1-0.1,0.3-0.2,0.3c0,0,0.1,0,0.1,0h0.8c0.2,0,0.4-0.2,0.4-0.4V9.4C4.7,9.2,4.5,9.1,4.3,9.1
				C4.3,9.1,4.3,9.1,4.3,9.1z"/>
			<path id="Path_303_00000101805512042564288670000005696627554182006927_" class="st22" d="M4.3,12H3.6c0,0-0.1,0-0.1,0
				c0.1,0.1,0.2,0.2,0.2,0.3v0.8c0,0.1-0.1,0.3-0.2,0.3c0,0,0.1,0,0.1,0h0.8c0.2,0,0.4-0.2,0.4-0.4v-0.8C4.7,12.2,4.5,12,4.3,12z"/>
			<path id="Path_304_00000034805356674329894690000016523444115727881633_" class="st22" d="M4.3,14.9H3.6c0,0-0.1,0-0.1,0
				c0.1,0.1,0.2,0.2,0.2,0.3V16c0,0.1-0.1,0.3-0.2,0.3c0,0,0.1,0,0.1,0h0.8c0.2,0,0.4-0.2,0.4-0.4v-0.8C4.7,15.1,4.5,14.9,4.3,14.9
				L4.3,14.9z"/>
			<path id="Path_305_00000170268528111955857580000008986170084227461540_" class="st22" d="M7.3,12H6.5c0,0-0.1,0-0.1,0
				c0.1,0.1,0.2,0.2,0.2,0.3v0.8c0,0.1-0.1,0.3-0.2,0.3c0,0,0.1,0,0.1,0h0.8c0.2,0,0.4-0.2,0.4-0.4v-0.8C7.6,12.2,7.5,12,7.3,12z"/>
			<path id="Path_306_00000047740452542378429230000010826499077173766571_" class="st22" d="M7.3,14.9H6.5c0,0-0.1,0-0.1,0
				c0.1,0.1,0.2,0.2,0.2,0.3V16c0,0.1-0.1,0.3-0.2,0.3c0,0,0.1,0,0.1,0h0.8c0.2,0,0.4-0.2,0.4-0.4v-0.8C7.6,15.1,7.5,14.9,7.3,14.9
				L7.3,14.9z"/>
			<path id="Path_307_00000116222230557478856100000003466116443924401576_" class="st22" d="M10.2,12H9.4c0,0-0.1,0-0.1,0
				c0.1,0.1,0.2,0.2,0.2,0.3v0.8c0,0.1-0.1,0.3-0.2,0.3c0,0,0.1,0,0.1,0h0.8c0.2,0,0.4-0.2,0.4-0.4v-0.8C10.5,12.2,10.4,12,10.2,12z
				"/>
			<path id="Path_308_00000000933591348595599950000006823580906628171699_" class="st22" d="M13.5,13.5v-1.1c0-0.2-0.2-0.4-0.4-0.4
				h-0.8c0,0-0.1,0-0.1,0c0.1,0.1,0.2,0.2,0.2,0.3v0.8c0,0.1-0.1,0.3-0.2,0.3c0,0,0.1,0,0.1,0L13.5,13.5L13.5,13.5z"/>
			<path id="Path_309_00000054230221906379881300000002798195685520459180_" class="st22" d="M10.2,14.9H9.4c0,0-0.1,0-0.1,0
				c0.1,0.1,0.2,0.2,0.2,0.3V16c0,0.1-0.1,0.3-0.2,0.3c0,0,0.1,0,0.1,0h0.8c0.2,0,0.4-0.2,0.4-0.4v-0.8
				C10.5,15.1,10.4,14.9,10.2,14.9L10.2,14.9z"/>
			<path id="Path_310_00000053505841109219188330000006859189275723402379_" class="st19" d="M19.8,7.2v10.7h1V7.6L19.8,7.2z"/>
			<path id="Path_311_00000010276185477581668430000004614398184393914543_" class="st23" d="M20.8,7.6V4c0-0.8-0.7-1.5-1.5-1.5H3.2
				C2.4,2.5,1.8,3.2,1.8,4v3.7H20.8z"/>
			<g id="Group_128_00000147195681440503345930000003458662429875562381_" transform="translate(4.728 3.688)">
				<g id="Group_127_00000038413109409836535370000003579777907734852276_">
					<g id="Group_123_00000056427545489533860440000008547955702360908201_">
						<path id="Path_312_00000035506818444527494610000012378769765477955217_" class="st24" d="M1.6,0.6h-1c-0.2,0-0.3-0.1-0.3-0.3
							c0-0.2,0.1-0.3,0.3-0.3c0,0,0,0,0,0h1C1.8-0.1,2,0.1,2,0.3C2,0.5,1.8,0.6,1.6,0.6L1.6,0.6z"/>
					</g>
					<g id="Group_124_00000129166597826928160940000002304554433186747019_" transform="translate(3.325)">
						<path id="Path_313_00000034058197828501410370000015840284587145409408_" class="st24" d="M0.7,0.6h-1c-0.2,0-0.3-0.2-0.3-0.3
							c0-0.2,0.1-0.3,0.3-0.3h1C0.8-0.1,1,0.1,1,0.3C1,0.4,0.9,0.6,0.7,0.6C0.7,0.6,0.7,0.6,0.7,0.6L0.7,0.6z"/>
					</g>
					<g id="Group_125_00000038388631561654699770000006252235287216978353_" transform="translate(11.956)">
						<path id="Path_314_00000059293214202784785610000017550915837492594346_" class="st24" d="M-1.9,0.6h-1
							c-0.2,0-0.3-0.1-0.3-0.3c0-0.2,0.1-0.3,0.3-0.3c0,0,0,0,0,0h1c0.2,0,0.3,0.2,0.3,0.3C-1.6,0.5-1.7,0.6-1.9,0.6L-1.9,0.6z"/>
					</g>
					<g id="Group_126_00000158732758539019826720000002335231707576122795_" transform="translate(15.281)">
						<path id="Path_315_00000089560635888314765070000000507827307653718403_" class="st24" d="M-2.9,0.6h-0.9
							c-0.2,0-0.3-0.1-0.3-0.3s0.1-0.3,0.3-0.3c0,0,0,0,0,0h1c0.2,0,0.3,0.1,0.3,0.3C-2.5,0.4-2.7,0.6-2.9,0.6
							C-2.9,0.6-2.9,0.6-2.9,0.6L-2.9,0.6z"/>
					</g>
				</g>
			</g>
			<path id="Path_316_00000111175435241315183530000003586438008896283053_" class="st20" d="M8,3.8c0,0.5-0.4,0.9-0.9,0.9
				c-0.5,0-0.9-0.4-0.9-0.9c0,0,0,0,0,0V1.9C6.2,1.4,6.6,1,7.1,1C7.6,1,8,1.4,8,1.9c0,0,0,0,0,0V3.8z"/>
			<path id="Path_317_00000049193711350129167740000005208621090382196658_" class="st20" d="M16.4,3.8c0,0.5-0.4,0.9-0.9,0.9
				c-0.5,0-0.9-0.4-0.9-0.9V1.9C14.6,1.4,15,1,15.5,1c0.5,0,0.9,0.4,0.9,0.9V3.8z"/>
			<path id="Path_318_00000033338296191874077710000015165909381397050047_" class="st19" d="M15.5,1c-0.2,0-0.4,0.1-0.5,0.2
				c0.3,0.2,0.4,0.5,0.4,0.8v1.8c0,0.3-0.2,0.6-0.4,0.8c0.4,0.3,1,0.2,1.3-0.3c0.1-0.1,0.2-0.3,0.2-0.5V1.9C16.4,1.4,16,1,15.5,1z"
				/>
			<path id="Path_319_00000023983982288526964750000008976584516890473881_" class="st19" d="M7.1,1C6.9,1,6.7,1.1,6.6,1.2
				C6.8,1.4,7,1.6,7,1.9v1.8c0,0.3-0.2,0.6-0.4,0.8c0.4,0.3,1,0.2,1.3-0.3C7.9,4.1,8,4,8,3.8V1.9C8,1.4,7.6,1,7.1,1L7.1,1z"/>
			<path id="Path_320_00000147925886350963556760000007228910481418084492_" class="st24" d="M19.3,2.5h-1c0.8,0,1.5,0.7,1.5,1.5
				c0,0,0,0,0,0v3.7h1V4C20.8,3.2,20.1,2.5,19.3,2.5L19.3,2.5z"/>
			<path id="Path_321_00000025418679342556880400000001986963847352038310_" class="st24" d="M1.8,5.8h19v0.7h-19V5.8z"/>
		</g>
		<circle id="Ellipse_17_00000060744832883352880930000010607036694406271647_" class="st25" cx="33.8" cy="17.5" r="5.5"/>
		<circle id="Ellipse_18_00000132799028324006295290000011713981328572893852_" class="st20" cx="33.8" cy="17.5" r="4"/>
		<g id="Group_131_00000106866100120369913330000004725137257749710470_" transform="translate(37.901 19.282)">
			<g id="Group_130_00000023274972848616386790000014877442282664716991_">
				<path id="Path_322_00000045592942528387436180000003015226007009439906_" class="st21" d="M-4.1-2.2c-0.2,0-0.3-0.1-0.3-0.3
					c0,0,0,0,0,0v-1.8c0-0.2,0.1-0.3,0.3-0.3c0.2,0,0.3,0.1,0.3,0.3c0,0,0,0,0,0v1.8C-3.8-2.3-3.9-2.2-4.1-2.2z"/>
			</g>
		</g>
		<g id="Group_133_00000056390687312027194010000011210517441476994495_" transform="translate(38.941 22.921)">
			<g id="Group_132_00000005245678812923745310000003018546882668910486_">
				<path id="Path_323_00000084488031165943154980000017548715533332363671_" class="st21" d="M-3.3-5.1h-1.1
					c-0.2,0-0.3-0.1-0.3-0.3s0.1-0.3,0.3-0.3c0,0,0,0,0,0h1.1C-3.1-5.8-3-5.6-3-5.4C-3-5.3-3.1-5.1-3.3-5.1z"/>
			</g>
		</g>
		<path id="Path_324_00000157989960033433372560000000754333336911509906_" class="st26" d="M33.8,12c-0.2,0-0.3,0-0.5,0
			c3,0.3,5.2,3,4.9,6c-0.3,2.6-2.3,4.7-4.9,4.9c0.2,0,0.3,0,0.5,0c3-0.1,5.4-2.6,5.3-5.6C39.1,14.4,36.7,12.1,33.8,12z"/>
		<path id="Path_325_00000009567151753056229200000007264835315157890999_" class="st19" d="M33.8,13.5c-0.2,0-0.3,0-0.5,0
			c2.2,0.3,3.8,2.3,3.5,4.5c-0.2,1.8-1.7,3.2-3.5,3.5c2.2,0.3,4.2-1.3,4.5-3.5c0.3-2.2-1.3-4.2-3.5-4.5C34.1,13.5,34,13.5,33.8,13.5
			L33.8,13.5z"/>
		<circle id="Ellipse_19_00000099657922960784989820000012539155837057386660_" class="st27" cx="33.8" cy="17.5" r="0.7"/>
	</g>
</g>
</svg>
