<?xml version="1.0" encoding="utf-8"?>
<!-- Generator: Adobe Illustrator 26.0.0, SVG Export Plug-In . SVG Version: 6.00 Build 0)  -->
<svg version="1.1" id="Слой_1" xmlns="http://www.w3.org/2000/svg" xmlns:xlink="http://www.w3.org/1999/xlink" x="0px" y="0px"
	 viewBox="0 0 727.3 301" style="enable-background:new 0 0 727.3 301;" xml:space="preserve">
<style type="text/css">
	.st0{fill:#C9096E;}
	.st1{fill:url(#SVGID_1_);}
	.st2{fill:#FFFFFF;}
	.st3{fill:url(#SVGID_00000049211104990227595480000004481856608502644895_);}
	.st4{fill:url(#SVGID_00000047055661773028214050000002709966135195142042_);}
	.st5{fill:#313454;}
	.st6{fill:#282B45;}
	.st7{fill:#1D2033;}
	.st8{fill:#EEA886;}
	.st9{fill:#292C47;}
	.st10{fill:#CF8C6C;}
	.st11{fill:#DB9C7C;}
	.st12{fill:#64C4B2;}
	.st13{fill:#CFBEB6;}
	.st14{fill:#FF7E55;}
	.st15{fill:#EDDAD3;}
	.st16{fill:#3D4169;}
	.st17{fill:#A77860;}
	.st18{fill:#54AAFF;}
	.st19{fill:#151624;}
	.st20{fill:url(#SVGID_00000151506685644253935720000005722396887883565968_);}
	.st21{fill:#EDEDED;}
	.st22{fill:#C7C7C7;}
	.st23{fill:#F0CC6A;}
	.st24{fill:#163342;}
	.st25{fill:#6281B5;}
	.st26{fill:#132738;}
	.st27{fill:#2F4563;}
	.st28{fill:#DBDFF0;}
	.st29{fill:#C2C6D4;}
	.st30{fill:#455B80;}
	.st31{fill:#C9AB59;}
	.st32{fill:url(#SVGID_00000018918996570989242350000016740096761749952703_);}
	.st33{fill:url(#SVGID_00000041262721207436068830000007860363790367827351_);}
	.st34{fill:url(#SVGID_00000011710609996712762060000014337535153094410146_);}
	.st35{fill:url(#SVGID_00000127761765406641413560000015973003498459278261_);}
	.st36{fill:url(#SVGID_00000153678837896500766560000000194122008919051672_);}
	.st37{fill:#DECBC4;}
	.st38{fill:#424773;}
	.st39{fill:#363A5E;}
	.st40{fill:#5D676C;}
	.st41{fill:#45C6EE;}
	.st42{fill:#2CA3BF;}
	.st43{fill:#5B629E;}
	.st44{fill:#F5E2D9;}
	.st45{fill:#EFAA88;}
	.st46{fill:#258976;}
	.st47{fill:#40446E;}
	.st48{fill:#FCCCA2;}
	.st49{fill:#E66D45;}
	.st50{fill:#EFAF8B;}
	.st51{fill:#E8137B;}
	.st52{fill:#EB9981;}
	.st53{fill:#A67961;}
	.st54{fill:url(#SVGID_00000103262748701423323250000005860242183384923034_);}
	.st55{fill:url(#SVGID_00000010291916264784928720000007878702229193711794_);}
	.st56{fill:url(#SVGID_00000119826458786918170440000013934063925872811698_);}
	.st57{fill:url(#SVGID_00000001630970951218811540000010315770326616323978_);}
	.st58{fill:url(#SVGID_00000102508919417980835550000001827242062352610986_);}
	.st59{fill:url(#SVGID_00000117643791201690397160000001934515843054251446_);}
	.st60{fill:url(#SVGID_00000108274122516847604600000006263706432323145881_);}
	.st61{fill:url(#SVGID_00000039131530445599519930000001523055110339678615_);}
	.st62{fill:url(#SVGID_00000029045700705285858190000000191979681283976593_);}
</style>
<g>
	<g>
		<g>
			<path class="st0" d="M274,133.1c0,0-12.3,6.6-12.5,8.2c-0.3,2.1,4.4,8.5,4.4,8.5l-3.5,2.9c0,0-10.1-11.9-5.9-14.7
				c5-3.4,14.8-10.8,14.8-10.8L274,133.1z"/>
		</g>
		<g>
			<radialGradient id="SVGID_1_" cx="648.0638" cy="147.0851" r="113.0035" gradientUnits="userSpaceOnUse">
				<stop  offset="0" style="stop-color:#526BB1"/>
				<stop  offset="1" style="stop-color:#E8137B"/>
			</radialGradient>
			<ellipse class="st1" cx="655.4" cy="155.2" rx="38.3" ry="116.6"/>
		</g>
		<g>
			<ellipse class="st2" cx="651.2" cy="151" rx="22.3" ry="67.7"/>
		</g>
		
			<radialGradient id="SVGID_00000143578222031787509360000015233009054636637334_" cx="648.1915" cy="144.0213" r="84.8413" gradientUnits="userSpaceOnUse">
			<stop  offset="0" style="stop-color:#E8137B"/>
			<stop  offset="1" style="stop-color:#526BB1"/>
		</radialGradient>
		<path style="fill:url(#SVGID_00000143578222031787509360000015233009054636637334_);" d="M659.2,142c0-12.5-4.6-22.6-10.4-22.6
			c-5.7,0-10.4,10.1-10.4,22.6c0,10.3,3.1,19,7.4,21.7l-4.3,29.6h14.4l-4.3-29.6C656.1,161,659.2,152.3,659.2,142z"/>
		
			<linearGradient id="SVGID_00000076589260722988369140000005272865391904290987_" gradientUnits="userSpaceOnUse" x1="20.7" y1="188.5146" x2="648.9" y2="188.5146">
			<stop  offset="0" style="stop-color:#526BB1"/>
			<stop  offset="1" style="stop-color:#E8137B"/>
		</linearGradient>
		<path style="fill:url(#SVGID_00000076589260722988369140000005272865391904290987_);" d="M648.9,139.5v8.4c0,0-58.6-2.8-77.3,40
			c-18.9,43.3-84.7,49.7-103,49.7H20.7v-26.4h447.8c18.3,0,77.6-4.4,95.6-34.8C588,136.1,648.9,139.5,648.9,139.5z"/>
		<g>
			<polygon class="st5" points="276.2,203.3 275.6,204.5 271.9,202.4 272.8,201.3 			"/>
		</g>
		<g>
			<path class="st6" d="M271.9,202.4c0,0,3.5,1.3,3.7,1.3c0.1,0,0.3-0.2,0.6,0.3c0.3,0.5,0,1.2,0.2,1.7c0.3,0.5,2.1,3,3,4.6
				c0.3,0.6,1.7,2.9,1.6,3.7c-0.2,0.9-1,1.8-4.3-1.1c-3.3-2.8-7.4-5.2-7.9-6.1C268.3,206,271,203.3,271.9,202.4z"/>
		</g>
		<path class="st7" d="M368.4,186.1c0,0,0.4,2.6,0.6,3.7c0.2,1.1,1.1,1.5,0.3,1.7c-0.7,0.3-3.1,1.9-3.6,2.9s-3.4,8-5,7.7
			c-1.7-0.3-1.4-3.8-0.5-8.5c0.9-4.8-0.3-5.2,1.3-8.2C362,184.5,368.4,186.1,368.4,186.1z"/>
		<polygon class="st8" points="370.4,186 368.4,186.1 369,191 370.9,190.9 		"/>
		<path class="st7" d="M451.8,207.2c0,0,2-1.6,2.9-2.3c0.8-0.7,0.7-1.6,1.3-1.1c0.6,0.5,3.1,1.7,4.2,1.6c1.1-0.1,8.4-1.1,9,0.5
			c0.6,1.5-2.5,3-7,4.6s-4.3,2.8-7.6,2.9C453.7,213.4,451.8,207.2,451.8,207.2z"/>
		<polygon class="st8" points="450.9,205.9 452,207.4 455.7,204.4 454.7,202.9 		"/>
		<path class="st9" d="M418.9,165.1c-0.6,0.7-1.6,2.1-2.8,3.6c-0.5,0.6-0.9,1.3-1.4,2c-2.3,3.2-4.6,6.6-4.6,6.6s-10,12.8-13.8,13.7
			c-7.4,1.8-27.5,0.8-27.5,0.8l-0.8-7.7c0,0,11.4,0.2,16.2-0.8c5.6-1.1,9.2-0.5,11.4-4.7c1.5-2.8,5.1-12.6,5.2-12.7
			c1.5-4.9,3.6-11.3,5.5-13.1C407.9,151.5,418.9,165.1,418.9,165.1z"/>
		<path class="st9" d="M441.5,177.3c-0.6-2.4-5.3-8.5-8.6-12l0,0c-5.1-5.7-8.7-10.2-8.7-10.2s-20.4,4.1-19.8,6.1
			c1.2,3.8,11.4,7.2,13.3,8.4l4,2.2c0,0,4,2.3,6.9,4.3c4,2.8,3.5,4.5,6.3,8.9c2.5,4,16.3,23.5,16.3,23.5l5.9-4.5
			C457.1,204,442.5,181,441.5,177.3z"/>
		<path class="st8" d="M448.1,133.9c0,0-1.7,0.5-2.6,0.5c-1,0.1,0.7-3,0.7-3L448.1,133.9z"/>
		<path class="st8" d="M445.8,130.6c0,0,0.8-2.5,1-2.9s1.1-1,2.2-1.7s2.9-1.1,3.1-1s0.5,0.1,0.7,0.6c0.3,0.5,0.2,1.1,0.2,1.1
			s0.6,0.5,0.5,1.2c0,0,0.6,0.5,0.3,1.2c0,0,0.6,0.5,0.3,1c0,0-0.9,0.7-1.2,1c-0.3,0.3-2.9,1.8-5,2.7
			C448.1,133.9,446.4,133.9,445.8,130.6z"/>
		<path class="st10" d="M449.2,129.1c0,0,0.1,1.3-0.1,1.7s2.8,1.1,2.8,1.1S450.8,129,449.2,129.1z"/>
		<path class="st11" d="M451.8,125.3c0,0-2.8,1.8-2.6,2.2c0.2,0.5,0.6,0.5,0.6,0.5l-0.8,1.2c0,0-0.1,1.1,1.2,0.9c0,0-0.2,1,1,0.7
			c0,0,0.2,0.7,0.8,0.7c0.6-0.1,2.3-1.3,2.3-1.3s0.3-0.4-0.3-1c0,0,0.3-0.7-0.4-1.2c0,0,0.2-0.6-0.5-1.2c0,0,0.1-1.4-1-1.7
			C452.1,125.1,451.9,125.2,451.8,125.3z"/>
		<path class="st8" d="M446.9,127.7c0,0,2.3-0.2,3.5,0.2c0.3,0.1,0.6,0.2,0.6,0.6c0,0.3-0.4,0.7-1.4,0.9c-1,0.1-2.2,0.8-2.2,0.8
			S446.4,129.9,446.9,127.7z"/>
		<path class="st12" d="M418.6,123.9c0,0,6.3,7.8,10.8,11.4c1.4,1.1,15.9-5.3,16.4-4.8c0.5,0.4,1.1,4.9,1.1,4.9s-18.1,8.2-19.1,7.7
			s-14.3-12.9-15-14.7c-0.8-1.8-0.8-4.1,1-5.2C416.4,121.6,418.6,123.9,418.6,123.9z"/>
		<g>
			<path class="st13" d="M422.2,119.3c0,0,2.1,6.2,2.1,9.7s-2.7,12.8-2.8,14.7c-0.1,2,2.7,11.3,2.7,11.3l-21.2,5.4
				c0,0-0.5-5.6-0.4-12.3s2.1-12.2,2.6-16c1.7-13.1,12.4-16,12.4-16L422.2,119.3z"/>
		</g>
		<g>
			<path class="st8" d="M431.2,104c0,0,1.7,3.3,0.9,3.8c-0.7,0.4,0.8,3.6,1,4.1s-1.3,0.9-1.6,1.2c-0.3,0.3-1.3,4.5-2.5,4.6
				s-6.8-1.8-8.3-3.4s-2.7-8.7-1.7-11.8C420,99.6,428.2,98.3,431.2,104z"/>
		</g>
		<g>
			<path class="st8" d="M425.2,116.9c0,0-0.2,0.3-0.4,0.8c-0.1,0.2-0.2,0.5-0.3,0.7c-0.1,0.2-0.2,0.4-0.3,0.6
				c-0.6,1.4-1.2,3.1-1.3,4c-0.2,1.6-4.6-6.8-4.6-6.8s2.1-4.7,3.6-10.3C423.5,100.4,425.2,116.9,425.2,116.9z"/>
		</g>
		<g>
			<path class="st14" d="M431.6,104.8c0,0,1.8-3.5-1.4-6.1c-3.2-2.6-9.3,1.9-9.9,2.1c-0.7,0.2-4.6,0.4-2.6,7.2
				c1.7,5.9,1.9,5.6,1.9,5.6s1.2-3,1.9-3.5c1.1-0.8,3.5-0.6,3.5-0.6s-1.1-3.1,0.7-3.5C427.4,105.6,429.8,104.1,431.6,104.8z"/>
		</g>
		<g>
			<path class="st8" d="M423,107.7c-0.2-0.4-0.7-2.2-2.2-1.2s0.9,4.4,1.2,4.5C422.3,111.1,424.3,111.3,423,107.7z"/>
		</g>
		<g>
			<path class="st15" d="M418.7,115.5c0,0,2.8,5,4.8,6.5l-0.6,3.2l-5.3-9L418.7,115.5z"/>
		</g>
		<polygon class="st16" points="424.3,155.1 423.7,153.1 402.9,158.3 403,160.7 		"/>
		<g>
			<path class="st12" d="M422.9,131.5c-0.4,1.2-0.8,2.4-1.2,3.5l0,0c-0.8,2.6-1.5,5.3-2.1,7.9c-0.2,0.9-0.4,1.8-0.6,2.7
				c-2.2,10.7-8,18.6-8,18.6s-8.6-0.7-10.6-2.2c0,0,0.6-12.4,3.4-24.3c0.2-0.9,0.4-1.8,0.7-2.7l0,0c1.9-10.5,6.7-18.2,13.2-18.9
				C417.8,116.4,425.2,125.4,422.9,131.5z"/>
		</g>
		<path class="st12" d="M403.5,138.7c0,0-1.6,12.3-7.6,22.5c-0.8,1.4,9.5,2.3,9.5,2.3L403.5,138.7z"/>
		<path class="st17" d="M425.2,116.9c0,0-0.2,0.3-0.4,0.8c-0.1,0.2-0.2,0.5-0.3,0.7c-3-2.2-3.7-3.8-3.7-3.9
			C422.3,115.6,425.2,116.9,425.2,116.9z"/>
		<path class="st18" d="M423.5,122.3c0,0,0.7,2.2,0.5,3c-0.1,0.3-1-0.2-1-0.2L423.5,122.3z"/>
		<path class="st19" d="M416.1,168.7c-0.5,0.6-0.9,1.3-1.4,2l-7.3-6.4c0.1,0,1,0.6,2.2,1.4C410.8,166.4,416.1,168.7,416.1,168.7z"/>
		<g>
			
				<linearGradient id="SVGID_00000165211435942954760910000012983325876801277569_" gradientUnits="userSpaceOnUse" x1="564.5" y1="104.3" x2="603.9" y2="104.3">
				<stop  offset="0" style="stop-color:#526BB1"/>
				<stop  offset="1" style="stop-color:#E8137B"/>
			</linearGradient>
			<path style="fill:url(#SVGID_00000165211435942954760910000012983325876801277569_);" d="M603.9,132.9l-6-12.3l-2,3.6
				C576.2,106.4,571,75.7,571,75.7l-6.5,8.3c0,0,9.2,25.5,29.9,43.1l-1.6,2.8L603.9,132.9z"/>
		</g>
		<g>
			<path class="st21" d="M706.6,100c0,16.8-4.5,30.4-10,30.4s-10-13.6-10-30.4s4.5-30.4,10-30.4C702.1,69.7,706.6,83.3,706.6,100z"
				/>
		</g>
		<path class="st22" d="M700.2,96c0-5.6-2.1-10.1-4.6-10.1c-2.6,0-4.6,4.5-4.6,10.1c0,4.6,1.4,8.5,3.3,9.7l-1.9,13.3h6.4l-1.9-13.3
			C698.8,104.5,700.2,100.6,700.2,96z"/>
		<g>
			<path class="st21" d="M630.8,59.5c0,16.8-4.5,30.4-10,30.4s-10-13.6-10-30.4s4.5-30.4,10-30.4S630.8,42.7,630.8,59.5z"/>
		</g>
		<path class="st22" d="M624.4,55.5c0-5.6-2.1-10.1-4.6-10.1c-2.6,0-4.6,4.5-4.6,10.1c0,4.6,1.4,8.5,3.3,9.7l-1.9,13.3h6.4
			l-1.9-13.3C623,64,624.4,60.1,624.4,55.5z"/>
		<g>
			<path class="st21" d="M634.4,240.4c0,16.8-4.5,30.4-10,30.4s-10-13.6-10-30.4s4.5-30.4,10-30.4S634.4,223.6,634.4,240.4z"/>
		</g>
		<path class="st22" d="M628,236.4c0-5.6-2.1-10.1-4.6-10.1c-2.6,0-4.6,4.5-4.6,10.1c0,4.6,1.4,8.5,3.3,9.7l-1.9,13.3h6.4l-1.9-13.3
			C626.6,244.9,628,241,628,236.4z"/>
		<path class="st23" d="M354.3,130.7c0,0-8,21.8-8,24.4c0,2.5-7.8,28.5-7.8,28.5s-14.4-10.2-18.3-13.3
			C316.4,167.2,349,130,354.3,130.7z"/>
		<path class="st24" d="M358.2,215.5c0,0,2.5-1,3.5-1.4s1.2-1.4,1.6-0.8c0.4,0.6,2.6,2.6,3.7,2.8c1.2,0.2,8.6,1.4,8.8,3.1
			c0.1,1.7-3.3,2.3-8.3,2.5c-4.9,0.3-5,1.5-8.3,0.7C358.2,222.2,358.2,215.5,358.2,215.5z"/>
		<path class="st24" d="M285.7,188c0,0,1.2,2.3,1.8,3.2c0.5,0.9,1.5,1,0.9,1.5s-2.2,2.7-2.3,3.9c-0.1,1.1-0.4,8.5-2.1,8.8
			c-1.6,0.3-2.6-3-3.3-7.7c-0.8-4.7-2-4.7-1.5-8C279.3,188.7,285.7,188,285.7,188z"/>
		<polygon class="st8" points="357.7,214 358.3,215.9 362.8,213.9 362.3,212.1 		"/>
		<polygon class="st8" points="287.5,187.2 285.7,188 288,192.3 289.7,191.6 		"/>
		<path class="st25" d="M337.4,170.3L337.4,170.3c-0.7,0.5-1.6,1.1-2.6,1.8l0,0c-0.7-0.3-7.2-9.5-7.2-9.5S335.7,167,337.4,170.3z"/>
		<g>
			<path class="st8" d="M368.4,135.9c0,0,0.8-2.3,1-2.7c0.1-0.4,1-1,2.1-1.6s2.8-1,2.9-0.9c0.2,0.1,0.4,0.1,0.7,0.6
				c0.3,0.5,0.2,1,0.2,1s0.6,0.4,0.5,1.1c0,0,0.5,0.4,0.3,1.2c0,0,0.5,0.4,0.3,1c0,0-0.9,0.6-1.1,0.9c-0.3,0.3-2.1,1.5-4.1,2.3
				C371.1,138.7,368.9,139.7,368.4,135.9z"/>
		</g>
		<g>
			<path class="st10" d="M371.6,134.4c0,0,0.1,1.2-0.1,1.6c-0.2,0.4,2.6,1,2.6,1S373.1,134.4,371.6,134.4z"/>
		</g>
		<g>
			<path class="st8" d="M367.6,136.5c0,0,0.9-0.8,1.2-1.5c0.4-0.7,2.1,3,2.1,3s-2.1,0.1-3,0.7C366.9,139.4,367.6,136.5,367.6,136.5z
				"/>
		</g>
		<g>
			<path class="st11" d="M374,130.8c0,0-2.6,1.6-2.4,2.1s0.6,0.5,0.6,0.5l-0.8,1.2c0,0-0.1,1.1,1.1,0.8c0,0-0.2,1,0.9,0.6
				c0,0,0.2,0.7,0.7,0.6c0.5-0.1,2.2-1.2,2.2-1.2s0.3-0.4-0.3-1c0,0,0.3-0.7-0.3-1.2c0,0,0.1-0.6-0.5-1.1c0,0,0.2-1.3-0.9-1.6
				C374.3,130.7,374.1,130.8,374,130.8z"/>
		</g>
		<g>
			<path class="st8" d="M369.4,133.1c0,0,2.1-0.2,3.3,0.3c0.3,0.1,0.5,0.2,0.5,0.5s-0.4,0.7-1.3,0.8s-2,0.7-2,0.7
				S368.9,135.2,369.4,133.1z"/>
		</g>
		<path class="st26" d="M328.2,150.8c-2,1.5-4.8,7.5-6.7,12.2c0,0.1-4.6,9.3-6.3,11.9c-2.6,3.9-5.8,3.5-11.4,5.6
			c-4.5,1.7-19.3,6-19.3,6l3.6,7.8c0,0,19.1-6.3,26.5-7.3c3.8-0.5,17.4-12,17.4-12l0,0c1.4-1.2,2.8-2.3,3.9-3.4l0,0
			c0.9-0.8,1.6-1.5,2.3-2.2c1.1-1.1,1.7-1.8,1.7-1.8S329.9,149.5,328.2,150.8z"/>
		<g>
			<path class="st23" d="M345.8,122l6.1,15.5c0,0,0.3,2.1,4.8,0.7c4.6-1.5,11.9-3.4,11.9-3.4s2.2,4.4,1.7,4.7
				c-1.6,0.9-14.4,5.6-19.6,7.1c-4.2,1.1-12.1-20.2-12.1-20.2L345.8,122z"/>
		</g>
		<path class="st26" d="M356.7,183c0.1-2.6-2.8-9.9-5-14.3l0,0c-3.4-7.1-6.9-14.4-6.9-14.4s-20,0-19.9,2.1
			c0.1,4.1,10.5,13.9,12.1,15.7l0,0c0,0,5,4.9,7.2,7.1c3.5,3.6,2.5,4.4,3.9,9.6c1.3,4.7,8,28.4,8,28.4l9.3-3.2
			C365.2,214,356.5,187,356.7,183z"/>
		<g>
			<path class="st27" d="M323.8,155.1c0,0,13.6-14.5,12.5-24c-0.1-0.8-0.1-1.5-0.1-2.3c0-1,0.1-1.9,0.2-2.8
				c0.9-5.5,4.2-10.1,8.3-12.3c0,0,0-1.2,5.7,4.3c0.3,0.3,3.5,5.9,4,12.1c0.5,7.5-1.6,9-4.3,14.7c-1.9,4.2-4.7,7.8-5.3,9.5
				C344.7,154.2,343.2,156.7,323.8,155.1z"/>
		</g>
		<path class="st28" d="M340.8,117.3c0,0,1.7-2.8,3.7-1.6c2,1.2,4.2,4.7,3.6,10.3c-0.5,5.6-5.8,7-8.1,5.4
			C337.7,129.7,338.3,121.2,340.8,117.3z"/>
		<g>
			<path class="st8" d="M358,103.6c0,0,0.9,3.3,0,3.5c-0.7,0.2,0,3.4,0,3.9c0.1,0.5-1.3,0.5-1.7,0.8c-0.4,0.2-2.1,3.7-3.2,3.5
				s-5.7-3.1-6.7-4.8c-1-1.7-0.6-8.3,0.9-10.8C348.9,97.2,356.4,97.9,358,103.6z"/>
		</g>
		<g>
			<path class="st8" d="M350.7,113.2c0,0-0.1,0.3-0.2,0.8c-0.1,0.3-0.2,0.8-0.3,1.3c-0.2,1.3-0.5,2.9-0.4,3.6
				c0.1,1.4-5.1-4.9-5.1-4.9s1-4.4,1.2-9.3C346.3,99.6,350.7,113.2,350.7,113.2z"/>
		</g>
		<g>
			<path class="st24" d="M358.2,104.2c0,0,2.3-2.7,0-5.7s-8.6-0.2-9.3-0.2c-0.6,0-4.1-0.6-3.8,5.8c0.2,6.4,0.5,5.4,0.5,5.4
				s1.3-2.7,2.5-2.7s3.2,0.2,3.2,0.2s-0.4-2.9,1.3-3C354.3,104.1,356.7,103.3,358.2,104.2z"/>
		</g>
		<g>
			<path class="st8" d="M349.9,105.1c-0.1-0.4,0-1.7-1.6-1.1s-0.2,3.7,0,3.8C348.6,108,350.4,108.5,349.9,105.1z"/>
		</g>
		<g>
			<path class="st17" d="M350.5,114c-0.1,0.3-0.2,0.8-0.3,1.3c-1.8-1.7-3.1-3.6-3.5-4.3C347.5,112,350.5,114,350.5,114z"/>
		</g>
		<path class="st29" d="M343.8,124.3c-0.1,0.1-5.5,3.8-7.7,4.6c0-1,0.1-1.9,0.2-2.8l0,0L343.8,124.3z"/>
		<path class="st23" d="M348.9,135.9c0,0.1-0.1,0.2-0.1,0.3c-0.2,0.3-0.4,0.4-0.6,0.2c-2-1.4-5.2-21.7-5.2-21.7l0.1-0.1l1.9-1.7
			c0,0,2.2,1.7,4,3.5l0,0c1.1,1.1,2.1,2.2,2.5,3.1v0.1l0,0C352.4,121.7,350.7,131.2,348.9,135.9z"/>
		<path class="st30" d="M345.3,153c0,0-9.9,0.8-12.7,0.4c-2.8-0.3-2.7,3.7-2.7,3.7s13.1-1.1,14.9-2.7L345.3,153z"/>
		<path class="st23" d="M351.3,119.6L351.3,119.6c-0.1,0.9-0.9,11.9-2.7,16.6c-0.1,0.1-0.1,0.3-0.2,0.4c-0.2,0.4-0.6,1.1-1.2,1.8
			c-4.1,5.4-13.3,17.9-15,24.6c-2,7.6-9.4,17.5-9.4,17.5l-17.1-19.4c0,0,16.9-11.4,24-16.5c6.8-4.8,6.1-27.2,6.1-27.2l7-2.8l1.6-0.6
			l4.3,3.6L351.3,119.6L351.3,119.6z"/>
		<path class="st31" d="M351.5,119.5L351.5,119.5c0.9,2.2-0.8,11.7-2.6,16.3c0,0.1-0.1,0.2-0.1,0.3c-0.1,0.1-0.1,0.3-0.2,0.4
			c-0.2,0.4-0.6,1.1-1.2,1.8c0.3-0.6,0.6-1.3,0.8-2c1.1-4.2,0.5-10,0.5-10l1.7-2l-0.9-1.4c0-0.5-0.4-3.7-0.6-5.4
			c-0.1-0.7-0.1-1.1-0.1-1.1l0,0C350.1,117.5,351.1,118.6,351.5,119.5L351.5,119.5z"/>
		
			<linearGradient id="SVGID_00000181785110650779258090000011108993627780039828_" gradientUnits="userSpaceOnUse" x1="476.9019" y1="148.4686" x2="190.4338" y2="155.1069">
			<stop  offset="0" style="stop-color:#526BB1"/>
			<stop  offset="1" style="stop-color:#E8137B"/>
		</linearGradient>
		
			<rect x="189.1" y="144" style="fill:url(#SVGID_00000181785110650779258090000011108993627780039828_);" width="322.6" height="14.8"/>
		
			<linearGradient id="SVGID_00000160876609284860089740000003348766098663048584_" gradientUnits="userSpaceOnUse" x1="491.8875" y1="237.9219" x2="492.9088" y2="175.1134">
			<stop  offset="0" style="stop-color:#526BB1"/>
			<stop  offset="0.1749" style="stop-color:#6C5CA7"/>
			<stop  offset="0.7344" style="stop-color:#C02A89"/>
			<stop  offset="1" style="stop-color:#E8137B"/>
		</linearGradient>
		<path style="fill:url(#SVGID_00000160876609284860089740000003348766098663048584_);" d="M471,151.4v36.2h4.5c0-0.3,0-0.5,0-0.8
			c0-4.3,3.5-7.7,7.7-7.7c4.3,0,7.7,3.5,7.7,7.7c0,0.3,0,0.6,0,0.8h4.2c0-0.3,0-0.5,0-0.8c0-4.3,3.5-7.7,7.7-7.7
			c4.3,0,7.7,3.5,7.7,7.7c0,0.3,0,0.6,0,0.8h4.5v-36.2H471z"/>
		
			<linearGradient id="SVGID_00000125564038871921046450000012534919230991014303_" gradientUnits="userSpaceOnUse" x1="482.938" y1="113.305" x2="498.5976" y2="180.7092">
			<stop  offset="0" style="stop-color:#526BB1"/>
			<stop  offset="1" style="stop-color:#E8137B"/>
		</linearGradient>
		
			<rect x="468.5" y="138.1" style="fill:url(#SVGID_00000125564038871921046450000012534919230991014303_);" width="48.9" height="36.6"/>
		
			<linearGradient id="SVGID_00000157304038192791934530000003554976805793022855_" gradientUnits="userSpaceOnUse" x1="143.273" y1="151.9953" x2="204.2943" y2="151.2294">
			<stop  offset="0" style="stop-color:#526BB1"/>
			<stop  offset="1" style="stop-color:#E8137B"/>
		</linearGradient>
		<path style="fill:url(#SVGID_00000157304038192791934530000003554976805793022855_);" d="M194.1,151.6c0-0.1,0-0.1,0-0.2
			s0-0.1,0-0.2c14-1.7,24.8-13.6,24.8-28c0-15.6-12.6-28.2-28.2-28.2s-28.2,12.6-28.2,28.2c0,0.1,0,0.1,0,0.2
			c-14,1.7-24.8,13.6-24.8,28s10.8,26.3,24.8,28c0,0.1,0,0.1,0,0.2c0,15.6,12.6,28.2,28.2,28.2s28.2-12.6,28.2-28.2
			C218.9,165.2,208.1,153.3,194.1,151.6z M190.6,200.1c-11.3,0-20.5-9.2-20.5-20.5c0-3.1,0.7-6.1,1.9-8.7c-2,0.6-4,1-6.2,1
			c-11.3,0-20.5-9.2-20.5-20.5s9.2-20.5,20.5-20.5c2.2,0,4.2,0.3,6.2,1c-1.2-2.6-1.9-5.6-1.9-8.7c0-11.3,9.2-20.5,20.5-20.5
			s20.5,9.2,20.5,20.5s-9.2,20.5-20.5,20.5c-2.2,0-4.2-0.3-6.2-1c1.2,2.6,1.9,5.6,1.9,8.7c0,3.1-0.7,6.1-1.9,8.7c2-0.6,4-1,6.2-1
			c11.3,0,20.5,9.2,20.5,20.5C211.1,191,202,200.1,190.6,200.1z"/>
		
			<linearGradient id="SVGID_00000135670602541307648750000016129615465044881553_" gradientUnits="userSpaceOnUse" x1="133.831" y1="153.7604" x2="243.1076" y2="150.3562">
			<stop  offset="0" style="stop-color:#526BB1"/>
			<stop  offset="1" style="stop-color:#E8137B"/>
		</linearGradient>
		
			<rect x="182.3" y="142.3" style="fill:url(#SVGID_00000135670602541307648750000016129615465044881553_);" width="54.6" height="18.2"/>
		<g>
			<g>
				<g>
					<path class="st8" d="M182.8,122.2c0,0-2.4-0.5-3-1.3s1.3-2.7,1.3-2.7l1.8-0.3L182.8,122.2z"/>
				</g>
			</g>
			<g>
				<g>
					<path class="st8" d="M181.8,118.5c0,0,1.7-1.6,2-1.8c0.3-0.2,1.3-0.3,2.5-0.2c1.1,0.2,2.7,0.2,2.8,0.4c0.1,0.2,0.3,0.3,0.3,0.8
						s-0.3,0.9-0.3,0.9s0.3,0.6-0.1,1.1c0,0,0.3,0.6-0.3,1.1c0,0,0.2,0.6-0.2,0.9c0,0-1,0.1-1.4,0.3c-0.4,0.2-2.4,0.3-4.5,0.1
						C182.8,122.2,180.9,121.3,181.8,118.5z"/>
				</g>
			</g>
			<g>
				<g>
					<path class="st10" d="M185.2,118.8c0,0-0.5,1.1-0.8,1.3c-0.3,0.2,1.9,1.7,1.9,1.7S186.5,119.4,185.2,118.8z"/>
				</g>
			</g>
			<g>
				<g>
					<path class="st11" d="M188.8,116.9c0,0-2.9,0.2-3,0.6c0,0.5,0.2,0.7,0.2,0.7l-1.2,0.6c0,0-0.5,0.8,0.5,1.2c0,0-0.6,0.7,0.5,0.9
						c0,0-0.2,0.6,0.3,0.8c0.5,0.2,2.4,0,2.4,0s0.4-0.2,0.2-0.9c0,0,0.6-0.5,0.3-1.1c0,0,0.4-0.7,0.1-1.4c0,0,0.4-0.8-0.2-1.5
						C189.1,116.9,188.9,116.9,188.8,116.9z"/>
				</g>
			</g>
			<g>
				<g>
					<path class="st8" d="M183.9,116.7c0,0,1.8,0.8,2.6,1.7c0.2,0.2,0.3,0.4,0.2,0.7c-0.1,0.2-0.6,0.4-1.4,0.1c-0.8-0.3-2-0.3-2-0.3
						S182.6,118.2,183.9,116.7z"/>
				</g>
			</g>
			<g>
				<path class="st8" d="M189.3,118.4c0,0-3.2-0.2-3.5-0.1c-0.3,0.2-0.2-1,0-1.1c0.3-0.1,2.9-0.4,3.2-0.3
					C189.3,116.9,189.9,117.8,189.3,118.4z"/>
			</g>
			<g>
				<polygon class="st37" points="180.9,118.1 181.5,118.2 181,121.8 179.6,121.8 				"/>
			</g>
			<g>
				<path class="st8" d="M188.4,116.8c0,0,5.2,0.4,5.2,1s-1.2,1-5.2,0.5C184.6,117.9,188.4,116.8,188.4,116.8z"/>
			</g>
			<g>
				<path class="st9" d="M152.5,220.5c0,0,2.5,2.6,4.9,3.1c2.5,0.5,5.2,1.5,5.3,3s-8,2.4-10.8,1c-4.2-2.2-4.6-1.5-5.1-2.6
					s0.4-4.3,0.4-4.6C147.1,219.9,152.5,220.5,152.5,220.5z"/>
			</g>
			<g>
				<path class="st38" d="M152.2,219.2c0,0,0.4,1.2,0.3,1.3c0,0-5.5,0.9-5.3-0.2c0.1-0.8,0.3-1.7,0.3-1.7L152.2,219.2z"/>
			</g>
			<g>
				<path class="st9" d="M101.9,215.8c0,0,1.2,3.3,3.2,4.7s2.9,3.5,2.3,4.9c-0.5,1.4-6.9,0.6-8.9-3.5c-1.4-2.8-3-3.9-3-5.1
					c0-1.2,1.4-3,1.6-3.3C97.3,213.2,101.9,215.8,101.9,215.8z"/>
			</g>
			<g>
				<path class="st38" d="M102.4,214.6c0,0-0.4,1.2-0.5,1.2s-5.2-1.4-4.7-2.3c0.4-0.7,1.1-1.5,1.1-1.5L102.4,214.6z"/>
			</g>
			<g>
				<g>
					<path class="st9" d="M94.2,157.3c0,0,1.4-3.4,2.6-3.6c1.1-0.2,0.2,0.7,0.2,0.7s-1.4,2.3-1.9,3.3
						C95,157.7,94.2,157.3,94.2,157.3z"/>
				</g>
			</g>
			<g>
				<g>
					<path class="st8" d="M101.2,150.9c0,0-0.3,1.7-0.4,3.3c-0.1,1.7,0.2,2.3-0.3,3.1c-0.4,0.6-1.3,0.8-1.4,0.6
						c-0.1-0.3,0.7-2.8-0.4-3.2s-0.8,3.2-1.3,2.8c-0.5-0.5-2.5-2.6-1.9-3.8s1.9-1.8,2.5-3.7c0.6-1.8,1.4-2.3,1.4-2.3L101.2,150.9z"
						/>
				</g>
			</g>
			<g>
				<g>
					<path class="st9" d="M99,154.7c0,0,1.3,0.9-0.5,5.5l-1.5-0.8c0,0,1-2.6,1-4.2C98,155.2,98.4,154.3,99,154.7z"/>
				</g>
			</g>
			<g>
				<g>
					<polygon class="st9" points="102.6,162.9 91.5,155 86.2,170.2 95.8,181.9 					"/>
				</g>
			</g>
			<g>
				<path class="st9" d="M140.8,153.5c0,0,12.4,22,14.6,27.3c2.1,4.9,0.4,10,0.3,13.8c-0.2,4.4-2.5,23.1-2.3,24.4
					c0.3,1.3-6.8,0.6-6.8,0.6s1.4-29.8-0.7-34c-1.4-2.9-14.7-22.1-15.6-20.9c-0.9,1.2-11.1,18.8-12.4,22.3
					c-1.3,3.2-14.9,28.2-14.9,28.2s-3.9-0.3-6.5-2.7c0,0,12.3-27.5,13.4-32.2c0.5-2.4,5.8-19.1,9.6-29.9
					C121.7,144.7,140.8,153.5,140.8,153.5z"/>
			</g>
			<g>
				<path class="st37" d="M97.3,150.4c0,0,2.6,2.6,3.8,2.4c1.2-0.2,8.9-15.6,9.8-17.9c1-2.3,6-7.6,6-7.6l0,0l0,0l0,0
					c0.1,0.5,2,7.4,2.1,10.7c0.1,3.4,1,9.8,1,9.8l1.1,0.1l17.6,2.5l1.6,0.2c0,0,0.9-1.2,0.8-3.8c-0.1-1.7-0.3-4.9-0.2-7.8l0,0v-0.1
					l0,0c0.1-1.6-0.9-3-0.6-4.2c0.8-3.3,0.3-6.2,0.3-6.3l0.1-6.4c0.2,0.4,11.6-0.7,12.6-0.4c1,0.4,17.1,0.7,18.1-0.2
					c1.1-1,0.7-2.6,0.7-2.6l-18.4-1.3l-10.3-2.4c-0.1-0.1-2.3,0-3.5-0.6c-1.9-0.9-4.6-2.2-6.3-2.9c-1-0.5-1.7-0.8-1.7-0.8
					s-7.2-0.7-7.8-0.7c-0.2,0-1,0.3-2.2,0.7c-2.4,0.9-6.1,2.5-6.9,3c-1.1,0.8-8.5,16.9-9.2,18.1C105,132.8,97.3,150.4,97.3,150.4z"
					/>
			</g>
			<g>
				<path class="st39" d="M140.2,150.6c0,0,0.5,0.6,0.6,2.9c0,0-19.1-2.2-21.1-3.1c0,0-0.1-2.6,0.4-2.6
					C120.5,147.7,140.2,150.6,140.2,150.6z"/>
			</g>
			<g>
				<path class="st8" d="M123.9,109.2c0.1,3,5.9,4.6,5.9,4.6s2.4-3,1.8-3.3c-0.2-0.1-0.3-0.6-0.3-1.1s0-1,0-1.4c0-0.2,0-0.3,0-0.3
					s-0.8-0.9-1.9-1.9c-1.8-1.8-4.4-4.2-4.4-3.2c0,0,0,0.1,0,0.2C125.6,104.8,123.9,109.2,123.9,109.2z"/>
			</g>
			<g>
				<path class="st40" d="M124.4,148.2c0,0-0.4,2.6-0.5,3.3l-0.9-0.2c0,0,0.2-2.8,0.4-3.3L124.4,148.2z"/>
			</g>
			<g>
				<path class="st9" d="M138.6,150.3c0,0,0.3,2.4,0.3,3.3l-0.9-0.1c0,0-0.2-3-0.3-3.3L138.6,150.3z"/>
			</g>
			<g>
				<path class="st17" d="M126.2,104.8L126.2,104.8c0,0,0.3,0.4,0.7,0.9c0.9,1.1,2.6,3,4.5,3.7c0-0.5,0-1,0-1.4c0.2,0,0.4,0,0.6-0.1
					c-0.5-0.9-1.3-1.9-1.3-1.9l-1.2-0.3L126.2,104.8z"/>
			</g>
			<g>
				<path class="st8" d="M125,102.6c0.5,1.1,1,1.9,1.1,2.2l0,0c0.1,0.2,0.3,0.5,0.7,0.9c1,1,2.7,2.4,4.5,2.3c0.2,0,0.4,0,0.6-0.1
					c0.7-0.2,1.5-0.5,2-1.4c3.6-7.1,1-12.9,1-12.9s-9.9-2.8-11.5,0.2C122.4,96,123.9,100,125,102.6z"/>
			</g>
			<g>
				<path class="st24" d="M134.9,93.7c0,0,0.9-0.1,1.1-1.8c0.2-1.7-0.2-2.2-0.2-2.2s-0.2,1.2-5.3-1.4c-1.3-0.7-5.3-1-6.2,0
					c0,0-2.1-0.5-2.6,2.9c-0.9,5.4,3,10.7,3,10.7s0-3.5,0.7-4c0.8-0.5,1.5,0.6,1.5,0.6l1.6,0.3c0,0-2.4-5.2,0.5-5.4
					C131.9,93.2,133.2,94,134.9,93.7z"/>
			</g>
			<g>
				<path class="st8" d="M126.9,97.2c-0.2-1.6-3-2.2-2.8-0.5c0.2,1.6,1.6,3.2,2.2,3.2C127,99.7,127,98.4,126.9,97.2z"/>
			</g>
			<g>
				<path class="st41" d="M111,134.9c-1.1,2.3-8,17.3-9.2,17.6c-1.2,0.2-4.4-2.6-4.4-2.6s7.7-17,8.4-18.2c0.6-1.1,8.1-17.3,9.2-18.1
					c0.6-0.5,3.4-1.6,5.7-2.5c0.4-0.2,0.8-0.3,1.2-0.5c0.5,0.5,8.4,9.4,7.6,17.3c-0.2,2.4-0.5,6.2-1.2,10.3c-0.7,4.2-1.8,9-2.5,12.6
					c-1.3,6.5-4.1,12.7-4.1,12.7l-7.4-3.7c-1.2-0.6-1.7-1.9-1.3-3.2c1.7-4.6,5-14,5-18.1c0,0-0.3-9.2-0.9-11.4
					C117,127.3,112.3,132.3,111,134.9z"/>
			</g>
			<g>
				<path class="st41" d="M158.5,116.1l22.6,1.9c0,0-0.3,2.9-0.6,4c-0.2,0.6-21.4,0.6-22.5,0.6s-16.4,0.5-16.5,0.2l-0.3,5.7
					c0.1,5.1-0.5,8.6-0.2,12.6c0.6,7.6,3.6,16.2,4.5,19.3c0.2,0.5,0,1.1-0.4,1.4l-2.3,2.1c0,0-3.2-9.8-3.6-13.4
					c-0.4-3.4-1.5-8-2-12.5l0,0c-0.6-5.7-1.3-11.3-1.8-14.6c-1.2-8.6-2.2-12-2.2-12l0,0c0.6,0.3,1.2,0.6,1.9,0.9
					c1.5,0.7,7.5,1.7,8.9,2C144.2,114.1,156.7,115.6,158.5,116.1z"/>
			</g>
			<g>
				<path class="st42" d="M123.3,118l2.8,1.6l-1.2,1.2l3.2,17.4c0.7-4.1,1-7.9,1.2-10.3c0.7-7.9-7.1-16.8-7.6-17.3
					c-0.4,0.1-0.8,0.3-1.2,0.5L123.3,118z"/>
			</g>
			<g>
				<path class="st42" d="M133.2,111.2c0,0,1.1,3.5,2.3,12.1c0.5,3.3,1.1,8.9,1.8,14.6l0.7-16.3l-1.3-1.5l1.2-1.5l-2.6-6.5
					C134.6,111.8,133.9,111.5,133.2,111.2L133.2,111.2z"/>
			</g>
			<g>
				<path class="st41" d="M120.5,111.1c-2.3,0.9-6.8,2.3-7.4,2.8c-1.1,0.8-6.8,16.7-7.4,17.8L120.5,111.1z"/>
			</g>
			<g>
				<polygon class="st9" points="95.8,181.9 94.2,181.6 84.9,170 90.5,154.7 91.5,155 				"/>
			</g>
			<g>
				<path class="st43" d="M130.6,149c0,0,2.8,0.3,3.7,0.6l-0.1,3.2l-3.7-0.4L130.6,149z"/>
			</g>
			<g>
				<path class="st9" d="M131.6,116.4c0,0-0.8,8.5-7.3,9.6s-15.3,5.6-17.9,8.2l-3.2,3.4l0.1-3.9c0,0,1.5-6.3,20.7-8.5
					c0,0,5.5-0.1,5.5-9.1C129.6,116.1,131.6,116,131.6,116.4z"/>
			</g>
			<g>
				<path class="st9" d="M132.1,116.4c0,0-1.6,1.2-3.4,0.2c0,0,0.7-2.7,1.1-2.8C130.2,113.8,132.3,115.9,132.1,116.4z"/>
			</g>
			<g>
				<path class="st44" d="M121.6,110.6l2.3-1.4c0,0,0.1,1.3,5.9,4.6l-1.6,4.6L121.6,110.6z"/>
			</g>
			<g>
				<path class="st44" d="M131.3,109.9c0,0-0.1,1.4-1.5,4l3.2,4.2l0.2-6.8L131.3,109.9z"/>
			</g>
		</g>
		<path class="st23" d="M344.8,119.1c0,0,3.4,5.8-8.2,9.7l-2.5-10.3C334.1,118.5,341.8,112.6,344.8,119.1z"/>
		<g>
			<path class="st8" d="M330.4,157.2c0,0-0.5-0.4-0.6-0.6c0,0-0.2-0.5-0.3-0.8c0-0.1-0.1-0.2-0.1-0.3c-0.1-0.2-0.6-0.7-0.8-1.4
				c-0.2-0.7-0.8-3.2-0.8-3.2l2.2-0.7l1.4-1.2c0,0,3.3,2.9,3.6,3.5c0,0.1,0,0.1,0.1,0.2c0.2,0.5,0.1,1,0.1,1.3
				c0,0.1,0.1,1.2-0.1,1.4c-0.3,0.3-0.7,0.4-1,0.4c0,0-0.6,0.6-1.2,0.7c0,0-0.6,0.6-1.3,0.4C331.5,156.9,330.9,157.4,330.4,157.2z"
				/>
		</g>
		<g>
			<path class="st23" d="M343.2,123.7l-16.3,7.7c0,0-1.3,1.2,0.6,5.8c1.9,4.7,4.7,11.8,4.7,11.8s-4.6,3.1-5,2.5
				c-1.1-1.6-7.1-14.6-9-20.1c-1.5-4.3,17.8-14.1,17.8-14.1L343.2,123.7z"/>
		</g>
		<g>
			<path class="st45" d="M382.2,159.1c0,0-0.1-0.7,0.1-1c0,0,0.3-0.6,0.4-1c0.1-0.1,0.1-0.2,0.1-0.3c0.1-0.3,0.2-1.1,0.6-1.8
				s2.1-3.1,2.1-3.1l2.3,1.1l2.2,0.4c0,0,0.2,5-0.1,5.7c0,0.1-0.1,0.1-0.1,0.2c-0.3,0.6-0.8,0.9-1,1.2c-0.1,0.1-0.9,1.1-1.3,1.1
				c-0.5,0-0.9-0.2-1.1-0.5c0,0-1,0-1.6-0.5c0,0-1,0-1.4-0.8C383.4,159.8,382.4,159.7,382.2,159.1z"/>
		</g>
		<path class="st12" d="M416.8,124c0,0-11.5,8.3-15.6,13c-1.3,1.5-9.5,16.1-10,16.7c-0.5,0.6-6.1-1.4-6.1-1.4s9.7-18.4,10.3-19.5
			c0.6-1.1,17.3-15,19.4-15.7c2-0.7,2.5-0.2,3.6,1.9C419.7,121.9,416.8,124,416.8,124z"/>
		<g>
			<g>
				<path class="st46" d="M423.9,125.1c0,0-1.2,7.7-7.8,8.2c-6,0.4-14.6,3.4-17.4,5.7l-3.5,3l0.8-4c0,0,2.5-6.3,20-5.5
					c0,0,5.4,1,7.1-8.3C423.1,124.3,424,124.7,423.9,125.1z"/>
			</g>
		</g>
		<g>
			<polygon class="st5" points="231.2,208.4 232,207.3 229.2,204.9 228.1,205.9 			"/>
		</g>
		<g>
			<path class="st6" d="M228.1,205.9c0,0,2.7,1.9,3.5,2c0.7,0.1,1.1,0.4,1.1,1.5s1.3,5.8,2.1,5.9c0.8,0,3.6,0,4.2,1.8
				c0.6,1.8-8.7,1.8-9.4,0.3c-0.6-1.5-4.9-8.6-4.5-9.2C225.5,207.5,226.7,206.2,228.1,205.9z"/>
		</g>
		<g>
			<path class="st47" d="M292.9,182.8c-1.8,2.6-7.9,10-12.2,15.2l-0.2,0.2c-1.9,2.3-3.4,4.1-4,4.9l-0.1,0.1l-0.1,0.1
				c-0.1,0.1-0.1,0.2-0.1,0.2l-4.6-2.6c0,0,1.5-3.2,3.6-6.6c2.8-4.5,5.5-10.1,8.7-12.6c2.3-1.8,0-2.5-2-3.3c-10-4-15.9-6.7-15.9-6.7
				l7.9-12.4c0,0,16.9,12.2,19,15.3C294.9,177.6,295.5,179.1,292.9,182.8z"/>
		</g>
		<g>
			<path class="st47" d="M273.4,160.4c0,0-9.5,17.1-19,26.1c-2.7,2.6-5.5,4.1-9.3,7.4c-2,1.8-5.6,5.4-8.5,8.5l-0.1,0.1
				c-2.1,2.2-3.8,4-4.3,4.6c0,0,0,0-0.1,0.1l-0.1,0.1l-0.1,0.1l-3.8-3c0,0,2-2.4,3.8-5.9c2.5-4.8,6.3-10.7,8.3-12.2
				c3.4-2.7,6.5-4.6,7.7-7.1s5.9-15.2,5.9-15.2s0.9-6.5,6.4-9.1C265.6,152.4,273.4,160.4,273.4,160.4z"/>
		</g>
		<g>
			<path class="st48" d="M274,105.6c0,0-3.5-3.6-6.9-0.4s0,11.2-2.8,12.9c-2.7,1.7-12.1-1.3-12.1,5c0,0,2.3-3.9,6.5-2.2
				c4.2,1.6,10,1.1,10.2-4.9s2.9-3.9,3.5-5.6C273.1,108.6,274,105.6,274,105.6z"/>
		</g>
		<g>
			<path class="st49" d="M273.6,105.5c0,0-1.7,1.1-1.6,4.8C272,110.3,270.2,106.6,273.6,105.5z"/>
		</g>
		<g>
			<path class="st50" d="M280,119.7c-0.3,0.4-0.5,1-0.7,1.6l0,0c-0.1,0.4-0.2,0.9-0.3,1.3c-0.2,1.4-0.3,2.7-0.3,2.7
				s-6.8-1.8-5.6-3.3c1.2-1.6,0.7-6.5,0.7-6.5S281,118.2,280,119.7z"/>
		</g>
		<g>
			<path class="st50" d="M284.4,106.6c0,0,1.7,1.6,0.7,6c0,0,0.3,3.5,0.8,4.2c0.5,0.6-1.5,0.8-1.7,1.2c-0.2,0.4-0.7,2.5-2.1,3.7
				s-8.1-2.8-8.4-5c-0.3-2.1-4.6-11.4,2.9-11.5C284.1,105,284.4,106.6,284.4,106.6z"/>
		</g>
		<g>
			<path class="st51" d="M279.4,149c-0.2,0.2-0.3,0.5-0.5,0.7c-0.1,0.2-0.2,0.4-0.3,0.6c-0.2,0.4-0.4,0.9-0.6,1.4l0,0
				c-1.2,2.8-2.1,6.6-2.4,8.1c-0.1,0.4-0.1,0.6-0.1,0.6c-8.3,0.5-15.2-5.5-15.2-5.5c0.1-0.2,0.3-0.5,0.4-0.7c2.3-3.8,3.9-6,4.8-8.9
				l0,0c0.5-1.6,0.8-3.3,0.8-5.7c0.1-6.7,1.8-10.5,3.5-13.4c1.7-3,3.3-4.7,3.3-4.7l6.1,3.7c0.7,1.9,2.3,3.7,4.5,8.2
				C286.1,138.3,286.2,140.7,279.4,149z"/>
		</g>
		<g>
			<path class="st48" d="M285.4,111c0,0,1.2-9.1-7.8-7.8c-8.9,1.3-4.8,11.7-3.7,15c0,0,0.1-5.2,4.3-5.2
				C282.6,112.8,283.5,111.9,285.4,111z"/>
		</g>
		<g>
			<path class="st50" d="M277.7,111.5c-0.5-1-2.4-0.5-2.2,0.9c0.2,1.4,1.6,2.9,2.1,2.2C278.1,114,278.4,112.9,277.7,111.5z"/>
		</g>
		<g>
			<path class="st51" d="M277.9,130.3c0,0-1.3-4-4.8-2.7c-3.6,1.3-2,5.3-2,5.3L277.9,130.3z"/>
		</g>
		<g>
			<path class="st51" d="M277.9,130.3c0,0,4.7,15.3,6.1,15.6c2,0.5,11.8-2.6,11.8-2.6l0.7,3.3c0,0-14.9,7.8-17.2,3.8
				c-2.8-4.9-8.2-17.4-8.2-17.4L277.9,130.3z"/>
		</g>
		<path class="st52" d="M298.2,140c0,0,1.1-0.9,1.4-1.2s0.6,0.4,0.3,0.9C299.6,140.1,298.2,140,298.2,140z"/>
		<path class="st50" d="M302.7,143.7c0,0-0.4,0.5-0.7,0.6c0,0-0.5,0.2-0.9,0.4c-0.1,0.1-0.2,0.1-0.3,0.2c-0.2,0.2-0.8,0.6-1.5,0.9
			c-0.7,0.3-3.2,1-3.2,1l-0.7-1.8l-0.6-1.4c0,0,2.5-3.1,3.1-3.4c0.1,0,0.1-0.1,0.2-0.1c0.6-0.2,1-0.2,1.3-0.3c0.1,0,1.2-0.3,1.5-0.1
			s0.4,0.6,0.4,0.8c0,0,0.6,0.5,0.6,1.1c0,0,0.6,0.5,0.4,1.2C302.4,142.7,302.9,143.2,302.7,143.7z"/>
		<path class="st53" d="M279.3,121.3L279.3,121.3c-0.1,0.4-0.2,0.9-0.3,1.3c-2-0.8-4.1-4.1-4.1-4.1
			C276.8,120.3,279.2,121.3,279.3,121.3z"/>
		<path class="st0" d="M278.9,149.7c-0.1,0.2-0.2,0.4-0.3,0.6c-0.2,0.4-0.4,0.9-0.6,1.4l-2.6-9.2
			C275.4,142.5,278.3,148.8,278.9,149.7z"/>
	</g>
</g>
</svg>
