<?xml version="1.0" encoding="utf-8"?>
<!-- Generator: Adobe Illustrator 26.0.0, SVG Export Plug-In . SVG Version: 6.00 Build 0)  -->
<svg version="1.1" xmlns="http://www.w3.org/2000/svg" xmlns:xlink="http://www.w3.org/1999/xlink" x="0px" y="0px"
	 viewBox="0 0 300 300" style="enable-background:new 0 0 300 300;" xml:space="preserve">
<style type="text/css">
	.st0{display:none;}
	.st1{display:inline;}
	.st2{fill:#407BFF;}
	.st3{opacity:0.9;fill:#FFFFFF;}
	.st4{fill:#E0E0E0;}
	.st5{fill:#F0F0F0;}
	.st6{fill:#F5F5F5;}
	.st7{fill:#263238;}
	.st8{opacity:0.3;fill:#FFFFFF;enable-background:new    ;}
	.st9{fill:#5A6BAC;}
	.st10{opacity:0.5;fill:#FFFFFF;enable-background:new    ;}
	.st11{opacity:0.2;fill:#FFFFFF;enable-background:new    ;}
	.st12{fill:none;stroke:#FFFFFF;stroke-width:0.2946;stroke-linecap:round;stroke-linejoin:round;stroke-miterlimit:10;}
	.st13{fill:none;stroke:#263238;stroke-width:0.2946;stroke-linecap:round;stroke-linejoin:round;stroke-miterlimit:10;}
	.st14{fill:#7283BA;}
	.st15{opacity:0.5;fill:#FFFFFF;}
	.st16{fill:none;stroke:#263238;stroke-width:0.2946;stroke-miterlimit:10;}
	.st17{fill:#4A5C96;}
	.st18{opacity:0.3;}
	.st19{fill:#7CC4EB;}
	.st20{opacity:0.4;}
	.st21{fill:#FFFFFF;}
	.st22{opacity:0.4;fill:#7CC4EB;}
	.st23{fill:#B97964;}
	.st24{opacity:0.2;enable-background:new    ;}
	
		.st25{opacity:0.2;fill:none;stroke:#000000;stroke-width:0.2946;stroke-linecap:round;stroke-linejoin:round;stroke-miterlimit:10;}
	.st26{fill:#A24E3F;}
	.st27{fill:#DE5753;}
	.st28{fill:#C61A78;}
	.st29{opacity:0.3;enable-background:new    ;}
	.st30{opacity:0.2;}
	.st31{fill:#9E1567;}
	
		.st32{opacity:0.3;fill:none;stroke:#000000;stroke-width:0.2946;stroke-linecap:round;stroke-linejoin:round;stroke-miterlimit:10;}
	.st33{opacity:0.7;fill:#FFFFFF;}
	.st34{fill:#ECD254;}
	.st35{fill:#86C2B0;}
	.st36{fill:#E9B376;}
	.st37{opacity:0.4;fill:#FFFFFF;}
	.st38{fill:#D58745;}
	.st39{fill:none;stroke:#263238;stroke-width:0.4419;stroke-linecap:round;stroke-linejoin:round;stroke-miterlimit:10;}
	.st40{opacity:0.8;fill:#FFFFFF;}
	.st41{fill:#976827;}
</style>
<g id="Background_complete">
</g>
<g id="Background_simple" class="st0">
	<g class="st1">
		<path class="st2" d="M338.4,36.5c-5.2-14.3-15.8-27.9-32-39.7c-19.1-13.9-48.5-27.8-86.2-22c-69.6,10.6-69.4,49.6-116.7,43.5
			C50,11.4-12.2,19.5-28.2,59.6c-30.3,76.2,165.8,160,270.9,130.8C308.1,172.2,366.2,112.3,338.4,36.5z"/>
		<path class="st3" d="M338.4,36.5c-5.2-14.3-15.8-27.9-32-39.7c-19.1-13.9-48.5-27.8-86.2-22c-69.6,10.6-69.4,49.6-116.7,43.5
			C50,11.4-12.2,19.5-28.2,59.6c-30.3,76.2,165.8,160,270.9,130.8C308.1,172.2,366.2,112.3,338.4,36.5z"/>
	</g>
</g>
<g id="Shadow">
</g>
<g id="Light_Bulb">
</g>
<g id="Speech_Bubble">
</g>
<g id="Character_1">
</g>
<g id="Plant">
</g>
<g id="Screen">
</g>
<g id="Character_2_00000083798181020747381990000002522276009728083075_">
	<g>
		<path class="st4" d="M144.3,107.6c2-2.4,9.8-4.1,14.1-0.2c0,0-1.5-2.3,0-4.2c0,0-2,1.3-3.7,0c-1.7-1.3-2.2-7.6-2.2-7.6
			s-0.4,6.4-3.3,7c-2.9,0.6-4.7-3.5-4.7-3.5s1.6,4.5,0.8,5.2c-0.8,0.7-2.3,0-2.3,0L144.3,107.6z"/>
		<path class="st4" d="M138.7,113.8c0,0-2.8,5.5,0,10.4c-1.2-0.8-2.7-0.9-4-0.4c0,0,1.1-1.2,0.9-2.4c-0.2-1.2-5.3-3-5.3-3
			s4,0.4,4.9-1c0.9-1.4-2.2-4.1-2.2-4.1s3.4,1.8,4.1,1.2c0.7-0.6,0-2.4,0-2.4L138.7,113.8z"/>
		<path class="st4" d="M164,124.8c0,0,2.9-4,0.6-10l2-1.2c0,0-0.7,1.3-0.3,2c0.4,0.8,4.6,0.2,4.6,0.2s-3.3,0.7-3.4,2.4
			c-0.1,1.7,4.1,4.3,4.1,4.3s-3.9-1-4.7,0c-0.8,1,0.9,2.8,0.9,2.8S165.8,124.1,164,124.8z"/>
		<path class="st4" d="M51,85.7c-1.5,2.4-2.6,4.9-3.1,7.6l-4.3,0.4l0,8.2l4.3,0.4c0.6,2.7,1.6,5.3,3.1,7.6l-2.7,3.3l5.8,5.8l3.3-2.7
			c2.4,1.5,4.9,2.6,7.6,3.1l0.4,4.3l8.2,0l0.4-4.3c2.7-0.6,5.3-1.6,7.6-3.1l3.3,2.7l5.8-5.8l-2.7-3.3c1.5-2.4,2.6-4.9,3.1-7.6
			l4.3-0.4l0-8.2l-4.3-0.4c-0.6-2.7-1.6-5.3-3.1-7.6l2.7-3.3L85,76.6l-3.3,2.7c-2.4-1.5-4.9-2.6-7.6-3.1l-0.4-4.3l-8.2,0L65,76.2
			c-2.7,0.6-5.3,1.6-7.6,3.1l-3.3-2.7l-5.8,5.8L51,85.7z M77.4,89.9c4.4,4.4,4.4,11.4,0,15.8c-4.4,4.4-11.4,4.4-15.8,0
			c-4.4-4.4-4.4-11.4,0-15.8C66,85.6,73.1,85.6,77.4,89.9z"/>
		<path class="st5" d="M101.9,46c-0.8,1.3-1.4,2.7-1.7,4.1l-2.3,0.2l0,4.5l2.3,0.2c0.3,1.5,0.9,2.9,1.7,4.1l-1.5,1.8l3.2,3.2
			l1.8-1.5c1.3,0.8,2.7,1.4,4.1,1.7l0.2,2.3l4.5,0l0.2-2.3c1.5-0.3,2.9-0.9,4.1-1.7l1.8,1.5l3.2-3.2l-1.5-1.8
			c0.8-1.3,1.4-2.7,1.7-4.1l2.3-0.2l0-4.5l-2.3-0.2c-0.3-1.5-0.9-2.9-1.7-4.1l1.5-1.8l-3.2-3.2l-1.8,1.5c-1.3-0.8-2.7-1.4-4.1-1.7
			l-0.2-2.3l-4.5,0l-0.2,2.3c-1.5,0.3-2.9,0.9-4.1,1.7l-1.8-1.5l-3.2,3.2L101.9,46z M116.3,48.3c2.4,2.4,2.4,6.2,0,8.6
			c-2.4,2.4-6.2,2.4-8.6,0c-2.4-2.4-2.4-6.2,0-8.6C110.1,45.9,113.9,45.9,116.3,48.3z"/>
		<path class="st4" d="M184.2,131c-0.6,0.9-1,1.9-1.2,2.9l-1.6,0.2l0,3.2l1.6,0.2c0.2,1,0.6,2,1.2,2.9l-1,1.3l2.2,2.2l1.3-1
			c0.9,0.6,1.9,1,2.9,1.2l0.2,1.6l3.2,0l0.2-1.6c1-0.2,2-0.6,2.9-1.2l1.3,1l2.2-2.2l-1-1.3c0.6-0.9,1-1.9,1.2-2.9l1.6-0.2l0-3.2
			l-1.6-0.2c-0.2-1-0.6-2-1.2-2.9l1-1.3l-2.2-2.2l-1.3,1c-0.9-0.6-1.9-1-2.9-1.2l-0.2-1.6l-3.2,0l-0.2,1.6c-1,0.2-2,0.6-2.9,1.2
			l-1.3-1l-2.2,2.2L184.2,131z M194.3,132.6c1.7,1.7,1.7,4.4,0,6c-1.7,1.7-4.4,1.7-6,0c-1.7-1.7-1.7-4.4,0-6
			C189.9,130.9,192.6,130.9,194.3,132.6z"/>
		<path class="st4" d="M175.5,157.2c-0.8,1.3-1.4,2.7-1.7,4.1l-2.3,0.2l0,4.5l2.3,0.2c0.3,1.5,0.9,2.9,1.7,4.1l-1.5,1.8l3.2,3.2
			l1.8-1.5c1.3,0.8,2.7,1.4,4.1,1.7l0.2,2.3l4.5,0l0.2-2.3c1.5-0.3,2.9-0.9,4.1-1.7l1.8,1.5l3.2-3.2l-1.5-1.8
			c0.8-1.3,1.4-2.7,1.7-4.1l2.3-0.2l0-4.5l-2.3-0.2c-0.3-1.5-0.9-2.9-1.7-4.1l1.5-1.8l-3.2-3.2l-1.8,1.5c-1.3-0.8-2.7-1.4-4.1-1.7
			l-0.2-2.3l-4.5,0l-0.2,2.3c-1.5,0.3-2.9,0.9-4.1,1.7l-1.8-1.5l-3.2,3.2L175.5,157.2z M189.9,159.5c2.4,2.4,2.4,6.2,0,8.6
			c-2.4,2.4-6.2,2.4-8.6,0c-2.4-2.4-2.4-6.2,0-8.6C183.7,157.1,187.5,157.1,189.9,159.5z"/>
		<path class="st5" d="M208.8,148.4c-1.2,1.8-2,3.8-2.4,5.9l-3.3,0.3l0,6.3l3.3,0.3c0.4,2.1,1.2,4,2.4,5.9l-2.1,2.5l4.5,4.5l2.5-2.1
			c1.8,1.2,3.8,2,5.9,2.4l0.3,3.3l6.3,0l0.3-3.3c2.1-0.4,4-1.2,5.9-2.4l2.5,2.1l4.5-4.5l-2.1-2.5c1.2-1.8,2-3.8,2.4-5.9l3.3-0.3
			l0-6.3l-3.3-0.3c-0.4-2.1-1.2-4-2.4-5.9l2.1-2.5l-4.5-4.5l-2.5,2.1c-1.8-1.2-3.8-2-5.9-2.4l-0.3-3.3l-6.3,0l-0.3,3.3
			c-2.1,0.4-4,1.2-5.9,2.4l-2.5-2.1l-4.5,4.5L208.8,148.4z M229.1,151.7c3.3,3.3,3.3,8.8,0,12.1c-3.3,3.3-8.8,3.3-12.1,0
			c-3.3-3.3-3.3-8.8,0-12.1C220.3,148.3,225.8,148.3,229.1,151.7z"/>
		<path class="st5" d="M176.9,51.6c-1,1.5-1.7,3.2-2,4.9l-2.7,0.3l0,5.2l2.7,0.3c0.4,1.7,1,3.4,2,4.9l-1.7,2.1l3.7,3.7l2.1-1.7
			c1.5,1,3.2,1.7,4.9,2l0.3,2.7l5.3,0l0.3-2.7c1.7-0.4,3.4-1,4.9-2l2.1,1.7l3.7-3.7l-1.7-2.1c1-1.5,1.6-3.2,2-4.9l2.7-0.3l0-5.2
			l-2.7-0.3c-0.4-1.7-1-3.4-2-4.9l1.7-2.1l-3.7-3.7l-2.1,1.7c-1.5-1-3.2-1.7-4.9-2l-0.3-2.7l-5.3,0l-0.3,2.7c-1.7,0.4-3.4,1-4.9,2
			l-2.1-1.7l-3.7,3.7L176.9,51.6z M193.7,54.3c2.8,2.8,2.8,7.3,0,10.1c-2.8,2.8-7.3,2.8-10.1,0c-2.8-2.8-2.8-7.3,0-10.1
			C186.5,51.6,191,51.6,193.7,54.3z"/>
		<path class="st5" d="M42.8,164.8c-0.9,1.4-1.6,3-1.9,4.6l-2.6,0.2l0,5l2.6,0.2c0.3,1.6,1,3.2,1.9,4.6l-1.6,2l3.5,3.5l2-1.6
			c1.4,0.9,3,1.6,4.6,1.9l0.2,2.6l5,0l0.2-2.6c1.6-0.3,3.2-1,4.6-1.9l2,1.6l3.5-3.5l-1.6-2c0.9-1.4,1.6-3,1.9-4.6l2.6-0.2l0-5
			l-2.6-0.2c-0.3-1.6-1-3.2-1.9-4.6l1.6-2l-3.5-3.5l-2,1.6c-1.4-0.9-3-1.6-4.6-1.9l-0.2-2.6l-5,0l-0.2,2.6c-1.6,0.3-3.2,1-4.6,1.9
			l-2-1.6l-3.5,3.5L42.8,164.8z M58.7,167.4c2.6,2.6,2.6,6.9,0,9.5c-2.6,2.6-6.9,2.6-9.5,0c-2.6-2.6-2.6-6.9,0-9.5
			C51.8,164.8,56.1,164.8,58.7,167.4z"/>
		<g>
			<g>
				<g>
					<g>
						<g>
							<path class="st4" d="M264.2,195.5H157.8c-1.9,0-3.5-1.5-3.5-3.5V36.9c0-1.9,1.5-3.5,3.5-3.5h106.5c1.9,0,3.5,1.5,3.5,3.5V192
								C267.7,193.9,266.1,195.5,264.2,195.5z M157.8,33.6c-1.8,0-3.3,1.5-3.3,3.3V192c0,1.8,1.5,3.3,3.3,3.3h106.5
								c1.8,0,3.3-1.5,3.3-3.3V36.9c0-1.8-1.5-3.3-3.3-3.3H157.8z"/>
						</g>
					</g>
					<g>
						<g>
							<path class="st4" d="M141.5,195.5H35c-1.9,0-3.5-1.5-3.5-3.5V36.9c0-1.9,1.5-3.5,3.5-3.5h106.5c1.9,0,3.5,1.5,3.5,3.5V192
								C144.9,193.9,143.4,195.5,141.5,195.5z M35,33.6c-1.8,0-3.3,1.5-3.3,3.3V192c0,1.8,1.5,3.3,3.3,3.3h106.5
								c1.8,0,3.3-1.5,3.3-3.3V36.9c0-1.8-1.5-3.3-3.3-3.3H35z"/>
						</g>
					</g>
				</g>
				<g>
					<g>
						<rect x="2.7" y="231.4" class="st4" width="294.6" height="0.1"/>
					</g>
				</g>
			</g>
			<rect x="33.2" y="239.8" class="st4" width="9.5" height="0.1"/>
			<rect x="103.1" y="238.2" class="st4" width="31.5" height="0.1"/>
			<rect x="43.2" y="245.3" class="st4" width="21.4" height="0.1"/>
			<rect x="225.6" y="238.2" class="st4" width="25.4" height="0.1"/>
			<rect x="256.3" y="238.2" class="st4" width="3.7" height="0.1"/>
			<rect x="189" y="241.8" class="st4" width="31.7" height="0.1"/>
		</g>
		<g>
			<g>
				<path class="st6" d="M273.1,262.9c0,2-55.1,3.6-123.1,3.6s-123.1-1.6-123.1-3.6c0-2,55.1-3.6,123.1-3.6S273.1,260.9,273.1,262.9
					z"/>
			</g>
		</g>
		<g id="freepik--light-bulb--inject-2">
			<g>
				<g>
					<path class="st7" d="M156.2,137.9c0,1.5-2.1,2.7-4.6,2.7c-2.5,0-4.6-1.3-4.5-2.8c0-1.5,2.1-2.7,4.6-2.7
						C154.2,135.2,156.2,136.4,156.2,137.9z"/>
					<path class="st7" d="M158.2,133c0.2-0.2,0.4-0.6,0.4-0.9c0-1.5-3.1-2.7-6.9-2.7s-7,1.1-7,2.6c0,0.3,0.2,0.7,0.4,0.9
						c-0.1,0.1-0.1,0.3-0.1,0.4c0,0.3,0.2,0.7,0.4,0.9c-0.1,0.1-0.1,0.3-0.1,0.5c0,0.3,0.2,0.7,0.4,0.9c-0.1,0.1-0.1,0.3-0.1,0.5
						c0,0.3,0.2,0.7,0.4,0.9c-0.1,0.1-0.1,0.3-0.2,0.5c0,1.2,2.6,2.2,5.8,2.3c3.2,0,5.8-0.9,5.8-2.1c0-0.2-0.1-0.3-0.1-0.5
						c0.3-0.2,0.4-0.5,0.4-0.9c0-0.2,0-0.3-0.1-0.5c0.3-0.2,0.4-0.5,0.4-0.9c0-0.2,0-0.3-0.1-0.5c0.3-0.2,0.4-0.5,0.4-0.9
						C158.3,133.3,158.3,133.1,158.2,133z"/>
					<path class="st8" d="M158.2,133c0.2-0.2,0.4-0.6,0.4-0.9c0-1.5-3.1-2.7-6.9-2.7s-7,1.1-7,2.6c0,0.3,0.2,0.7,0.4,0.9
						c-0.1,0.1-0.1,0.3-0.1,0.4c0,0.3,0.2,0.7,0.4,0.9c-0.1,0.1-0.1,0.3-0.1,0.5c0,0.3,0.2,0.7,0.4,0.9c-0.1,0.1-0.1,0.3-0.1,0.5
						c0,0.3,0.2,0.7,0.4,0.9c-0.1,0.1-0.1,0.3-0.2,0.5c0,1.2,2.6,2.2,5.8,2.3c3.2,0,5.8-0.9,5.8-2.1c0-0.2-0.1-0.3-0.1-0.5
						c0.3-0.2,0.4-0.5,0.4-0.9c0-0.2,0-0.3-0.1-0.5c0.3-0.2,0.4-0.5,0.4-0.9c0-0.2,0-0.3-0.1-0.5c0.3-0.2,0.4-0.5,0.4-0.9
						C158.3,133.3,158.3,133.1,158.2,133z"/>
					<path class="st9" d="M164,120c0.1-6.8-5.4-12.4-12.2-12.5c-6.8-0.1-12.4,5.4-12.5,12.2c0,3.7,1.6,7.2,4.4,9.6
						c0.5,0.4,0.8,1.1,0.7,1.8c0,0,0,0.1,0,0.1c0,1.5,3.1,2.7,7,2.8c3.9,0,7.1-1.1,7.1-2.6c0,0,0-0.1,0-0.1
						c-0.1-0.7,0.2-1.4,0.8-1.8C162.2,127.2,163.9,123.7,164,120z"/>
					<path class="st10" d="M164,120c0.1-6.8-5.4-12.4-12.2-12.5c-6.8-0.1-12.4,5.4-12.5,12.2c0,3.7,1.6,7.2,4.4,9.6
						c0.5,0.4,0.8,1.1,0.7,1.8c0,0,0,0.1,0,0.1c0,1.5,3.1,2.7,7,2.8c3.9,0,7.1-1.1,7.1-2.6c0,0,0-0.1,0-0.1
						c-0.1-0.7,0.2-1.4,0.8-1.8C162.2,127.2,163.9,123.7,164,120z"/>
					<path class="st11" d="M157.9,112.9c0,2.4-2.8,4.3-6.3,4.3c-3.5,0-6.3-1.9-6.3-4.3c0-2.4,2.8-4.4,6.3-4.4
						C155.1,108.5,157.9,110.5,157.9,112.9z"/>
				</g>
				<path class="st12" d="M142.2,124.6c-1.1-1.8-1.5-4-1.2-6.2c0.3-2.1,1.4-4.1,2.9-5.5"/>
				<g>
					<path class="st7" d="M145.9,136.9c3.6,1.5,7.7,1.5,11.3,0.1C153.7,138.6,149.4,138.6,145.9,136.9
						C145.9,136.9,149.4,138.6,145.9,136.9z"/>
				</g>
				<g>
					<path class="st7" d="M145.9,135.6c3.6,1.5,7.7,1.5,11.3,0.1C153.6,137.3,149.4,137.3,145.9,135.6
						C145.9,135.6,149.4,137.3,145.9,135.6z"/>
				</g>
				<g>
					<path class="st7" d="M145.8,134.3c3.6,1.5,7.7,1.5,11.3,0.1C153.5,136,149.3,135.9,145.8,134.3
						C145.8,134.3,149.3,135.9,145.8,134.3z"/>
				</g>
				<path class="st13" d="M149,131.4c0.9-3.2,1.1-6.7,0.5-10c-0.1-0.5-0.3-1.2-0.8-1.2c-0.4,0-0.7,0.5-0.8,1
					c-0.3,1.7,0.5,3.4,1.7,4.6c0.6,0.6,1.3,1.2,2.2,1.2c0.8,0,1.6-0.4,2.2-1.1c1.1-1.2,1.7-3.2,1.3-4.9c-0.2-0.7-0.7-1.5-1.4-1.4
					c-0.4,0.1-0.7,0.5-0.8,0.9s-0.1,0.9,0,1.4c0.4,3.3,1.2,6.5,2.4,9.5"/>
			</g>
		</g>
		<g>
			<g>
				<path class="st14" d="M211.6,90.9c0.4,0.1,5.5,6.1,5.5,6.1l4.4-6.4L211.6,90.9z"/>
				<path class="st15" d="M211.6,90.9c0.4,0.1,5.5,6.1,5.5,6.1l4.4-6.4L211.6,90.9z"/>
			</g>
			<g>
				<g>
					<path class="st9" d="M244.4,91h-52.6c-1.3,0-2.4-1.1-2.4-2.4V59.3c0-1.3,1.1-2.4,2.4-2.4h52.6c1.3,0,2.4,1.1,2.4,2.4v29.3
						C246.8,89.9,245.7,91,244.4,91z"/>
					<path class="st15" d="M244.4,91h-52.6c-1.3,0-2.4-1.1-2.4-2.4V59.3c0-1.3,1.1-2.4,2.4-2.4h52.6c1.3,0,2.4,1.1,2.4,2.4v29.3
						C246.8,89.9,245.7,91,244.4,91z"/>
				</g>
				<path class="st16" d="M198,75.9c0.2-0.2,7-6.9,7-6.9l6.6,3.3l6.5-7.6l6.6,9.6l6.5-4.2"/>
				<rect x="197" y="78.8" class="st17" width="3.1" height="6.9"/>
				<rect x="203.4" y="74.3" class="st9" width="3.1" height="11.4"/>
				<rect x="209.9" y="75.4" class="st17" width="3.1" height="10.3"/>
				<rect x="216.5" y="69" class="st9" width="3.1" height="16.7"/>
				<rect x="223.3" y="77.9" class="st17" width="3.1" height="7.9"/>
				<path class="st17" d="M200.2,75.1c0,0.9-0.7,1.7-1.7,1.7c-0.9,0-1.7-0.7-1.7-1.7c0-0.9,0.7-1.7,1.7-1.7
					C199.5,73.4,200.2,74.2,200.2,75.1z"/>
				<path class="st17" d="M206.6,69c0,0.9-0.7,1.7-1.7,1.7c-0.9,0-1.7-0.7-1.7-1.7c0-0.9,0.7-1.7,1.7-1.7
					C205.9,67.3,206.6,68.1,206.6,69z"/>
				<path class="st17" d="M213.3,71.7c0,0.9-0.7,1.7-1.7,1.7c-0.9,0-1.7-0.7-1.7-1.7c0-0.9,0.7-1.7,1.7-1.7
					C212.5,70.1,213.3,70.8,213.3,71.7z"/>
				<path class="st17" d="M219.8,64.6c0,0.9-0.7,1.7-1.7,1.7c-0.9,0-1.7-0.7-1.7-1.7c0-0.9,0.7-1.7,1.7-1.7
					C219,63,219.8,63.7,219.8,64.6z"/>
				<path class="st17" d="M226.4,74.2c0,0.9-0.7,1.7-1.7,1.7c-0.9,0-1.7-0.7-1.7-1.7c0-0.9,0.7-1.7,1.7-1.7
					C225.7,72.5,226.4,73.3,226.4,74.2z"/>
				<rect x="229.9" y="73.9" class="st9" width="3.1" height="11.8"/>
				<rect x="203.4" y="74.3" class="st18" width="3.1" height="11.4"/>
				<rect x="216.5" y="69" class="st18" width="3.1" height="16.7"/>
				<rect x="229.9" y="73.9" class="st18" width="3.1" height="11.8"/>
				<rect x="236.8" y="77.9" class="st17" width="3.1" height="7.9"/>
				<line class="st16" x1="231.2" y1="70" x2="238.3" y2="73.9"/>
				<path class="st17" d="M233.2,70c0,0.9-0.7,1.7-1.7,1.7c-0.9,0-1.7-0.7-1.7-1.7c0-0.9,0.7-1.7,1.7-1.7
					C232.5,68.3,233.2,69,233.2,70z"/>
				<path class="st17" d="M240,73.9c0,0.9-0.7,1.7-1.7,1.7c-0.9,0-1.7-0.7-1.7-1.7c0-0.9,0.7-1.7,1.7-1.7
					C239.3,72.3,240,73,240,73.9z"/>
			</g>
		</g>
		<g>
			<g>
				<g>
					<g>
						<path class="st19" d="M199,227.5v-27.4c0-1.2,1.4-1.9,2.4-1.2l17.4,13.7c0.8,0.6,0.8,1.8,0,2.4l-17.4,13.7
							C200.5,229.5,199,228.8,199,227.5z"/>
					</g>
					<g>
						<rect x="119.7" y="205.7" class="st19" width="82.2" height="16.3"/>
					</g>
				</g>
				<g>
					<path class="st19" d="M134.1,222H57l8.8-8.3l-8.8-8.4h77.1c33.1,0,60-26.9,60-60c0-33.1-26.9-60-60-60V68.6
						c42.3,0,76.7,34.4,76.7,76.7C210.8,187.6,176.4,222,134.1,222z"/>
				</g>
				<g class="st20">
					<path class="st21" d="M134.1,222H57l8.8-8.3l-8.8-8.4h77.1c33.1,0,60-26.9,60-60c0-33.1-26.9-60-60-60V68.6
						c42.3,0,76.7,34.4,76.7,76.7C210.8,187.6,176.4,222,134.1,222z"/>
				</g>
				<g>
					<g>
						<path class="st19" d="M76.9,198.9c-12.9-14.4-20.1-32.9-20.1-52.3c0-35.5,23.9-66.5,58.2-75.5l-5.8,7.2l10.1,9.2
							c-26.8,7.1-45.5,31.3-45.5,59.1c0,15.1,5.6,29.7,15.7,40.9L76.9,198.9z"/>
					</g>
					<path class="st19" d="M78.6,199.9c0.6-0.2,21.4,0,21.4,0l-10.5-12.4l-12.6,11.4L78.6,199.9z"/>
				</g>
				<g>
					<path class="st19" d="M134.4,62.5l1.5,27.4c0.1,1.2-1.3,2-2.3,1.3l-18.2-12.7c-0.8-0.6-0.9-1.7-0.1-2.3l16.6-14.7
						C132.8,60.6,134.3,61.2,134.4,62.5z"/>
					<path class="st22" d="M134.4,62.5l1.5,27.4c0.1,1.2-1.3,2-2.3,1.3l-18.2-12.7c-0.8-0.6-0.9-1.7-0.1-2.3l16.6-14.7
						C132.8,60.6,134.3,61.2,134.4,62.5z"/>
				</g>
			</g>
			<g>
				<g>
					<g>
						<g>
							<path class="st7" d="M125.8,120.9c3.2,2.1,4.1,5.2,4.1,7.5c-0.4,3-1.4,5.1-2.3,8.1l-8-17.6
								C121.5,119.2,122.4,118.8,125.8,120.9z"/>
							<path class="st7" d="M121.8,119.3c-3.1-1.5-6.2,0.3-8,1.5c-2,1.7-3.1,4.1-3.2,6.6c0,2.4,0,5.3,1.5,6.6c0.8,0.7,1.9,1.1,3,1
								l11.9-11C125.7,122,123.9,120.4,121.8,119.3z"/>
							<g>
								<path class="st23" d="M122,151.8c-0.9,0.9-1.7,0.6-3,0.1c-7.2-2.6-5.1-6.1-5.1-6.1c1.4-1.6,1.4-3.5,0.9-6.5
									c0-0.1,0-0.2,0-0.3c0-0.4,0.1-0.8,0.4-1.1c0.6-0.9,1.8-1.1,2.7-0.5c0,0,0,0,0,0l3.2,0.9l0,0c0,0,0,0.1,0,0.1
									c0,1.6,0,2.9,0,3.8c0,0.1,0,0.2,0,0.4l0,0c0,0.1,0,0.2,0,0.4c0.1,1.3,2.4,3.3,3.3,3.8C125,147.2,125.1,148.6,122,151.8z"/>
								<path class="st24" d="M121.2,138.4L121.2,138.4c0,0,0,0.1,0,0.1c0,1.6,0,2.9,0,3.8c0,0.1,0,0.2,0,0.4l0,0c0,0.1,0,0.3,0,0.4
									l0,0c-2.5-0.7-4.7-2.1-6.3-4l0,0c0-0.4,0.1-0.8,0.3-1.1c0.6-0.9,1.8-1.1,2.7-0.5L121.2,138.4z"/>
								<path class="st23" d="M112.4,128.1c0.1,5.5,0.1,7.9,2.7,10.9c4,4.5,10.6,3.3,12.1-2.1c1.3-4.9,0.9-13.1-4.3-15.7
									C117.7,118.7,112.3,122.6,112.4,128.1z"/>
								<path class="st23" d="M110,132.9c0.6,1.2,1.6,2,2.5,2.3c1.4,0.5,2.4-1.8,2-3.3c-0.3-1.4-1.7-2.4-3.2-2.2
									C109.9,129.9,109.3,131.5,110,132.9z"/>
								<path class="st25" d="M113.1,132.9c0-0.5-0.2-1.1-0.6-1.4c-0.4-0.4-0.9-0.6-1.4-0.6"/>
								<g>
									<g>
										<path class="st7" d="M119.7,130.5c0,0.6,0.3,1.1,0.6,1.1c0.4,0,0.7-0.4,0.7-1c0-0.6-0.3-1.1-0.6-1.1
											C120,129.5,119.7,129.9,119.7,130.5z"/>
										<path class="st7" d="M125.1,131c0,0.6,0.3,1.1,0.6,1.1c0.4,0,0.7-0.4,0.7-1c0-0.6-0.3-1.1-0.6-1.1
											C125.5,130,125.2,130.4,125.1,131z"/>
										<path class="st7" d="M118.7,128.4c0.1,0,0.1,0,0.2,0c0.9-0.7,1.9-0.4,1.9-0.4c0.1,0.1,0.3,0,0.3-0.2c0-0.1,0-0.3-0.2-0.4
											c0,0-1.2-0.5-2.4,0.4c-0.1,0.1-0.1,0.3,0,0.4C118.5,128.3,118.6,128.4,118.7,128.4z"/>
										<path class="st7" d="M127.2,128.3c0.1,0,0.1-0.1,0.1-0.1c0.1-0.1,0-0.3-0.1-0.4c-1.2-0.8-2.2-0.4-2.2-0.3
											c-0.1,0.1-0.2,0.2-0.1,0.3c0.1,0.1,0.2,0.2,0.3,0.1c0,0,0.8-0.4,1.8,0.3C127.1,128.3,127.2,128.4,127.2,128.3z"/>
										<path class="st26" d="M123.7,130.6c0,0,0.7,2.2,1.6,3.5c0.2,0.2,0,0.6-0.3,0.6c-0.7,0.2-1.5-0.1-1.5-0.1L123.7,130.6z"/>
									</g>
									<path class="st7" d="M120.1,129.5l1.3-0.2C121.4,129.3,120.7,130.2,120.1,129.5z"/>
									<path class="st7" d="M125.7,130l1.3-0.2C127,129.8,126.2,130.7,125.7,130z"/>
								</g>
							</g>
							<g>
								<path class="st7" d="M123.1,136.2c-0.5,0.5-1.1,1.6-1.1,1.6c-0.1,0-0.2-0.1-0.3-0.1c-1.4-0.6-1.9-1.3-2-1.9
									c0-0.3,0-0.7,0.1-0.9c0.1-0.3,0.2-0.5,0.2-0.5c0.6,0.7,1.8,1.4,2.5,1.7C122.9,136.1,123.1,136.2,123.1,136.2z"/>
								<path class="st21" d="M122.7,136l-0.3,0.5c-1.3-0.5-2.2-1.1-2.4-1.7c0.1-0.3,0.2-0.5,0.2-0.5
									C120.7,135.1,122,135.7,122.7,136z"/>
								<path class="st27" d="M121.7,137.6c-1.4-0.6-1.9-1.3-2-1.9c0.5,0.2,1,0.5,1.4,0.9C121.5,137,121.7,137.3,121.7,137.6z"/>
							</g>
							<path class="st7" d="M114.3,129.5c0,0,3.2-3.6,3.3-6.7c0,0,11.3-2.5,10.3,7.3c0,0,2.5-8.5-6.8-9.8c-9.3-1.4-11.2,10.7-7,14.9
								C114.1,135.1,112.4,131.8,114.3,129.5z"/>
							<path class="st7" d="M104.5,122.1c0.2,2.5,2.4,4.4,5,4.2c2.5-0.2,4.4-2.4,4.2-5c-0.2-2.4-2.2-4.2-4.6-4.2
								C106.4,117.3,104.4,119.5,104.5,122.1z"/>
							<path class="st7" d="M125.3,121.4c1.2,1.2,2,2.7,2.3,4.4c0,1.2-1.6,2.1-1.6,2.1l-2-2.6v2.3c-3.3-0.4-5.2-2.1-6.3-4.6l1.8-3.3
								C119.5,119.6,124.2,120.5,125.3,121.4z"/>
							<g>
								<path class="st7" d="M109.6,124.8c-0.3,1.3-1.1,2.5-2.1,3.3c0.6,0,1.2-0.1,1.7-0.4c0,0.5-0.1,0.9-0.3,1.4
									c1.3-1.1,2.1-2.8,2.1-4.6L109.6,124.8z"/>
							</g>
						</g>
						<g>
							<g>
								<g>
									<path class="st7" d="M174.6,244.2l-5.5,0.2c0,0-9.8-18.9-14.5-29.5c-5.6-12.5-4.3-16.6-6-16.6c-3.1-0.1-34.6,14.3-42.4,6.3
										c-7.9-8,3.5-27.4,3.5-27.4s17.6-2.7,19,1.6c0.4,1.3,1.1,2.6,1.3,3.9c0.2,1.3,0.6,3.2,0.6,3.2l0,0
										c0.4-0.1,12.5-1.3,19.9-1.1c4.5,0.1,8.5,2.8,10.3,7C167.5,207.3,174.6,244.2,174.6,244.2z"/>
									<path class="st7" d="M119.2,206.5c0,0,1.3,0,21.2-0.9c0,0-2.7,6.5-3.5,19.8c-0.3,5.5,0.6,23.2-0.1,31
										c0.3,0.5,4,2.1,6.2,0.5c0,0,12.9-46.6,12.8-53c-0.1-6.3-7.5-8.2-7.5-8.2S134.2,203.9,119.2,206.5z"/>
									<path class="st24" d="M137.7,201.3c2.7-1.1,5.4-2.3,8-3.6c4.6-2.3,10.2,0.7,10.6,5.7c0,0.2,0,0.3,0,0.5
										c0.1,2.6-2.2,12.2-5.5,22.7c0.1-0.6,0.2-1.2,0.4-1.8c3.3-13.1,4.9-19.9,3.3-23.1c-1.1-2-2.8-3.5-4.9-4.3l-17.8,8.7
										c-9.8,0.4-11.3,0.4-11.4,0.4C126.2,205.3,132.1,203.6,137.7,201.3z"/>
									<g>
										<g>
											<path class="st28" d="M143.9,254.2c0-0.3-0.2-0.5-0.5-0.5h-1.7c-0.4,0-0.9,0.7-1.1,1.1c-1.1,1.4-1.9,0.9-3-0.5
												c-0.7-0.1-1,0.7-1,1l-1.5,5c-0.1,0.4,0.1,0.9,0.5,1c0.1,0,0.2,0,0.2,0c2.3,0.1,3.3,0.1,6.2,0.1l8.6,0.2
												c2.4,0.1,2.9-2.3,1.9-2.5c-4.3-1.1-7.4-2.4-8.7-3.7C143.6,255.2,143.9,254.7,143.9,254.2z"/>
											<path class="st12" d="M144.7,255.9c-0.6,0.1-1.3,0.4-1.6,1"/>
											<path class="st12" d="M145.9,256.7c-0.6,0.1-1.3,0.4-1.6,1"/>
											<path class="st12" d="M147.4,257.4c-0.6,0.1-1.3,0.4-1.6,1"/>
										</g>
									</g>
									<g>
										<g>
											<path class="st28" d="M174.3,240.5l-1.8,0.6c-0.4,0.1-0.7,0.5-0.8,0.9c-0.5,1.8-1.5,1.5-3,0.6c-0.7,0.2-0.6,1-0.6,1.3
												l0.4,5.3c0,0.4,0.4,0.8,0.9,0.7c0.1,0,0.2,0,0.2,0c2.1-0.8,3.1-1.1,5.8-2.1l8.1-2.9c2.2-0.8,1.9-3.2,0.9-3.1
												c-4.4,0.6-7.8,0.4-9.5-0.3C174.6,241.3,174.8,241.1,174.3,240.5z"/>
											<path class="st12" d="M176,241.7c-0.6,0.3-1,0.9-1.1,1.5"/>
											<path class="st12" d="M177.4,241.9c-0.6,0.3-1,0.9-1.1,1.5"/>
											<path class="st12" d="M179,242.1c-0.6,0.3-1,0.9-1.1,1.5"/>
										</g>
									</g>
								</g>
								<path class="st7" d="M133.7,185.5l-2.5,0.2c0,0-0.2-1.7-0.4-3c-0.2-1.3-1.6-5.7-2-6.9c-7.2,0.7-19.5,0.3-19.5,0.3
									s-11.1,20.5-3.2,28.5c4.7,4.8,18.7,2,29-2.2L133.7,185.5z"/>
								<path class="st29" d="M131.2,185l-11.1,2.3c0,0,6.1-3.3,10.7-4.6C131,184,131.2,185,131.2,185z"/>
							</g>
						</g>
						<g>
							<g>
								<path class="st23" d="M147.4,159c0.1-1-2.8,4.6-2.8,4.6l-4.9-3.4l3.9-3.9C143.6,156.2,147.6,158.8,147.4,159"/>
							</g>
							<path class="st28" d="M127.8,146.3c2.6,1.3,4.6,3.6,5.5,6.3c1.7,5,2.4,10.9,2.4,10.9l6.2-5.5l4.6,3.4c0,0-6,9.1-10.1,12.7
								c-3.4,3-7.2-2.8-7.2-2.8l-1.7-25.2L127.8,146.3z"/>
							<polygon class="st30" points="115.9,179 114.6,199.8 102.7,198.4 102.7,196.3 							"/>
							<g>
								<path class="st21" d="M110.2,179.6c-0.5-5.3-2.3-14.9-5.6-25.1c-1-3.3,2.7-7,2.7-7s2.4-0.2,2.9-0.2c0.5-0.1,1-0.1,1.5-0.1
									c3.8-0.3,6.9-0.5,10.2-0.3c0.8,0,1.7,0.1,2.6,0.2c0.3,0,2.1,0.1,2.3,0.1c0,0,4.8,5.7,5.1,9.6c0.1,2.2,1.2,3.2,1.1,8.5
									c0,3.6-2.6,8.9-2.9,14L110.2,179.6z"/>
							</g>
							<path class="st28" d="M116.8,161.8c-0.3-8.3-1.2-13.5-1.7-15.5c-0.1-0.5-0.6-0.9-1.2-0.8l-3.2,0.7c-3.1,0.8-4.8,0.4-6.6,2.7
								c-0.3,0.5-0.6,3.9-0.6,4.4c0,0.9,0.6,3.5,1.4,6.6c0.5,2.2,1.2,4.6,1.8,7c0.8,2.9,1.4,3.7,1.7,4.7l-8.1,23.9
								c-0.2,0.6,0.2,1.3,0.9,1.4l11.6,1.2c0.6,0.1,1.1-0.3,1.1-0.9C114.6,192.3,117,171.4,116.8,161.8z"/>
							<path class="st28" d="M132.1,178.1c0,0,2.4-15.1,1.8-18.9s-6.3-13-6.3-13L125,146l-3-1.2c0,0,7,8.5,8.8,14.6
								c1.1,4-1.1,16.8-0.9,19.8l1.3,6.4l3.2-0.1L132.1,178.1z"/>
							<g>
								<path class="st2" d="M114.6,144.2c0,0,3.2,6.2,2,22l-5.3-11.3l1.9-3.1l-2.5-5c0,0,2.7-1.7,3.8-2.7L114.6,144.2z"/>
							</g>
							<g>
								<path class="st31" d="M114.6,144.2c0,0,3.2,6.2,2,22l-5.3-11.3l1.9-3.1l-2.5-5c0,0,2.7-1.7,3.8-2.7L114.6,144.2z"/>
							</g>
							<path class="st2" d="M130.9,166.3c0,0,1.2-3.5,1-6.7c-0.2-3.2-0.3-5.6-0.3-5.6l-3.6-2.7l0.5-3.3c0,0-1.8-1.1-3.4-2.2
								c-1.1-0.8-3.3-1.9-3.6-1.8c0,0,9.3,11.7,9.3,16.5C130.8,165.2,130.9,166.3,130.9,166.3z"/>
							<path class="st31" d="M130.9,166.3c0,0,1.2-3.5,1-6.7c-0.2-3.2-0.3-5.6-0.3-5.6l-3.6-2.7l0.5-3.3c0,0-1.8-1.1-3.4-2.2
								c-1.1-0.8-3.3-1.9-3.6-1.8c0,0,9.3,11.7,9.3,16.5C130.8,165.2,130.9,166.3,130.9,166.3z"/>
							<path class="st18" d="M132.6,174.3l1.3-11.7l0.5,12.1C134.4,174.7,133.2,174.6,132.6,174.3z"/>
							<path class="st21" d="M123.8,147.2l-2.5-3.4l-1.2,2l-4.9-3l-0.6,1.2l1.7,5.1c0,0,4.4,1.8,4.6,1.8
								C121.2,151,123.8,147.2,123.8,147.2z"/>
							<polygon class="st18" points="123.9,147.4 122.9,149.9 120.3,147.4 118.6,150.3 116,149.1 118.8,151.2 120.4,148 
								123.3,150.7 							"/>
							<polygon class="st18" points="110.3,171.2 109.3,160 108.6,172.2 120.1,176.9 							"/>
							<path class="st28" d="M105.8,147.4c0,0-3.7,0.9-4.4,4.9c-0.7,4-1.6,24-0.8,25.2c0.8,1.3,23.1,8.4,23.1,8.4l2.4-6.2l-16.8-8.1
								c0,0,0.1-5.7,0.3-10.2c0.1-2.4,0.1-4.4,0.2-5C109.8,154.7,105.8,147.4,105.8,147.4z"/>
							<path class="st23" d="M125.9,180.1c0,0,7,1.7,8.6,3.1c0.7,0.6,0.7,1.6,0.7,1.6l-11.3,0.5L125.9,180.1z"/>
							<path class="st18" d="M105.7,179.8c0.2,0.1,9.9,3.5,9.9,3.5v1.2l-10.3-3.3L105.7,179.8z"/>
							<path class="st25" d="M120.4,148c5.2,9.1,5,21,5.2,31.1"/>
						</g>
					</g>
					<g>
						<g>
							<g>
								<g>
									<g>
										<g>
											<g>
												<path class="st23" d="M143.9,156.8c0,0-1-1.5-0.6-2.9c0.3-1.4,0.2-2.7,0.6-3.7c0.3-1,0.9,0.3,1.1,1.1
													c0.2,0.8,0.4,1.7,0.9,1.5c0.6-0.2,3.9-4.3,4.7-4.5c0.8-0.2,0.5,0.6,0.5,0.6s0.8-1,1.3-0.7c0.1,0.1,0.3,0.4,0,0.9
													c-0.7,1.1-2.3,3.4-2.3,3.4c0.1-0.1,2.3-2.8,2.6-3.2c0.5-0.5,1-0.4,1.2-0.1c0.4,0.4-2.2,3.9-2.2,4.1c0,0,1.4-2,2.1-1.9
													c0.7,0.1-0.1,1.4-1,2.4c-0.9,0.9-2.3,3-3.3,3.9c-1.2,1.1-2.2,1.5-3.6,0.9C144.5,157.8,143.9,156.8,143.9,156.8z"/>
											</g>
										</g>
									</g>
								</g>
							</g>
						</g>
						<path class="st32" d="M150.9,148.9c-0.6,0.8-1.3,1.6-1.8,2.5"/>
						<path class="st32" d="M151.2,153.9c-0.8-1.1-1.9-1.9-3.1-2.4"/>
						<path class="st32" d="M146,153.3c0.4,0.4,0.6,0.9,0.6,1.5c0,0.5-0.1,1.1-0.5,1.5"/>
					</g>
				</g>
				<g>
					<g>
						<g>
							<path class="st7" d="M154.2,185h-18.2c-0.3,0-0.6-0.2-0.6-0.5c0,0,0-0.1,0-0.1l8.1-18.5c0.2-0.5,0.8-0.9,1.5-0.9h18.2
								c0.3,0,0.6,0.2,0.6,0.4c0,0.1,0,0.1,0,0.2l-8.1,18.5C155.5,184.7,154.9,185,154.2,185z"/>
							<path class="st33" d="M163.3,165h-18.2c-0.7,0-1.3,0.4-1.5,0.9l-8.1,18.5c0,0,0,0.1,0,0.1c0,0.3,0.2,0.5,0.6,0.5h18.2
								c0.7,0,1.3-0.4,1.5-0.9l8.1-18.5c0,0,0-0.1,0-0.2C163.9,165.2,163.6,165,163.3,165z"/>
							<path class="st21" d="M152,175.4c-0.4,0.9-1.2,1.5-1.8,1.4c-0.6-0.1-0.8-0.9-0.4-1.8c0.4-0.9,1.2-1.5,1.8-1.4
								C152.3,173.7,152.4,174.5,152,175.4z"/>
						</g>
						<path class="st18" d="M145.2,165h-0.1c-0.7,0-1.3,0.4-1.5,0.9l-8.1,18.5c0,0,0,0.1,0,0.1c0,0.3,0.2,0.5,0.6,0.5h0.6L145.2,165
							z"/>
					</g>
					<polygon class="st7" points="121.4,185.2 121.4,186.7 135.8,185.2 136,183.3 					"/>
					<polygon class="st33" points="121.4,185.2 121.4,186.7 135.8,185.2 136,183.3 					"/>
				</g>
			</g>
			<path class="st18" d="M82,89.2h10.6c1.3,0,2.4-1.1,2.4-2.4v-7.3C95,79.5,85.9,85.3,82,89.2z"/>
		</g>
		<path class="st30" d="M203.2,121.2c0,0-1.4,0.7-1.4,2.3c0,1.6,2,4.3,1.9,5.2c-0.1,0.9-0.2,3.6,0.7,4.8c0.9,1.2,5.7,2.1,5.7,2.1
			c0,0-0.5-3.3-1.2-6.9C208.3,125.2,203.2,121.2,203.2,121.2"/>
		<g>
			<g>
				<g>
					<path class="st34" d="M62,180.1c-8.5,9.9-10.9,24.6-6.2,36.7c5.3-4.7,9-11.9,9.2-18.2C65.3,192.4,63.6,186.2,62,180.1z"/>
				</g>
				<g>
					<path class="st34" d="M60.5,218c-2.9,4.4-4.2,9.8-3.8,15c4.6-1.6,8.6-6.8,11-11c2.4-4.2,3.8-8.9,5-13.6
						C67.7,210.1,63.4,213.6,60.5,218z"/>
				</g>
				<g>
					<g>
						<path class="st7" d="M59.4,197.4c-4.4,15.7-6,32.1-4.7,48.4c0,0.3,0.5,0.3,0.4,0c-1.3-16.2,0.3-32.6,4.7-48.3
							C59.9,197.2,59.5,197.1,59.4,197.4L59.4,197.4z"/>
					</g>
				</g>
				<g>
					<g>
						<path class="st7" d="M54.9,237.1c3.5-8.3,8-16,13.3-23.3c0.2-0.2-0.2-0.5-0.4-0.2c-5.3,7.3-9.9,15.1-13.4,23.4
							C54.4,237.3,54.8,237.4,54.9,237.1L54.9,237.1z"/>
					</g>
				</g>
				<g>
					<path class="st34" d="M49.9,224.8c2.4,3.7,3.5,8.1,3.2,12.5c-3.8-1.3-7.2-5.6-9.2-9.1c-2-3.5-3.1-7.4-4.2-11.3
						C43.9,218.3,47.5,221.1,49.9,224.8z"/>
				</g>
				<g>
					<g>
						<path class="st7" d="M54.8,240.2c-2.9-6.8-6.6-13.1-11-19c-0.2-0.2-0.5,0-0.4,0.2c4.3,5.9,8.1,12.2,10.9,18.9
							C54.5,240.6,54.9,240.5,54.8,240.2L54.8,240.2z"/>
					</g>
				</g>
				<g>
					<g>
						<path class="st7" d="M54.9,242.5c5.4-5.5,10.9-11,16.3-16.5c0.2-0.2-0.1-0.5-0.3-0.3c-5.4,5.5-10.9,11-16.3,16.5
							C54.4,242.4,54.7,242.7,54.9,242.5L54.9,242.5z"/>
					</g>
				</g>
				<g>
					<path class="st34" d="M71.4,223.4c-4.7,4.5-8.9,9.4-12.7,14.7l0.9,0c3.6-0.2,7-1.9,9.2-4.7C71,230.7,72,226.9,71.4,223.4z"/>
				</g>
				<g>
					<g>
						<g>
							<path class="st7" d="M49.2,212.7c2,3.3,3.9,6.6,5.7,10c0.1,0.3,0.5,0,0.4-0.2c-1.8-3.4-3.7-6.8-5.7-10
								C49.4,212.2,49.1,212.4,49.2,212.7L49.2,212.7z"/>
						</g>
					</g>
					<g>
						<path class="st34" d="M44.4,196.1c-0.8,3.4-1.5,7.9-1.5,11.5s1.1,7.1,3.1,9.5c2,2.4,6.1,3.5,7.8,2.1L44.4,196.1z"/>
					</g>
				</g>
			</g>
			<rect x="44.3" y="244.1" class="st7" width="20.4" height="3.8"/>
			<polygon class="st7" points="61.4,261.3 48.7,261.3 46.4,247 63.2,247 			"/>
			<polygon class="st30" points="46.6,247.9 63.1,247.9 62.9,249.6 46.8,249.6 			"/>
		</g>
		<g>
			<g>
				<g>
					<path class="st9" d="M89.7,86.6H49.4c-1.6,0-2.9-1.3-2.9-2.9v-33c0-1.6,1.3-2.9,2.9-2.9h40.3c1.6,0,2.9,1.3,2.9,2.9v33
						C92.6,85.3,91.3,86.6,89.7,86.6z"/>
					<path class="st15" d="M89.7,86.6H49.4c-1.6,0-2.9-1.3-2.9-2.9v-33c0-1.6,1.3-2.9,2.9-2.9h40.3c1.6,0,2.9,1.3,2.9,2.9v33
						C92.6,85.3,91.3,86.6,89.7,86.6z"/>
					<path class="st9" d="M92.6,54.6H46.5v-4c0-1.5,1.2-2.7,2.7-2.7h40.7c1.5,0,2.7,1.2,2.7,2.7V54.6z"/>
				</g>
				<g>
					<path class="st15" d="M90,51.7c0,0.8-0.7,1.5-1.5,1.5c-0.8,0-1.5-0.7-1.5-1.5c0-0.8,0.7-1.5,1.5-1.5C89.3,50.2,90,50.9,90,51.7
						z"/>
					<path class="st15" d="M85.8,51.7c0,0.8-0.7,1.5-1.5,1.5c-0.8,0-1.5-0.7-1.5-1.5c0-0.8,0.7-1.5,1.5-1.5
						C85.1,50.2,85.8,50.9,85.8,51.7z"/>
					<path class="st15" d="M81.6,51.7c0,0.8-0.7,1.5-1.5,1.5c-0.8,0-1.5-0.7-1.5-1.5c0-0.8,0.7-1.5,1.5-1.5
						C81,50.2,81.6,50.9,81.6,51.7z"/>
				</g>
			</g>
			<g>
				<path class="st6" d="M68.8,70.5l4-11c1.5,0.5,2.9,1.4,4,2.5c1.2,1.1,2.1,2.4,2.7,3.8L68.8,70.5z"/>
				<path class="st14" d="M68.8,70.5l3.4,11.2c-1.1,0.3-2.3,0.5-3.4,0.5c-6.4,0-11.7-5.3-11.7-11.7c0-6.4,5.3-11.7,11.7-11.7
					c1.3,0,2.7,0.2,3.9,0.7L68.8,70.5z"/>
				<path class="st2" d="M68.8,70.5l10.7-4.6c0.6,1.5,1,3,1,4.6c0,5.1-3.4,9.7-8.2,11.2L68.8,70.5z"/>
				<path class="st9" d="M68.8,70.5l10.7-4.6c0.6,1.5,1,3,1,4.6c0,5.1-3.4,9.7-8.2,11.2L68.8,70.5z"/>
			</g>
		</g>
		<g>
			<path class="st35" d="M231.5,109.5c-2,0.4-2.8,2-4.7,6.1c-2.5,5.2-6.1,14.6-7,14.7c-1.2,0.1-16-5.7-16-5.7l-2.3,2.6
				c0,0,7.8,10.4,20.1,13.7c2.2,0.6,5-1.9,7.7-5.3c0.5-0.7,1-1.4,1.5-2.1c2.7-4.1,5.2-8.3,7.3-12.7L231.5,109.5L231.5,109.5z"/>
			<path class="st24" d="M230.9,116.1c-0.6,2.5-1.9,6.3-3,9c-0.3,0.9-0.5,1.8-0.3,2.7c0.5,2.7,1.1,4.9,1.9,7
				c0.4,1.2,2.4,1.2,2.4,2.5c0.5-0.7,1-1.4,1.5-2.1l1.1-4.5L230.9,116.1z"/>
			<path class="st7" d="M222.2,132.3c0.7-0.2,1.1-0.9,0.9-1.6l-5-20.9c-0.3-1-1.2-1.7-2.2-1.7l-15.9-0.3c-0.2,0-0.3,0-0.5,0
				c-0.7,0.2-1.1,0.9-0.9,1.6l5,20.9c0.3,1,1.2,1.7,2.2,1.7l15.9,0.3C221.9,132.4,222.1,132.4,222.2,132.3z"/>
			<path class="st11" d="M222.2,132.3c0.7-0.2,1.1-0.9,0.9-1.6l-5-20.9c-0.3-1-1.2-1.7-2.2-1.7l-15.9-0.3c-0.2,0-0.3,0-0.5,0
				c-0.7,0.2-1.1,0.9-0.9,1.6l5,20.9c0.3,1,1.2,1.7,2.2,1.7l15.9,0.3C221.9,132.4,222.1,132.4,222.2,132.3z"/>
			<path class="st7" d="M220.6,132.3c0.7-0.2,1.1-0.9,0.9-1.6l-5-20.9c-0.3-1-1.2-1.7-2.2-1.7l-15.9-0.3c-0.2,0-0.3,0-0.5,0
				c-0.7,0.2-1.1,0.9-0.9,1.6l5,20.9c0.3,1,1.2,1.7,2.2,1.7l15.9,0.3C220.3,132.4,220.4,132.4,220.6,132.3z"/>
			<path class="st8" d="M220.6,132.3c0.7-0.2,1.1-0.9,0.9-1.6l-5-20.9c-0.3-1-1.2-1.7-2.2-1.7l-15.9-0.3c-0.2,0-0.3,0-0.5,0
				c-0.7,0.2-1.1,0.9-0.9,1.6l5,20.9c0.3,1,1.2,1.7,2.2,1.7l15.9,0.3C220.3,132.4,220.4,132.4,220.6,132.3z"/>
			<path class="st11" d="M207.2,118.6c0.1-0.7,0.6-1.1,1.3-1.1c0.9,0.1,1.7,0.7,2,1.6c0,0.1,0.1,0.3,0,0.5c-0.1,0.7-0.6,1.1-1.3,1.1
				c-0.9,0-1.7-0.7-2-1.6C207.2,118.9,207.2,118.7,207.2,118.6z"/>
			<path class="st36" d="M200.9,121c0.3,0,1.6,0.6,2.3,0.2c0.6-0.4,0-0.8,0-0.8c-1.1-0.3-2.4-1.7-3.1-1.3c-0.7,0.4-1.9,0.9-1.7,1.6
				c0.2,0.6,0.4,1.2,0.7,1.8c-0.2,0.3-0.2,0.7-0.1,1c0.1,0.4,0.5,0.6,0.8,0.7c-0.2,0.2-0.3,0.5-0.3,0.8c0.1,0.5,1.4,1.1,1.4,1.1
				s-0.3,0.8,0,1.1c0.5,0.4,1.2,0.6,1.8,0.4c0.8-0.2,1.3-0.4,1.2-1.2c-0.1-0.8-1.4-0.8-1.4-0.8s2.6-0.8,2-1.3
				c-0.5-0.5-2.6-0.4-2.6-0.4s3.5-0.7,2.9-1.4c-0.6-0.7-4-0.5-4-0.5S200.6,121,200.9,121z"/>
			<g>
				<g>
					<g>
						<g>
							<polygon class="st36" points="230.6,244.8 232.1,257.4 227.5,258 222.8,246.1 							"/>
						</g>
					</g>
				</g>
				<path class="st35" d="M223.9,254.9c-0.1-0.8,0-1.4,0.9-1.5l1.3-0.1c0.5,0,0.8,0.3,1.2,0.5c2.9,1.9,4.1-0.5,5.3-0.5
					c1.5,0,0.5,4.3,0.6,4.5l1.6,5c0.1,0.4-0.1,1.3-0.6,1.4c-0.1,0-0.2,0-0.3,0c-2.6,0-3.8,0-7.1,0h-9.9c-2.7,0-2.7-3-1.6-3.2
					c5-0.9,7-2.4,8.6-3.5C223.9,257.6,224,256.1,223.9,254.9z"/>
				<path class="st37" d="M216.9,264.4h9.9c3.2,0,4.5,0,7.1,0c0.1,0,0.2,0,0.3,0c0.3-0.1,0.6-0.5,0.6-0.9l0-0.4h-20
					C215,263.7,215.7,264.4,216.9,264.4z"/>
				<g>
					<g>
						<path class="st7" d="M221.3,259.4c0.2,0.2,0.4,0.4,0.6,0.6c0,0,0,0,0.1,0.1c0,0,0,0,0,0c0,0,0,0,0,0c0,0.1,0.1,0.1,0.1,0.2
							c0.1,0.1,0.1,0.2,0.2,0.3c0.1,0.1,0.2,0.1,0.3,0.1c0.1-0.1,0.1-0.2,0.1-0.3c-0.3-0.5-0.6-0.9-1.1-1.3c-0.1-0.1-0.2-0.1-0.3,0
							C221.2,259.2,221.2,259.3,221.3,259.4L221.3,259.4z"/>
					</g>
				</g>
				<g>
					<g>
						<path class="st7" d="M222.8,258.6c0.2,0.2,0.4,0.3,0.5,0.5c0,0,0,0,0.1,0.1c0,0,0,0,0,0c0,0,0,0,0,0c0,0,0.1,0.1,0.1,0.1
							c0.1,0.1,0.1,0.2,0.2,0.3c0.1,0.1,0.2,0.1,0.3,0.1c0.1-0.1,0.1-0.2,0.1-0.3c-0.3-0.5-0.6-0.9-1-1.2c-0.1-0.1-0.2-0.1-0.3,0
							C222.8,258.3,222.8,258.5,222.8,258.6L222.8,258.6z"/>
					</g>
				</g>
				<g>
					<g>
						<path class="st7" d="M224,257.8c0.1,0,0.2,0.1,0.3,0.2c0,0,0,0,0.1,0c0,0,0,0,0,0c0,0,0,0,0,0c0,0,0.1,0.1,0.1,0.1
							c0,0,0.1,0.1,0.1,0.1c0,0,0,0,0,0.1c0,0,0,0,0,0c0,0,0,0,0,0c0,0,0,0,0,0c0.1,0.1,0.1,0.2,0.2,0.2c0.1,0.1,0.2,0.1,0.3,0.1
							c0.1-0.1,0.1-0.2,0.1-0.3c-0.2-0.4-0.5-0.7-0.9-0.9c-0.1-0.1-0.2,0-0.3,0.1C223.9,257.6,223.9,257.8,224,257.8L224,257.8z"/>
					</g>
				</g>
				<g>
					<g>
						<path class="st7" d="M224.1,256.3c0.1,0,0.2,0,0.3,0c0.1,0,0.2,0,0.3,0c0.2,0,0.4,0.1,0.6,0.2c0.1,0,0.2,0,0.3-0.2
							c0-0.1,0-0.2-0.2-0.3c-0.4-0.2-0.9-0.3-1.4-0.3c-0.1,0-0.2,0.1-0.2,0.2C223.9,256.2,224,256.3,224.1,256.3L224.1,256.3z"/>
					</g>
				</g>
				<g class="st18">
					<path d="M228.9,256.4c0,0.4,0.2,0.9,0.6,1.1c0.3,0.1,0.6,0.1,0.9,0.1c0.9,0,1.8,0,2.7-0.1l0,0c0.1-1.2,0.5-4-0.6-4
						c-0.9,0-1.8,1.6-3.6,1.2C228.9,255.4,228.9,256.1,228.9,256.4z"/>
				</g>
				<g>
					<path class="st7" d="M216.6,205.4c0.8-7.3,11-46.2,11-46.2l13-0.3l20-0.6c0,0,1.2,10.4,1.2,24.1c0,0-1,58.2-1.8,72.1l-11,0.4
						c-1.2-10.9-2.9-44.9-2.9-44.9c-0.8-6.2-1.4-24.3-2-29.5c-0.2-1.1-0.4-2.3-0.7-3.5c-2.1,5.6-11.9,29.7-12.6,33.2l4,45.8
						l-11.8-0.5C223,255.6,215.8,212.8,216.6,205.4z"/>
					<path d="M234.4,160.8c-1.2,3.7-4.4,6.7-8.4,7.8c-0.2,0.1-0.1,0.4,0.1,0.3c4.1-1.1,7.4-4.2,8.6-8.1
						C234.8,160.7,234.5,160.6,234.4,160.8L234.4,160.8z"/>
					<path d="M244.4,161.3c-0.2,3.3-0.5,6.5-0.7,9.8c0,0.2-0.4,0.2-0.3,0c0.1-1.7,0.2-3.4,0.4-5c-0.9,0.6-1.8-0.1-2.1-1
						c-0.5-1.3-0.3-3,0.1-4.3c0.1-0.2,0.4-0.1,0.3,0.1c-0.3,0.9-0.4,1.9-0.3,2.9c0,0.5,0.1,1.1,0.3,1.5c0.3,0.5,1,0.9,1.5,0.5
						c0.1,0,0.1-0.1,0.2,0c0.1-1.5,0.2-3,0.3-4.5C244,161.1,244.4,161.1,244.4,161.3z"/>
					<path d="M252.5,160.7c0,4.3,3.5,8,8,8.3c0.2,0,0.2-0.3,0-0.3c-4.4-0.3-7.7-3.8-7.7-8C252.8,160.5,252.5,160.5,252.5,160.7
						L252.5,160.7z"/>
				</g>
				<g>
					<g>
						<polygon class="st7" points="250.8,245.4 252.8,258.4 257.4,258.6 258.9,246.1 						"/>
					</g>
				</g>
				<g>
					<path class="st35" d="M261.3,264.4H251c0,0-0.2-0.4,0-1.5c0-0.2,0.1-0.3,0.2-0.5c0,0,0,0,0,0c0.1-0.3,0.2-0.7,0.3-1
						c0.5-1.6,0.8-5.2,0.8-5.2s2-1.8,4-1c1.8,0.7,1.5,1.7,1.5,1.7s0,2.4,1.4,3.5c0.8,0.7,1.6,1.2,2,2c0.1,0.2,0.1,0.3,0.2,0.5
						c0,0,0,0,0,0.1C261.4,263.3,261.4,263.8,261.3,264.4z"/>
				</g>
				<path class="st37" d="M251,262.9c-0.3,1.1,0,1.5,0,1.5h10.3c0.1-0.6,0.1-1.1,0-1.5H251z"/>
				<g>
					<g>
						<path class="st7" d="M257.2,258.5c-0.6-0.4-1.3-0.4-1.9,0.1c-0.1,0.1-0.4-0.1-0.2-0.2c0.7-0.6,1.6-0.6,2.3-0.1
							C257.6,258.4,257.4,258.6,257.2,258.5L257.2,258.5z"/>
					</g>
				</g>
				<g>
					<g>
						<path class="st7" d="M257.5,259.4c-0.6-0.4-1.3-0.4-1.9,0.1c-0.1,0.1-0.4-0.1-0.2-0.2c0.7-0.6,1.6-0.6,2.3-0.1
							C257.9,259.3,257.6,259.5,257.5,259.4L257.5,259.4z"/>
					</g>
				</g>
				<g>
					<g>
						<path class="st7" d="M257.8,260.2c-0.6-0.4-1.3-0.4-1.9,0.1c-0.1,0.1-0.4-0.1-0.2-0.2c0.7-0.6,1.6-0.6,2.3-0.1
							C258.2,260.1,257.9,260.3,257.8,260.2L257.8,260.2z"/>
					</g>
				</g>
				<path class="st35" d="M227.7,156.2c-1.8,3-1.8,5.4-0.1,6.1c0,0,15.9,2.7,32.2,0.8c3.9,0.2,2-3.4,2-3.4l0.1-50.3
					c-12.4-2.6-27.4-0.2-30.4,0L227.7,156.2z"/>
				<path class="st24" d="M261.8,138.7v-16.6c0,0,2.4,17,1.2,21.3L261.8,138.7z"/>
				<g>
					<path class="st7" d="M239.3,87.2c0,0-6-3.4-2.4-7c2.8-2.9,5.3-2.4,9.1-1.8c9.2,1.7,8.7,5.5,8.7,5.5L239.3,87.2z"/>
					<g>
						<path class="st36" d="M251.1,106.6c0,0-0.5-3.5,1.6-9.7c0,0-0.3-0.2-0.3-0.2c0.3-0.9,0.6-1.7,0.9-2.3c0,0,0,0,0,0l-8.7,4.9
							c0.1,2-0.8,5.8-1.3,7.4c0,0-1.2,2.9,2.7,3.2C248.8,110.1,251.1,106.6,251.1,106.6z"/>
						<path class="st30" d="M244.2,102.1l4.9-0.9c-0.5,1.5-1.9,3.2-5.3,3.2C243.8,104.4,244.2,102.7,244.2,102.1z"/>
					</g>
					<g>
						<path class="st36" d="M253.5,90.3c-0.8,5.4-1.2,8.4-4.1,10.9c-4.5,3.8-10.8,0.8-11.6-4.7c-0.7-5,0.7-12.9,6.2-14.5
							C249.3,80.3,254.3,84.9,253.5,90.3z"/>
						<path class="st7" d="M254.7,83.8c-6.6-6.3-13.3-2.8-15.9,0.7l11.5,0.1c0.5,0,0.8,0.5,0.7,1.5c0,0-4,7.1,1.5,11.2
							c2-0.8,2.4-4,3.1-5.9C256.8,88.5,258.3,84.4,254.7,83.8z"/>
						<path class="st36" d="M255.2,94.9c-0.6,1.4-1.7,2.3-2.8,2.8c-1.7,0.7-2.1-1.2-1.8-2.8c0.3-1.5,0.9-3.3,2.6-3.3
							C255,91.6,255.8,93.4,255.2,94.9z"/>
						<path class="st7" d="M245.1,91.3c0,0.6-0.4,1-0.7,0.9c-0.4,0-0.6-0.5-0.6-1.1c0-0.6,0.4-1,0.7-0.9
							C244.9,90.2,245.2,90.7,245.1,91.3z"/>
						<path class="st7" d="M240,91c0,0.6-0.4,1-0.7,0.9c-0.4,0-0.6-0.5-0.6-1.1c0-0.6,0.4-1,0.7-0.9C239.8,90,240,90.5,240,91z"/>
						<path class="st38" d="M242,90.6c0,0-2,2.6-2.6,3.7c0.7,0.8,2.1,0.6,2.1,0.6L242,90.6z"/>
						<path class="st7" d="M247.2,88.6c-0.1,0-0.2,0-0.3-0.1c-0.8-0.8-1.8-0.6-1.8-0.6c-0.1,0-0.3-0.1-0.3-0.2
							c0-0.1,0.1-0.3,0.2-0.3c0,0,1.2-0.3,2.3,0.7c0.1,0.1,0.1,0.3,0,0.4C247.3,88.6,247.2,88.6,247.2,88.6z"/>
						<path class="st39" d="M243,96.7c0.9,0.1,1.6-0.3,2.4-0.9"/>
					</g>
					<path class="st25" d="M254.1,93.3c-0.2-0.3-0.6-0.5-1-0.4c-0.4,0.1-0.7,0.3-1,0.6c-0.3,0.4-0.5,0.8-0.6,1.2"/>
					<path class="st7" d="M238,88.2c0,0-0.1,0-0.1-0.1c-0.1-0.1-0.1-0.3,0-0.4c1.1-0.9,2.2-0.5,2.3-0.5c0.1,0,0.2,0.2,0.2,0.3
						c0,0.1-0.2,0.2-0.3,0.2c0,0-0.9-0.3-1.8,0.4C238.2,88.2,238.1,88.2,238,88.2z"/>
					<g class="st30">
						<path d="M245.8,94.6c0.5,0.5,0.7,1.2,0.7,1.9c0,0,0.3-0.6,0.2-1.1C246.6,94.8,245.8,94.6,245.8,94.6z"/>
					</g>
				</g>
				<g>
					<polygon class="st2" points="243.4,105.2 240,108.2 245.7,115.1 253.9,108.2 251.5,104.6 246.3,108.9 					"/>
					<polygon class="st40" points="243.4,105.2 240,108.2 245.7,115.1 253.9,108.2 251.5,104.6 246.3,108.9 					"/>
				</g>
			</g>
			<path class="st24" d="M261.7,145.8v5.9c0,0-13.1-3.8-20.8-10.7c-5.5-4.9-4.6-7-4.6-7l6.2,0.6L261.7,145.8z"/>
			<path class="st24" d="M257.6,123.5l0.8,13.9c2.3,1.5,3.9-0.6,4.2-2.7v-4L257.6,123.5z"/>
			<path class="st35" d="M257.5,124.4c0,0,4.2,11,3.2,11.6c-1,0.7-18.1-2.6-18.1-2.6l-2.6,3.8c0.6,2.5,29.5,18.2,31.8,5.1
				c1.2-6.8-3.5-23-5.3-28c-0.5-1.4-3-4.4-4.5-4.8c-0.5-0.2-1-0.2-1.5-0.1C255,110.4,257.5,124.4,257.5,124.4z"/>
			<path class="st36" d="M239.7,137.6c-2,0.2-2-2.8-3.1-2.9c-0.6-0.1-1.2-0.2-1.7-0.4c0,0,0.7,1.8,0,1.6c-0.7-0.1-2.7-0.2-3.3-2
				c-0.5-1.7,1.3-5.4,1.8-5.9c0.4-0.5,2.7-0.4,2.7-0.4s-2.4-0.6-3.7-0.8c-1.3-0.2-1.6-1.7,0.3-1.4c0.8,0.1,6.7,0.2,7.4,0.8
				c0.6,0.6,3,6.6,3,6.6C243.9,133.5,241.6,138.5,239.7,137.6z"/>
			<g class="st18">
				<path d="M236,127.5c0.6,0,1.2,0,1.8,0.1c0.1,0,0.1,0.1,0.1,0.2c0,0.1-0.1,0.1-0.2,0.1c-0.6-0.1-1.1-0.2-1.7-0.1
					C235.9,127.8,235.8,127.5,236,127.5z"/>
				<path d="M233,129.3c-0.2,0.1-0.4-0.2-0.2-0.3c1.1-0.6,2.3-0.3,3.4,0.1c0.2,0.1,0.1,0.4-0.1,0.3C235.1,129.1,234,128.8,233,129.3
					z"/>
				<path d="M232.1,130.8c1-0.6,2.1-0.6,3.2-0.1c0.1,0,0.1,0.2,0.1,0.2c0,0.1-0.1,0.1-0.2,0.1c-0.9-0.4-2-0.4-2.8,0.1
					C232.1,131.2,231.9,130.9,232.1,130.8z"/>
				<path d="M233.7,133.3c-0.1-0.2-0.2-0.4-0.2-0.6c0-0.2,0.3-0.3,0.3-0.1c0.1,0.6,0.5,1.2,1.1,1.5c0.2,0.1,0,0.4-0.1,0.3h0
					c-0.4-0.2-0.6-0.5-0.9-0.8c0,0,0,0-0.1,0c-0.4-0.1-0.7,0-1,0.3c-0.1,0.2-0.4-0.1-0.3-0.2C232.9,133.4,233.3,133.2,233.7,133.3z"
					/>
			</g>
		</g>
	</g>
</g>
</svg>
