<?xml version="1.0" encoding="utf-8"?>
<!-- Generator: Adobe Illustrator 26.0.0, SVG Export Plug-In . SVG Version: 6.00 Build 0)  -->
<svg version="1.1" id="Layer_1" xmlns="http://www.w3.org/2000/svg" xmlns:xlink="http://www.w3.org/1999/xlink" x="0px" y="0px"
	 viewBox="0 0 24 24" style="enable-background:new 0 0 24 24;" xml:space="preserve">
<style type="text/css">
	.st0{fill:#64C4B2;}
	.st1{fill:#526BB1;}
	.st2{fill:#E8137B;}
	.st3{fill:#F7D447;}
	.st4{fill:#45C6EE;}
	.st5{fill:#FFFFFF;}
</style>
<g>
	<g id="Group_6_00000047772857884219906310000010719788259582796222_" transform="translate(79.021 0)">
		<path id="Rectangle_12_00000078028760921328514240000008179893083553438356_" class="st0" d="M-69.6,5.2L-69.6,5.2
			c0.3,0.2,0.4,0.6,0.2,0.9l-2.5,4.4c-0.2,0.3-0.6,0.4-0.9,0.2l0,0c-0.3-0.2-0.4-0.6-0.2-0.9l2.5-4.4C-70.3,5.2-69.9,5.1-69.6,5.2z"
			/>
		<path id="Rectangle_13_00000143581575858055924440000003165886651353181373_" class="st1" d="M-65.5,7.4L-65.5,7.4
			c0.3,0.2,0.4,0.6,0.3,0.9l-2.8,5.1c-0.2,0.3-0.6,0.4-0.9,0.3l0,0c-0.3-0.2-0.4-0.6-0.3-0.9l2.8-5.1C-66.2,7.3-65.8,7.2-65.5,7.4z"
			/>
		<path id="Rectangle_14_00000177463344472431205450000013700110859597542289_" class="st2" d="M-64,9.6L-64,9.6
			c0.3,0.2,0.4,0.6,0.3,0.9l-1.6,3c-0.2,0.3-0.6,0.4-0.9,0.3l0,0c-0.3-0.2-0.4-0.6-0.3-0.9l1.6-3C-64.7,9.5-64.3,9.4-64,9.6z"/>
		<path id="Rectangle_15_00000027568842504076146680000002403505488120677777_" class="st3" d="M-61.3,9.6L-61.3,9.6
			c0.3,0.2,0.4,0.6,0.2,0.9l-1.7,2.9c-0.2,0.3-0.6,0.4-0.9,0.2l0,0c-0.3-0.2-0.4-0.6-0.2-0.9l1.7-2.9C-62,9.5-61.6,9.4-61.3,9.6z"/>
		<path id="Rectangle_16_00000007420103434017916820000014073164218134055075_" class="st4" d="M-66.7,5.1L-66.7,5.1
			c0.3,0.2,0.4,0.6,0.2,0.9l-4.3,7.4c-0.2,0.3-0.6,0.4-0.9,0.2l0,0c-0.3-0.2-0.4-0.6-0.2-0.9l4.3-7.4C-67.5,5-67.1,4.9-66.7,5.1z"/>
	</g>
	<g id="Group_7_00000002373581388636387970000005768133447061725628_" transform="translate(0 180.969)">
		<path id="Path_14_00000169550271049291818780000003741613736085820059_" class="st5" d="M4.7-164.6L3.8-162H3.3l-0.7-1.9L2-162
			H1.5l-0.9-2.6h0.5l0.7,2l0.7-2h0.5l0.7,2l0.7-2H4.7z"/>
		<path id="Path_15_00000103233493463753173470000002962380317640608663_" class="st5" d="M5.6-162.1c-0.2-0.1-0.4-0.3-0.5-0.5
			c-0.1-0.2-0.2-0.4-0.2-0.7c0-0.2,0.1-0.5,0.2-0.7c0.1-0.2,0.3-0.4,0.5-0.5c0.2-0.1,0.5-0.2,0.7-0.2c0.3,0,0.5,0.1,0.7,0.2
			c0.2,0.1,0.4,0.3,0.5,0.5c0.1,0.2,0.2,0.5,0.2,0.7c0,0.2-0.1,0.5-0.2,0.7c-0.1,0.2-0.3,0.4-0.5,0.5C6.8-162,6.6-162,6.3-162
			C6.1-162,5.8-162,5.6-162.1z M6.8-162.5c0.1-0.1,0.3-0.2,0.3-0.3c0.1-0.1,0.1-0.3,0.1-0.5s0-0.3-0.1-0.5c-0.1-0.1-0.2-0.3-0.3-0.3
			c-0.1-0.1-0.3-0.1-0.5-0.1c-0.2,0-0.3,0-0.5,0.1c-0.1,0.1-0.3,0.2-0.3,0.3c-0.1,0.1-0.1,0.3-0.1,0.5s0,0.3,0.1,0.5
			c0.1,0.1,0.2,0.3,0.3,0.3c0.1,0.1,0.3,0.1,0.5,0.1C6.5-162.4,6.6-162.4,6.8-162.5L6.8-162.5z"/>
		<path id="Path_16_00000108988827968367402330000013194717664502218415_" class="st5" d="M10-162l-0.5-0.8c0,0-0.1,0-0.1,0H8.7v0.8
			H8.3v-2.6h1.1c0.2,0,0.4,0,0.6,0.1c0.2,0.1,0.3,0.2,0.4,0.3c0.1,0.1,0.1,0.3,0.1,0.5c0,0.2,0,0.4-0.1,0.5
			c-0.1,0.1-0.2,0.3-0.4,0.3l0.6,0.9H10z M9.8-164.1c-0.1-0.1-0.3-0.1-0.5-0.1H8.7v1h0.6c0.2,0,0.4,0,0.5-0.1
			c0.1-0.1,0.2-0.2,0.2-0.4C10-163.8,9.9-164,9.8-164.1L9.8-164.1z"/>
		<path id="Path_17_00000178908950573962717750000015468027325995995826_" class="st5" d="M11.9-163.1l-0.4,0.4v0.7H11v-2.6h0.5v1.3
			l1.3-1.3h0.5l-1.1,1.2l1.2,1.5h-0.6L11.9-163.1z"/>
		<path id="Path_18_00000175285284668881407360000014644582795504675498_" class="st5" d="M17.4-164.6l-0.9,2.6H16l-0.7-1.9
			l-0.7,1.9h-0.5l-0.9-2.6h0.5l0.7,2l0.7-2h0.5l0.7,2l0.7-2H17.4z"/>
		<path id="Path_19_00000091003977930194826520000002030202169076304315_" class="st5" d="M17.8-164.6h0.5v2.6h-0.5V-164.6z"/>
		<path id="Path_20_00000047053859208687512900000018212238054443733413_" class="st5" d="M19.3-162.1c-0.2,0-0.3-0.1-0.4-0.2
			l0.2-0.4c0.1,0.1,0.3,0.2,0.4,0.2c0.2,0.1,0.3,0.1,0.5,0.1c0.2,0,0.3,0,0.4-0.1c0.1-0.1,0.1-0.1,0.1-0.2c0-0.1,0-0.1-0.1-0.2
			c-0.1-0.1-0.1-0.1-0.2-0.1c-0.1,0-0.2-0.1-0.3-0.1c-0.2,0-0.3-0.1-0.5-0.1c-0.1,0-0.2-0.1-0.3-0.2c-0.1-0.1-0.1-0.3-0.1-0.4
			c0-0.1,0-0.3,0.1-0.4c0.1-0.1,0.2-0.2,0.4-0.3c0.2-0.1,0.4-0.1,0.6-0.1c0.2,0,0.3,0,0.5,0.1c0.1,0,0.3,0.1,0.4,0.2l-0.2,0.4
			c-0.1-0.1-0.2-0.1-0.4-0.2c-0.1,0-0.2-0.1-0.4-0.1c-0.2,0-0.3,0-0.4,0.1c-0.1,0.1-0.1,0.2-0.1,0.3c0,0.1,0,0.1,0.1,0.2
			c0.1,0.1,0.1,0.1,0.2,0.1c0.1,0,0.2,0.1,0.3,0.1c0.2,0,0.3,0.1,0.5,0.1c0.1,0,0.2,0.1,0.3,0.2c0.1,0.1,0.1,0.3,0.1,0.4
			c0,0.1,0,0.3-0.1,0.4c-0.1,0.1-0.2,0.2-0.4,0.3c-0.2,0.1-0.4,0.1-0.6,0.1C19.7-162,19.5-162,19.3-162.1z"/>
		<path id="Path_21_00000036949988046364668320000016751246634856224422_" class="st5" d="M23.4-162.4v0.4h-2v-2.6h1.9v0.4h-1.4v0.7
			h1.3v0.4h-1.3v0.7H23.4z"/>
	</g>
</g>
</svg>
